<?xml version="1.0" encoding="utf-8"?>
<!-- Generator: Adobe Illustrator 24.3.0, SVG Export Plug-In . SVG Version: 6.00 Build 0)  -->
<svg version="1.1" id="Layer_1" xmlns="http://www.w3.org/2000/svg" xmlns:xlink="http://www.w3.org/1999/xlink" x="0px" y="0px"
	 viewBox="0 0 784.4 585.2" style="enable-background:new 0 0 784.4 585.2;" xml:space="preserve">
<style type="text/css">
	.st0{opacity:0.545;}
	.st1{fill:#EFF3FC;}
</style>
<g id="Blob_bottom" transform="translate(-1160.3 -5.036) rotate(-42)" class="st0">
	<path id="Path_190" class="st1" d="M462.6,1214.3c0,0,84.1-90.3,90.2-100.2c157.5,74.2,244.1-125.8,244.1-125.8
		s144.3-203.1,246.2,64.3c18.7,76.9,5.9,101.5,45.4,186.4c39.5,84.9,174.7,128.7,81.3,253.2c-68.1,90.7-129.6,143.9-123.3,241.7
		C1048.1,1738.9,465.7,1213.3,462.6,1214.3z"/>
	
		<ellipse id="Ellipse_4" transform="matrix(-0.9994 3.422747e-02 -3.422747e-02 -0.9994 2443.5237 2272.1077)" class="st1" cx="1202.3" cy="1157" rx="47" ry="46.5"/>
	<ellipse id="Ellipse_9" class="st1" cx="1301.3" cy="1404.5" rx="29" ry="29"/>
</g>
</svg>
