<?xml version="1.0" encoding="utf-8"?>
<!-- Generator: Adobe Illustrator 24.2.3, SVG Export Plug-In . SVG Version: 6.00 Build 0)  -->
<svg version="1.1" id="Layer_1" xmlns="http://www.w3.org/2000/svg" xmlns:xlink="http://www.w3.org/1999/xlink" x="0px" y="0px"
	 viewBox="0 0 277 538" style="enable-background:new 0 0 277 538;" xml:space="preserve">
<style type="text/css">
	.st0{fill:none;}
	.st1{opacity:0.545;}
	.st2{fill:#EFF3FC;}
	.st3{opacity:0.55;fill:#EFF3FC;enable-background:new    ;}
	.st4{fill:#EFF3FC;stroke:url(#Unnamed_Pattern);stroke-miterlimit:10;}
	.st5{opacity:0.55;fill:#EFF3FC;stroke:url(#Unnamed_Pattern);stroke-miterlimit:10;enable-background:new    ;}
</style>
<pattern  width="634.8" height="739.8" patternUnits="userSpaceOnUse" id="Unnamed_Pattern" viewBox="24.2 -748.3 634.8 739.8" style="overflow:visible;">
	<g>
		<rect x="24.2" y="-748.3" class="st0" width="634.8" height="739.8"/>
		<g id="Blob_top_left_4_" transform="matrix(0.788, -0.616, 0.616, 0.788, 298.74, 197.555)">
			<g id="Group_82_4_" transform="matrix(0.883, -0.469, 0.469, 0.883, -1238.529, -749.369)" class="st1">
				<path id="Path_190_4_" class="st2" d="M1042.1,888.1c44.3,37.7,81.4,159.6,81.4,159.6s-121.5,161.4-130.3,250.5
					c27.9,84.9,110.4,39,110.4,39s97.9-78.9,143.7-116.3s103.2-17.6,158.5,18s163.2-10.5,113.4-103.8
					c-49.8-93.3,17.6-110.5,76.5-166.6c58.8-56.1,18.6-122.3-51.3-134c-66.6-11.2-53.2-62.6-53.8-64.2
					c-64.3-120.6-155.1-29-155.1-29s-54.5,90.2-153.7,56.7c-99.2-33.5-127,12.7-127,12.7S997.8,850.4,1042.1,888.1z"/>
				<circle id="Ellipse_16_4_" class="st2" cx="1293.9" cy="1303.6" r="20.8"/>
			</g>
			<circle id="Ellipse_17_4_" class="st3" cx="604.9" cy="-236.6" r="29.3"/>
		</g>
	</g>
</pattern>
<g id="Blob_top_left_2_" transform="matrix(0.788, -0.616, 0.616, 0.788, 298.74, 197.555)">
	<g id="Group_82_2_" transform="matrix(0.883, -0.469, 0.469, 0.883, -1238.529, -749.369)" class="st1">
		<path id="Path_190_2_" class="st4" d="M405,675.9c0,0,27.8-46.2,127-12.7s153.7-56.7,153.7-56.7s90.8-91.6,155.1,29
			c0.6,1.6-12.8,53,53.8,64.2c69.9,11.7,110.1,77.9,51.3,134s-126.2,73.4-76.5,166.6s-58.1,139.3-113.4,103.8s-112.7-55.3-158.5-18
			s-143.7,116.3-143.7,116.3s-82.5,46-110.4-39c8.8-89.1,130.3-250.5,130.3-250.5s-37-121.8-81.4-159.6S405,675.9,405,675.9z"/>
		<circle id="Ellipse_16_2_" class="st4" cx="644.1" cy="1168.9" r="20.8"/>
	</g>
	<circle id="Ellipse_17_2_" class="st5" cx="-32.1" cy="-50.9" r="29.3"/>
</g>
</svg>
