<?xml version="1.0" encoding="utf-8"?>
<!-- Generator: Adobe Illustrator 24.2.3, SVG Export Plug-In . SVG Version: 6.00 Build 0)  -->
<svg version="1.1" id="Blob_Hero" xmlns="http://www.w3.org/2000/svg" xmlns:xlink="http://www.w3.org/1999/xlink" x="0px" y="0px"
	 viewBox="0 0 1078.3 1081.6" style="enable-background:new 0 0 1078.3 1081.6;" xml:space="preserve">
<style type="text/css">
	.st0{opacity:0.55;fill:#EFF3FC;enable-background:new    ;}
	.st1{fill:#EFF3FC;}
	.st2{fill:#FFFFFF;}
</style>
<g>
	<path id="blob" class="st0" d="M1086.2,989.7c-96.7,104.6-175.5,112-267.8,13c-93.8-99.5-92.4-286.5-216.6-381
		S336.7,484.9,172.2,385.1C6.2,284.8-36.6,98.8,56.1-8.9c2,2.2,1019.9,6,1024,7.3C1078.7-7.8,1087.7,987,1086.2,989.7z"/>
	<circle id="Ellipse_18" class="st1" cx="661.3" cy="878" r="29.3"/>
	<circle id="Ellipse_19" class="st1" cx="718.4" cy="1033.1" r="38.8"/>
	<path id="Path_345" class="st2" d="M1014.7,168.7c-5-1.6-9.2-3.5-13.2,0c0.9-5.6,1.6-11.5,0-17s-6.1-10.5-11.8-11
		c-4.3-0.2-8.3,2.3-10.1,6.2c-0.5-2.2-1.9-4.1-3.9-5.2c-3.5-1.7-7.7-0.7-10,2.4c1.2-3.4-0.5-7.1-3.8-8.6c-3.2-1.3-4.8-1.4-6.1,1.8
		c-10.1-15.9-32.1-22.9-49.5-15.8c-17.4,7.1-28.3,27.9-24.3,46.3c-1.2-4.6-5.8-7.5-10.5-6.6c-4.5,1-8.2,6.1-7.2,10.6
		c-1.4-3.6-6.2-4.6-9.9-3.5s-6.7,3.7-10,5.6c-1.4,0.8-2.8,1.5-4.4,2h196.4L1014.7,168.7z"/>
	<path id="Path_346" class="st2" d="M599.7,196.7c-5-1.6-9.2-3.5-13.2,0c0.9-5.6,1.6-11.5,0-17s-6.1-10.5-11.8-11
		c-4.3-0.2-8.3,2.3-10.1,6.2c-0.5-2.2-1.9-4.1-3.9-5.2c-3.5-1.7-7.7-0.7-10,2.4c1.2-3.4-0.5-7.1-3.8-8.6c-3.2-1.3-4.8-1.4-6.1,1.8
		c-10.1-15.9-32.1-22.9-49.5-15.8c-17.4,7.1-28.1,27.8-24.2,46.2c-1.2-4.6-5.8-7.5-10.5-6.6c-4.5,1-8.2,6.1-7.2,10.6
		c-1.4-3.6-6.2-4.6-9.9-3.5c-3.7,1.1-6.7,3.7-10,5.6c-1.4,0.8-2.8,1.5-4.4,2h196.4L599.7,196.7z"/>
	<path id="Path_347" class="st2" d="M1024.7,258.4c-3.1-1-5.7-2.1-8.2,0c0.5-3.5,1-7.2,0-10.6s-3.8-6.5-7.4-6.8
		c-2.7-0.1-5.2,1.4-6.3,3.9c-0.3-1.4-1.2-2.6-2.4-3.3c-2.2-1.1-4.8-0.4-6.2,1.5c0.7-2.1-0.3-4.4-2.3-5.3c-2-0.8-3-0.9-3.8,1.1
		c-6.3-9.9-20-14.3-30.8-9.8c-10.8,4.4-17.5,17.3-15.1,28.7c-0.8-2.9-3.6-4.7-6.5-4.1c-2.8,0.6-5.1,3.8-4.5,6.6
		c-0.9-2.2-3.9-2.8-6.1-2.2c-2.3,0.7-4.2,2.3-6.2,3.5c-0.9,0.5-1.8,0.9-2.7,1.2h122.2L1024.7,258.4z"/>
</g>
</svg>
