<svg xmlns="http://www.w3.org/2000/svg" width="51" height="51" viewBox="0 0 51 51">
  <g id="face-mask" transform="translate(-2 -2)">
    <path id="Path_339" data-name="Path 339" d="M38.21,37.53a.848.848,0,0,0,.34-.68v-.167a16.191,16.191,0,0,0,3.458-4.707A10.214,10.214,0,0,0,52.15,41.1a.85.85,0,0,0,.85-.85V19.85A10.211,10.211,0,0,0,42.8,9.65H41.206A16.119,16.119,0,0,0,11.393,17.3H10.5a4.25,4.25,0,1,0,0,8.5h.9A16.152,16.152,0,0,0,16.45,36.683v.167a.849.849,0,0,0,.34.68,17.577,17.577,0,0,0,3.06,1.827v1.535a2.562,2.562,0,0,1-2.025,2.5l-8.19,1.725a10.257,10.257,0,0,0-7.592,6.77A.841.841,0,0,0,2,52.15V53H3.7v-.708a8.553,8.553,0,0,1,6.286-5.517l1.424-.3c3.651,3.559,9.616,5.675,16.09,5.675s12.44-2.117,16.091-5.675l1.424.3A8.553,8.553,0,0,1,51.3,52.292V53H53v-.85a.85.85,0,0,0-.043-.269,10.257,10.257,0,0,0-7.592-6.77l-8.19-1.725a2.561,2.561,0,0,1-2.025-2.5V39.356a17.572,17.572,0,0,0,3.06-1.826Zm-20.577-11.8L13.05,20.385v-.572c4.844-.3,8.888-3.08,10.4-6.872,2.576,3.9,9.646,6.686,18.295,6.9l-4.417,5.89-9.69-1.615a.813.813,0,0,0-.28,0ZM44.5,19a2.55,2.55,0,0,1,0,5.1h-.85V19ZM38.55,34.207V26.933l3.4-4.533v2.55A14.432,14.432,0,0,1,38.55,34.207ZM42.8,11.35a8.51,8.51,0,0,1,8.5,8.5V39.358A8.512,8.512,0,0,1,43.65,30.9V25.8h.85a4.25,4.25,0,0,0,0-8.5h-.893a16.013,16.013,0,0,0-1.479-5.95ZM27.5,3.7A14.465,14.465,0,0,1,41.949,18.14C32.189,17.93,24.1,14.128,24.1,9.65H22.4c0,4.447-4.122,8.1-9.348,8.464A14.465,14.465,0,0,1,27.5,3.7ZM7.95,21.55A2.553,2.553,0,0,1,10.5,19h.85v5.1H10.5A2.553,2.553,0,0,1,7.95,21.55Zm5.1,3.4V23l3.4,3.967v7.243A14.432,14.432,0,0,1,13.05,24.95Zm5.1,9.537,3.233.647.334-1.667-3.567-.714V30.747l3.567-.713-.334-1.667-3.233.646V27.37l9.35-1.558,9.35,1.558v1.643l-3.233-.647-.334,1.667,3.567.714v2.007l-3.567.713.334,1.667,3.233-.647v1.931a16.239,16.239,0,0,1-18.7,0ZM36.825,45.05l4.707.991c-3.384,2.78-8.492,4.409-14.032,4.409s-10.648-1.629-14.032-4.409l4.707-.991a4.269,4.269,0,0,0,3.375-4.159v-.835a17.85,17.85,0,0,0,11.9,0v.835a4.269,4.269,0,0,0,3.375,4.159Z" fill="#6b94fe"/>
    <circle id="Ellipse_13" data-name="Ellipse 13" cx="1.7" cy="1.7" r="1.7" transform="translate(19.85 20.7)" fill="#6b94fe"/>
    <circle id="Ellipse_14" data-name="Ellipse 14" cx="1.7" cy="1.7" r="1.7" transform="translate(31.75 20.7)" fill="#6b94fe"/>
  </g>
</svg>
