<?xml version="1.0" encoding="utf-8"?>
<!-- Generator: Adobe Illustrator 24.2.3, SVG Export Plug-In . SVG Version: 6.00 Build 0)  -->
<svg version="1.1" id="Layer_1" xmlns="http://www.w3.org/2000/svg" xmlns:xlink="http://www.w3.org/1999/xlink" x="0px" y="0px"
	 viewBox="0 0 191 170" style="enable-background:new 0 0 191 170;" xml:space="preserve">
<style type="text/css">
	.st0{opacity:0.2;fill:#98D8EA;enable-background:new    ;}
	.st1{fill:#6B94FE;}
</style>
<g id="Group_92" transform="translate(-1 -19)">
	<path id="blob-2" class="st0" d="M21.7,75.3c10.2-21,19.3-39.8,34-47.4c14.6-7.5,34.9-4.1,52.3,1.3c17.5,5.5,32.1,13.1,41.1,24.6
		s12.6,26.8,18.8,46.6c6.1,20,14.9,44.3,6.5,55.5c-8.4,11.2-34.1,9-58.7,15c-24.6,6.1-48.1,20-69.1,16.8c-21-3.2-39.5-23.7-43-45.7
		C0,120,11.5,96.5,21.7,75.3z"/>
	<g id="window" transform="translate(61.558 76.58)">
		<path id="Path_195" class="st1" d="M103.3,7.8H41.8C32.5,7.8,25,15.3,25,24.5V86c0,9.3,7.5,16.8,16.8,16.8H53v8.4h5.6V91.6
			c0-0.8-0.4-1.6-1-2.1l-9.9-8.3c-3.7-3.1-5.8-7.6-5.8-12.4V57.9c0-1.9,1.3-3.6,3.2-4.1l2.4-0.6v13.2H53V42.7c0-2.3,1.9-4.2,4.2-4.2
			c2.3,0,4.2,1.9,4.2,4.2v9.8h5.6V37.1c0-2.3,1.9-4.2,4.2-4.2c2.3,0,4.2,1.9,4.2,4.2c0,0,0,0,0,0v15.4h5.6V37.1
			c0-2.3,1.9-4.2,4.2-4.2s4.2,1.9,4.2,4.2v18.2h5.6V42.7c0-2.3,1.9-4.2,4.2-4.2s4.2,1.9,4.2,4.2v6.8c0,14.3-3.7,28.3-10.8,40.7
			c-0.2,0.4-0.4,0.9-0.4,1.4v19.6h5.6v-8.4h5.6c9.3,0,16.8-7.5,16.8-16.8V24.5C120,15.3,112.5,7.8,103.3,7.8z M114.5,86
			c0,6.2-5,11.2-11.2,11.2h-5.6v-4.9c7.3-13.1,11.2-27.8,11.2-42.8v-6.8c0-5.4-4.4-9.8-9.8-9.8c-1.6,0-3.2,0.4-4.7,1.2
			c-1.7-5.1-7.2-8-12.3-6.3c-1.5,0.5-2.9,1.3-4,2.5c-3.8-3.9-10-3.9-13.8-0.2c-1.1,1.1-2,2.5-2.5,4c-4.7-2.6-10.7-0.8-13.3,3.9
			c-0.8,1.4-1.2,3-1.2,4.7v4.8l-3.8,0.9c-4.4,1.1-7.4,5-7.4,9.5v10.8c0,6.5,2.9,12.6,7.8,16.7l8.9,7.4v4.3H41.8
			c-6.2,0-11.2-5-11.2-11.2V24.5c0-6.2,5-11.2,11.2-11.2h61.5c6.2,0,11.2,5,11.2,11.2V86z"/>
		<path id="Path_196" class="st1" d="M117.2-56.5H-44.8c-1.5,0-2.8,1.3-2.8,2.8l0,0v11.2c0,1.5,1.3,2.8,2.8,2.8l0,0h5.6V91.6
			c0,1.5,1.3,2.8,2.8,2.8h55.9v-5.6h-53.1V-39.7h139.7V2.2h5.6v-41.9h5.6c1.5,0,2.8-1.3,2.8-2.8v-11.2
			C120-55.2,118.8-56.5,117.2-56.5z M114.5-45.3H-42v-5.6h156.5V-45.3z"/>
		<path id="Path_197" class="st1" d="M-22.5-28.6h50.3V2.2h5.6v-33.5c0-1.5-1.3-2.8-2.8-2.8h-55.9c-1.5,0-2.8,1.3-2.8,2.8v50.3
			c0,1.5,1.3,2.8,2.8,2.8h44.7v-5.6h-41.9V-28.6z"/>
		<path id="Path_198" class="st1" d="M100.5,2.2v-33.5c0-1.5-1.3-2.8-2.8-2.8H41.8c-1.5,0-2.8,1.3-2.8,2.8V2.2h5.6v-30.7h50.3V2.2
			L100.5,2.2z"/>
		<path id="Path_199" class="st1" d="M-28.1,30.1v50.3c0,1.5,1.3,2.8,2.8,2.8h44.7v-5.6h-41.9V32.9h41.9v-5.6h-44.7
			C-26.8,27.3-28.1,28.6-28.1,30.1z"/>
		<path id="Path_200" class="st1" d="M-7.2-0.3L8.6-16.1l4,4L-3.3,3.7L-7.2-0.3z"/>
		<path id="Path_201" class="st1" d="M4.6,3.7l7.9-7.9l4,4L8.6,7.6L4.6,3.7z"/>
		<path id="Path_202" class="st1" d="M-11.2-12.1l7.9-7.9l4,4l-7.9,7.9L-11.2-12.1z"/>
		<path id="Path_203" class="st1" d="M-7.2,61.2L8.6,45.4l4,4L-3.3,65.1L-7.2,61.2z"/>
		<path id="Path_204" class="st1" d="M4.6,65.1l7.9-7.9l4,4l-7.9,7.9L4.6,65.1z"/>
		<path id="Path_205" class="st1" d="M-11.2,49.3l7.9-7.9l4,4l-7.9,7.9L-11.2,49.3z"/>
		<path id="Path_206" class="st1" d="M59.8-0.3l15.8-15.8l4,4L63.8,3.7L59.8-0.3z"/>
		<path id="Path_207" class="st1" d="M55.9-12.1l7.9-7.9l4,4l-7.9,7.9L55.9-12.1z"/>
	</g>
</g>
</svg>
