<?xml version="1.0" encoding="utf-8"?>
<!-- Generator: Adobe Illustrator 24.2.3, SVG Export Plug-In . SVG Version: 6.00 Build 0)  -->
<svg version="1.1" id="Layer_1" xmlns="http://www.w3.org/2000/svg" xmlns:xlink="http://www.w3.org/1999/xlink" x="0px" y="0px"
	 viewBox="0 0 191 170" style="enable-background:new 0 0 191 170;" xml:space="preserve">
<style type="text/css">
	.st0{opacity:0.199;fill:#98D8EA;enable-background:new    ;}
	.st1{fill:#6B94FE;}
</style>
<g id="Group_192" transform="translate(-265 -1503.921)">
	<path id="blob-2" class="st0" d="M285.8,1557.2c10.2-21,19.3-39.8,34-47.4c14.6-7.5,34.9-4.1,52.3,1.3
		c17.5,5.5,32.1,13.1,41.1,24.6s12.6,26.8,18.8,46.6c6.1,20,14.9,44.3,6.5,55.5s-34.1,9-58.7,15c-24.6,6.1-48.1,20-69.1,16.8
		c-21-3.2-39.5-23.7-43-45.7C264,1601.9,275.6,1578.4,285.8,1557.2z"/>
	<g id="house-cleaning" transform="translate(306.001 1518.001)">
		<path id="Path_222" class="st1" d="M6.6,122.3h5.6v5.6H6.6V122.3z"/>
		<g id="Group_183">
			<path id="Path_220" class="st1" d="M138.1,61L96.8,23.9V18c0-4.7-3.8-8.4-8.5-8.5c-2,0-3.9,0.7-5.4,2L56.4-12.3
				c-1.1-1-2.7-1-3.8,0L-29.1,61c-1.2,1-1.3,2.8-0.2,4c0.5,0.6,1.3,0.9,2.1,0.9h5.6v87.4c0,1.6,1.3,2.8,2.8,2.8h146.5
				c1.6,0,2.8-1.3,2.8-2.8V65.9h5.6c1.6,0,2.8-1.3,2.8-2.8C139,62.3,138.7,61.5,138.1,61z M128.9,60.3H96.8V31.5L128.9,60.3z
				 M105.2,122.3H71.4v-6c0-4.5,3.6-8.1,8.1-8.1h17.7c4.5,0,8.1,3.6,8.1,8.1L105.2,122.3z M85.5,18c0-1.6,1.2-2.8,2.8-2.9
				c1.6,0,2.8,1.2,2.9,2.8c0,0,0,0.1,0,0.1v84.5h-5.6V18z M54.5-6.4L80,16.5c-0.1,0.5-0.2,1-0.2,1.5v42.3h-99.7L54.5-6.4z M-16,65.9
				h95.8v36.6h-0.4c-7.6,0-13.7,6.1-13.7,13.7v8.3l-10.4,25.9H34.8V96.9c0-1.6-1.3-2.8-2.8-2.8H-1.9c-1.6,0-2.8,1.3-2.8,2.8v53.5
				H-16V65.9z M1,150.5V99.7h28.2v50.7H1z M104.7,150.5l-2.4-11.8l-5.5,1.1l2.1,10.7h-7.8v-11.3h-5.6v11.3h-7.8l2.1-10.7l-5.5-1.1
				l-2.4,11.8H61.5l9-22.5h35.6l9,22.5H104.7z M125,150.5h-3.7l-10.4-25.9v-8.3c0-7.6-6.1-13.7-13.7-13.7h-0.4V65.9H125V150.5z"/>
			<path id="Path_221" class="st1" d="M40.4,51.8h28.2c1.6,0,2.8-1.3,2.8-2.8V32.1c0-9.3-7.6-16.9-16.9-16.9s-16.9,7.6-16.9,16.9V49
				C37.6,50.6,38.9,51.8,40.4,51.8z M43.2,37.7h8.5v8.5h-8.5V37.7z M57.3,46.2v-8.5h8.5v8.5H57.3z M65.8,32.1h-8.5V21.2
				C62.3,22.5,65.8,27,65.8,32.1L65.8,32.1z M51.7,21.2v10.9h-8.5C43.2,27,46.7,22.5,51.7,21.2z"/>
			<path id="Path_223" class="st1" d="M54.5,105.4h5.6c0-7.8,6.3-14.1,14.1-14.1v-5.6c-7.8,0-14.1-6.3-14.1-14.1h-5.6
				c0,7.8-6.3,14.1-14.1,14.1v5.6C48.2,91.3,54.5,97.6,54.5,105.4z M57.3,81.7c1.7,2.8,4,5.1,6.8,6.8c-2.8,1.7-5.1,4-6.8,6.8
				c-1.7-2.8-4-5.1-6.8-6.8C53.3,86.8,55.6,84.4,57.3,81.7z"/>
		</g>
	</g>
</g>
</svg>
