<svg id="person" xmlns="http://www.w3.org/2000/svg" width="39.415" height="51" viewBox="0 0 39.415 51">
  <path id="Path_238" data-name="Path 238" d="M233.6,251.689a.747.747,0,1,0-1.057-1.056,2.1,2.1,0,0,1-2.967,0,.747.747,0,1,0-1.057,1.056,3.589,3.589,0,0,0,5.08,0Z" transform="translate(-211.355 -225.47)" fill="#6b94fe"/>
  <path id="Path_239" data-name="Path 239" d="M197.395,201.413a2.513,2.513,0,0,0-3.474,0,.747.747,0,0,0,1.041,1.072,1.008,1.008,0,0,1,1.393,0,.747.747,0,0,0,1.041-1.072Z" transform="translate(-180.193 -180.723)" fill="#6b94fe"/>
  <path id="Path_240" data-name="Path 240" d="M280.14,202.484a1.008,1.008,0,0,1,1.393,0,.747.747,0,1,0,1.041-1.072,2.513,2.513,0,0,0-3.474,0,.747.747,0,0,0,1.041,1.072Z" transform="translate(-256.887 -180.722)" fill="#6b94fe"/>
  <path id="Path_241" data-name="Path 241" d="M97.523,49.06l-.85-4.862a.747.747,0,0,0-1.472.257l.85,4.863c.013.072-.051.188-.212.188H91.05c1.623-2.44,1-5.484.476-8.01-.542-2.628-.827-4.376.3-5.376a7.625,7.625,0,0,1,2.734,4.655.747.747,0,1,0,1.472-.257,9.453,9.453,0,0,0-4.811-6.672,19.875,19.875,0,0,0-3.748-1.71c-1.294-.451-3.877-1.132-3.9-1.139V29.59a14.229,14.229,0,0,0,3.3-3.461,2.726,2.726,0,0,0,3.832-3.655A2.915,2.915,0,0,0,91.765,20.2v-.974a2.3,2.3,0,0,0-1.558-2.17A13.841,13.841,0,0,0,87.695,9.2a11.686,11.686,0,0,0-3.249-3.033,6.6,6.6,0,0,0-13.166,0,11.684,11.684,0,0,0-3.412,3.263.747.747,0,0,0,1.229.85A10.831,10.831,0,0,1,81.179,6.3c4.514,1.41,7.29,5.356,7.529,10.633h-.721c-.009,0-2.681.007-3.129.012-3.6.036-7.671.076-9.118-2.163,0,0-1.183-1.825-1.22-1.863a1.032,1.032,0,0,0-.734-.35h0a1.027,1.027,0,0,0-.733.355c-.036.036-1.26,1.889-1.351,2.015-.739,1.026-1.437,1.994-3.269,1.994l-1.41-.01a14,14,0,0,1,.66-3.758.747.747,0,1,0-1.419-.467,15.6,15.6,0,0,0-.741,4.363,2.3,2.3,0,0,0-1.558,2.164V20.2a2.915,2.915,0,0,0,1.058,2.278A2.725,2.725,0,0,0,68.85,26.13a14.229,14.229,0,0,0,3.3,3.46V31c-.021.007-2.6.688-3.9,1.139a19.881,19.881,0,0,0-3.749,1.71A9.452,9.452,0,0,0,59.7,40.518L58.2,49.059a1.682,1.682,0,0,0,.263,1.416,1.9,1.9,0,0,0,1.52.525H95.74a1.9,1.9,0,0,0,1.52-.525,1.683,1.683,0,0,0,.263-1.415ZM81.624,4.871a12.737,12.737,0,0,0-7.511,0,12.352,12.352,0,0,0-1.191.441,5.105,5.105,0,0,1,9.879,0A12.325,12.325,0,0,0,81.624,4.871ZM65.453,20.2v-.974a.813.813,0,0,1,.809-.8h.73v2.328a7.237,7.237,0,0,0,.093,1.134C66.179,21.645,65.453,21.072,65.453,20.2Zm1.927,4.872a1.233,1.233,0,0,1-1.062-1.858,5.248,5.248,0,0,0,1.176.266,11.116,11.116,0,0,0,.595,1.367,1.233,1.233,0,0,1-.709.226Zm21.353-4.316V18.425h.738a.8.8,0,0,1,.8.8V20.2c0,.877-.726,1.449-1.631,1.69A7.248,7.248,0,0,0,88.733,20.752Zm-.5,2.724a5.237,5.237,0,0,0,1.176-.267,1.231,1.231,0,0,1-1.77,1.632A11.1,11.1,0,0,0,88.23,23.476ZM68.486,20.752V18.423a5.088,5.088,0,0,0,4.423-2.614c.091-.126.18-.249.269-.368.011-.014.021-.029.031-.044l.576-.892.7,1.084c1.673,2.589,5.389,2.856,8.977,2.856.474,0,.947,0,1.411-.009.443,0,.881-.009,1.31-.009h1.056v2.326c0,3.411-3.318,7.636-7.1,9.041a5.847,5.847,0,0,1-4.555,0C71.8,28.388,68.486,24.163,68.486,20.752ZM72.441,32.47a1.421,1.421,0,0,0,1.207-1.457v-.467a11.035,11.035,0,0,0,1.42.649,7.326,7.326,0,0,0,5.593,0,11.033,11.033,0,0,0,1.418-.648v.467a1.422,1.422,0,0,0,1.208,1.458q.448.115.9.236a19.121,19.121,0,0,0-3.11,3.39H74.648a19.144,19.144,0,0,0-3.11-3.39q.452-.122.9-.237Zm7.643,5.12a41.158,41.158,0,0,0-2.221,4.281,41.1,41.1,0,0,0-2.221-4.281ZM64.675,49.506H59.886c-.161,0-.225-.116-.212-.189l1.494-8.541A7.623,7.623,0,0,1,63.9,36.12c1.124,1,.839,2.748.3,5.376C63.678,44.022,63.052,47.066,64.675,49.506Zm24.424,0H66.626c-2.139-2-1.542-4.9-.964-7.708.5-2.44,1.018-4.95-.528-6.568a20.136,20.136,0,0,1,4.649-2.016c3.771,2.851,5.514,6.65,7.056,10.012a1.083,1.083,0,0,0,2.044,0c1.923-4.193,3.57-7.389,7.055-10.012a20.128,20.128,0,0,1,4.65,2.016c-1.546,1.618-1.03,4.128-.528,6.568C90.641,44.6,91.237,47.5,89.1,49.506Z" transform="translate(-58.155 0)" fill="#6b94fe"/>
  <path id="Path_242" data-name="Path 242" d="M222.9,89.8a10.414,10.414,0,0,0,6.281,1.888q.432,0,.892-.028a.747.747,0,0,0-.093-1.491,9.235,9.235,0,0,1-6.2-1.574,5.707,5.707,0,0,1-1.983-2.355.747.747,0,0,0-1.425.449A7.006,7.006,0,0,0,222.9,89.8Z" transform="translate(-204.182 -77.178)" fill="#6b94fe"/>
</svg>
