<svg id="like" xmlns="http://www.w3.org/2000/svg" width="53.217" height="51" viewBox="0 0 53.217 51">
  <g id="Group_143" data-name="Group 143" transform="translate(0 0)">
    <g id="Group_142" data-name="Group 142">
      <path id="Path_249" data-name="Path 249" d="M53.217,41.156a4.927,4.927,0,0,0-1.444-3.49,5.505,5.505,0,0,0,1.419-4.233,5.732,5.732,0,0,0-5.783-5.027h-13.7a31.881,31.881,0,0,0,1.765-8.87c0-4.81-4.087-8.87-6.652-8.87a6.964,6.964,0,0,0-4.018,1.35,1.109,1.109,0,0,0-.417.867V20.4L18,34.238l-.264.135V33.95a1.109,1.109,0,0,0-1.109-1.109H5.543A5.549,5.549,0,0,0,0,38.384V56.124a5.548,5.548,0,0,0,5.543,5.543H12.2A5.556,5.556,0,0,0,17.413,58a14.455,14.455,0,0,0,5.87,1.448H43.636a5.1,5.1,0,0,0,5.025-3.872,5.005,5.005,0,0,0-.4-3.333,4.97,4.97,0,0,0,2.22-6.652A4.969,4.969,0,0,0,53.217,41.156Zm-4.676,2.736a1.109,1.109,0,0,0-.634,1.909,2.747,2.747,0,0,1-1.581,4.743,1.109,1.109,0,0,0-.634,1.909,2.742,2.742,0,0,1,.8,2.645,2.869,2.869,0,0,1-2.858,2.133H23.283c-1.8,0-4.821-.845-5.867-1.894a1.11,1.11,0,0,0-1.894.785A3.33,3.33,0,0,1,12.2,59.45H5.543a3.33,3.33,0,0,1-3.326-3.326V38.384a3.33,3.33,0,0,1,3.326-3.326h9.978v1.109a1.113,1.113,0,0,0,.528.945,1.133,1.133,0,0,0,1.078.047l2.217-1.109a1.107,1.107,0,0,0,.51-.526l6.652-14.413a1.129,1.129,0,0,0,.1-.466v-7.16a4.676,4.676,0,0,1,2.217-.6c1.215,0,4.435,3.02,4.435,6.652,0,3.9-2.124,9.528-2.144,9.584a1.107,1.107,0,0,0,1.035,1.5H47.41a3.5,3.5,0,0,1,3.574,3.013,3.313,3.313,0,0,1-1.579,3.138,1.11,1.11,0,0,0,.075,1.931,2.745,2.745,0,0,1-.94,5.186Z" transform="translate(0 -10.667)" fill="#6b94fe"/>
    </g>
  </g>
  <g id="Group_145" data-name="Group 145" transform="translate(15.522 24.391)">
    <g id="Group_144" data-name="Group 144" transform="translate(0 0)">
      <path id="Path_250" data-name="Path 250" d="M150.442,245.333a1.109,1.109,0,0,0-1.109,1.109V266.4a1.109,1.109,0,0,0,2.217,0V246.442A1.109,1.109,0,0,0,150.442,245.333Z" transform="translate(-149.333 -245.333)" fill="#6b94fe"/>
    </g>
  </g>
</svg>
