<svg xmlns="http://www.w3.org/2000/svg" width="44.2" height="51" viewBox="0 0 44.2 51">
  <g id="cleaning" transform="translate(-48 -16)">
    <path id="Path_337" data-name="Path 337" d="M322.55,120.5h5.1a2.553,2.553,0,0,0,2.55-2.55v-.85a5.1,5.1,0,0,0-10.2,0v.85A2.553,2.553,0,0,0,322.55,120.5Zm-.85-3.4a3.4,3.4,0,1,1,6.8,0v.85a.851.851,0,0,1-.85.85h-5.1a.851.851,0,0,1-.85-.85Z" transform="translate(-243.1 -85.8)" fill="#6b94fe"/>
    <path id="Path_338" data-name="Path 338" d="M90.5,53.546V43.2a3.718,3.718,0,0,0-.515-1.655,2.569,2.569,0,0,1-.335-.895,2.491,2.491,0,0,1,.329-.873A3.712,3.712,0,0,0,90.5,38.1a3.718,3.718,0,0,0-.515-1.655,2.569,2.569,0,0,1-.335-.895,2.49,2.49,0,0,1,.329-.873A3.712,3.712,0,0,0,90.5,33V31.3a8.511,8.511,0,0,0-5.1-7.785v-5.9a.85.85,0,0,0-.581-.806l-2.012-.671a2.568,2.568,0,0,0-1.613,0l-2.012.671a.85.85,0,0,0-.581.806v5.9A8.511,8.511,0,0,0,73.5,31.3V33a3.712,3.712,0,0,0,.521,1.677,2.5,2.5,0,0,1,.329.873,2.569,2.569,0,0,1-.335.895A3.718,3.718,0,0,0,73.5,38.1a3.712,3.712,0,0,0,.521,1.677,2.5,2.5,0,0,1,.329.873,2.569,2.569,0,0,1-.335.895A3.718,3.718,0,0,0,73.5,43.2V53.4H70.95V35.55a4.246,4.246,0,0,0-1.7-3.4h0v-5.1a.85.85,0,0,0-.85-.85h-.85V22.8h.85a3.4,3.4,0,1,0,0-6.8H52.25a.85.85,0,0,0-.85.85H48.85a.85.85,0,0,0-.85.85v3.4a.85.85,0,0,0,.85.85H51.4a.85.85,0,0,0,.85.85h.85v2.55a.851.851,0,0,1-.85.85,2.55,2.55,0,1,0,0,5.1,5.957,5.957,0,0,0,5.95-5.95V22.8h2.55v3.4H59.9a.85.85,0,0,0-.85.85v5.1h0a4.246,4.246,0,0,0-1.7,3.4v.85a2.553,2.553,0,0,1-2.55,2.55H53.1a4.255,4.255,0,0,0-4.25,4.25V62.75A4.255,4.255,0,0,0,53.1,67H90.5a.85.85,0,0,0,.85-.85V60.2a.85.85,0,0,0,.85-.85v-3.4A2.554,2.554,0,0,0,90.5,53.546ZM49.7,20.25v-1.7h1.7v1.7ZM59.05,61.9H54.8a.851.851,0,0,1-.85-.85V44.9a.851.851,0,0,1,.85-.85h6.8a2.553,2.553,0,0,0,2.55-2.55V37.25a.85.85,0,1,1,1.7,0V53.4h-5.1a2.553,2.553,0,0,0-2.55,2.55v3.4a.85.85,0,0,0,.85.85Zm.85-3.4V55.95a.851.851,0,0,1,.85-.85h28.9a.851.851,0,0,1,.85.85V58.5ZM80.3,18.221l1.431-.477a.854.854,0,0,1,.538,0l1.431.477V19.4H80.3Zm0,2.879h3.4v1.871a8.533,8.533,0,0,0-3.4,0ZM75.2,43.2a2.569,2.569,0,0,1,.335-.895,3.718,3.718,0,0,0,.515-1.655,3.643,3.643,0,0,0-.511-1.638A2.529,2.529,0,0,1,75.2,38.1a2.569,2.569,0,0,1,.335-.895,3.718,3.718,0,0,0,.515-1.655,3.643,3.643,0,0,0-.511-1.638A2.529,2.529,0,0,1,75.2,33V31.3a6.8,6.8,0,0,1,13.6-.057.834.834,0,0,0,0,.114V33a2.529,2.529,0,0,1-.339.912,3.643,3.643,0,0,0-.511,1.638,3.718,3.718,0,0,0,.515,1.655,2.569,2.569,0,0,1,.335.895,2.529,2.529,0,0,1-.339.912,3.643,3.643,0,0,0-.511,1.638,3.718,3.718,0,0,0,.515,1.655,2.569,2.569,0,0,1,.335.895V53.4H86.25V45.75a.85.85,0,1,0-1.7,0V53.4h-1.7V45.75a.85.85,0,1,0-1.7,0V53.4h-1.7V45.75a.85.85,0,1,0-1.7,0V53.4H75.2ZM53.1,17.7H68.4a1.7,1.7,0,0,1,0,3.4H53.1Zm3.4,7.65a4.255,4.255,0,0,1-4.25,4.25.85.85,0,0,1,0-1.7,2.553,2.553,0,0,0,2.55-2.55V22.8h1.7Zm5.95-2.55h3.4v3.4h-3.4Zm-1.7,5.1h6.8v3.486a4.253,4.253,0,0,0-.85-.086H61.6a4.253,4.253,0,0,0-.85.086ZM50.55,62.75V43.2a2.553,2.553,0,0,1,2.55-2.55h1.7a4.229,4.229,0,0,0,2.547-.85H59.9a.85.85,0,0,0,0-1.7H58.694a4.224,4.224,0,0,0,.356-1.7h.85a.85.85,0,1,0,0-1.7h-.7A2.554,2.554,0,0,1,61.6,33h5.1a2.553,2.553,0,0,1,2.55,2.55V53.4h-1.7V37.25a2.55,2.55,0,0,0-5.1,0V41.5a.851.851,0,0,1-.85.85H54.8a2.553,2.553,0,0,0-2.55,2.55V61.05A2.553,2.553,0,0,0,54.8,63.6h4.25v1.7H53.1A2.553,2.553,0,0,1,50.55,62.75Zm39.1,2.55h-1.7V62.75a.85.85,0,0,0-1.7,0V65.3h-1.7V62.75a.85.85,0,0,0-1.7,0V65.3h-1.7V62.75a.85.85,0,0,0-1.7,0V65.3h-1.7V62.75a.85.85,0,0,0-1.7,0V65.3h-1.7V62.75a.85.85,0,0,0-1.7,0V65.3h-1.7V62.75a.85.85,0,0,0-1.7,0V65.3h-1.7V62.75a.85.85,0,0,0-1.7,0V65.3h-1.7V62.75a.85.85,0,0,0-1.7,0V65.3h-1.7V60.2h28.9Z" fill="#6b94fe"/>
  </g>
</svg>
