<?xml version="1.0" encoding="utf-8"?>
<!-- Generator: Adobe Illustrator 24.2.3, SVG Export Plug-In . SVG Version: 6.00 Build 0)  -->
<svg version="1.1" id="Layer_1" xmlns="http://www.w3.org/2000/svg" xmlns:xlink="http://www.w3.org/1999/xlink" x="0px" y="0px"
	 viewBox="0 0 191.2 170.5" style="enable-background:new 0 0 191.2 170.5;" xml:space="preserve">
<style type="text/css">
	.st0{opacity:0.2;fill:#98D8EA;enable-background:new    ;}
	.st1{fill:#6B94FE;}
</style>
<g id="Group_116" transform="translate(1 -41)">
	<path id="blob-2" class="st0" d="M18.8,93.1c10.2-21,19.3-39.8,34-47.4c14.6-7.5,34.9-4.1,52.3,1.3c17.5,5.5,32.1,13.1,41.1,24.6
		s12.6,26.8,18.8,46.6c6.1,20,14.9,44.3,6.5,55.5c-8.4,11.2-34.1,9-58.7,15c-24.6,6.1-48.1,20-69.1,16.8c-21-3.2-39.5-23.7-43-45.7
		C-2.9,137.8,8.7,114.2,18.8,93.1z"/>
	<g id="hoover" transform="translate(44.523 76.58)">
		<g id="Group_94" transform="translate(0.001 95.483)">
			<g id="Group_93" transform="translate(0 0)">
				<path id="Path_208" class="st1" d="M28.3-25.1h-39.7c-6,0.1-11.1,4.4-12.2,10.3l-8.2,39.7c-0.3,1.5,0.6,3.1,2.2,3.4
					c1.5,0.3,3.1-0.6,3.4-2.2c0,0,0,0,0-0.1l8.2-39.8c0.5-3.2,3.3-5.6,6.5-5.6h39.7c19.5,0,35.3,15.8,35.3,35.3v9.5
					c0,3.7-2.9,6.6-6.5,6.7c0,0-0.1,0-0.1,0h-76.4c-1.6,0-2.8,1.3-2.8,2.9c0,1.5,1.3,2.8,2.8,2.8h76.4c6.8,0.1,12.3-5.4,12.4-12.1
					c0-0.1,0-0.2,0-0.3v-9.5C69.3-6.7,50.9-25.1,28.3-25.1z"/>
			</g>
		</g>
		<g id="Group_96" transform="translate(57.29 95.484)">
			<g id="Group_95" transform="translate(0 0)">
				<path id="Path_209" class="st1" d="M9.2,13.1c-34.8,0-35.3-33.9-35.3-35.3c0-1.6-1.3-2.9-2.9-2.9s-2.9,1.3-2.9,2.9
					c0,0.4,0.5,41.1,41.1,41.1c1.6,0,2.8-1.3,2.8-2.9C11.9,14.3,10.7,13.1,9.2,13.1L9.2,13.1z"/>
			</g>
		</g>
		<g id="Group_98" transform="translate(15.279 105.029)">
			<g id="Group_97">
				<path id="Path_210" class="st1" d="M-24.6-25.1c-1.5-0.3-3.1,0.7-3.4,2.2c0,0,0,0,0,0l-3.8,19.1c-0.3,1.6,0.7,3,2.3,3.3
					c1.5,0.3,3-0.7,3.3-2.2l3.8-19.1C-22.1-23.2-23.1-24.8-24.6-25.1C-24.6-25.1-24.6-25.1-24.6-25.1z"/>
			</g>
		</g>
		<g id="Group_100" transform="translate(24.827 105.029)">
			<g id="Group_99">
				<path id="Path_211" class="st1" d="M-24.6-25.1c-1.5-0.3-3.1,0.7-3.4,2.2c0,0,0,0,0,0l-3.8,19.1c-0.3,1.6,0.7,3,2.3,3.3
					c1.5,0.3,3-0.7,3.3-2.2l3.8-19.1C-22.1-23.2-23.1-24.8-24.6-25.1C-24.6-25.1-24.6-25.1-24.6-25.1z"/>
			</g>
		</g>
		<g id="Group_102" transform="translate(0 133.677)">
			<g id="Group_101">
				<path id="Path_212" class="st1" d="M-19.5-25.1c-6.9,0-12.4,5.6-12.4,12.4c0,6.9,5.6,12.4,12.4,12.4S-7.1-5.9-7.1-12.7l0,0
					C-7.1-19.6-12.6-25.1-19.5-25.1z M-19.5-6c-3.7,0-6.7-3-6.7-6.7s3-6.7,6.7-6.7s6.7,3,6.7,6.7l0,0C-12.8-9-15.8-6-19.5-6z"/>
			</g>
		</g>
		<g id="Group_104" transform="translate(114.579 143.225)">
			<g id="Group_103">
				<path id="Path_213" class="st1" d="M30.3-14.7l-9.5-9.5c-0.5-0.5-1.3-0.8-2-0.8h-38.2c-0.8,0-1.5,0.3-2,0.8l-9.5,9.5
					c-1.1,1.1-1.1,2.9,0,4.1c0.5,0.5,1.3,0.8,2,0.8h57.3c1.6,0,2.9-1.3,2.9-2.9C31.1-13.5,30.8-14.2,30.3-14.7L30.3-14.7z
					 M-22.1-15.6l3.8-3.8h35.8l3.8,3.8H-22.1z"/>
			</g>
		</g>
		<g id="Group_106" transform="translate(138.451 28.645)">
			<g id="Group_105">
				<path id="Path_214" class="st1" d="M-24.3-25.1c-4.2,0-7.6,3.3-7.6,7.5c0,0.1,0,0.1,0,0.2V82.8c0,1.6,1.3,2.9,2.9,2.9h9.5
					c1.6,0,2.9-1.3,2.9-2.9V-17.5c0-4.2-3.3-7.6-7.5-7.6C-24.1-25.1-24.2-25.1-24.3-25.1z M-22.3,79.9h-3.8v-97.4
					c0-1.1,0.9-1.9,2-1.9c1,0,1.8,0.8,1.9,1.9V79.9z"/>
			</g>
		</g>
		<g id="Group_108" transform="translate(133.677 133.677)">
			<g id="Group_107">
				<path id="Path_215" class="st1" d="M-19.5-25.1c-6.8-0.1-12.3,5.4-12.4,12.1c0,0.1,0,0.2,0,0.3c0,1.6,1.3,2.9,2.9,2.9h19.1
					c1.6,0,2.9-1.3,2.9-2.9c0.1-6.8-5.4-12.3-12.1-12.4C-19.3-25.1-19.4-25.1-19.5-25.1z M-25.5-15.6c1.6-3.3,5.6-4.8,9-3.2
					c1.4,0.7,2.5,1.8,3.2,3.2H-25.5z"/>
			</g>
		</g>
		<g id="Group_110" transform="translate(19.097 0)">
			<g id="Group_109">
				<path id="Path_216" class="st1" d="M66.5-25.1C49.1-25.1,35-11,34.9,6.4v23.9c0,11.6-9.4,21-21,21s-21-9.4-21-21v-4.8
					c0-6.9-5.6-12.4-12.4-12.4c-6.9,0-12.4,5.6-12.4,12.4v47.7c0,1.6,1.3,2.9,2.9,2.9c1.6,0,2.9-1.3,2.9-2.9l0,0V25.5
					c0-3.7,3-6.7,6.7-6.7c3.7,0,6.7,3,6.7,6.7v4.8C-12.8,45-0.8,57,13.9,57s26.7-12,26.7-26.7V6.4c0.1-14.2,11.7-25.7,25.9-25.6
					C80.7-19.2,92.1-7.7,92.2,6.4c0,1.6,1.3,2.9,2.9,2.9S98,8,98,6.4C97.9-11,83.8-25.1,66.5-25.1z"/>
			</g>
		</g>
		<g id="Group_112" transform="translate(28.645 143.261)">
			<g id="Group_111">
				<path id="Path_217" class="st1" d="M-27-24.3c-1.1-1.1-2.9-1.1-4,0c-1.1,1.1-1.1,2.9,0,4c0,0,0,0,0,0c1.1,1.1,2.9,1.1,4,0
					c0,0,0,0,0,0C-25.9-21.4-25.9-23.2-27-24.3C-27-24.3-27-24.3-27-24.3L-27-24.3z"/>
			</g>
		</g>
		<g id="Group_114" transform="translate(47.742 95.485)">
			<g id="Group_113">
				<path id="Path_218" class="st1" d="M18.7,22.6c-44.3,0-44.9-43-44.9-44.9c0-1.6-1.3-2.9-2.9-2.9l0,0c-1.6,0-2.9,1.3-2.9,2.9
					c0,0.5,0.6,50.6,50.6,50.6c1.6,0,2.9-1.3,2.9-2.9S20.3,22.6,18.7,22.6L18.7,22.6z"/>
			</g>
		</g>
	</g>
</g>
</svg>
