<?xml version="1.0" encoding="utf-8"?>
<!-- Generator: Adobe Illustrator 24.2.3, SVG Export Plug-In . SVG Version: 6.00 Build 0)  -->
<svg version="1.1" id="Layer_1" xmlns="http://www.w3.org/2000/svg" xmlns:xlink="http://www.w3.org/1999/xlink" x="0px" y="0px"
	 viewBox="0 0 191 170" style="enable-background:new 0 0 191 170;" xml:space="preserve">
<style type="text/css">
	.st0{opacity:0.2;fill:#98D8EA;enable-background:new    ;}
	.st1{fill:#6B94FE;}
</style>
<g id="Group_117" transform="translate(-10 -49)">
	<g id="Group_89">
		<path id="blob-2" class="st0" d="M30.7,102.3c10.2-21,19.3-39.8,34-47.4c14.6-7.5,34.9-4.1,52.3,1.3c17.5,5.5,32.1,13.1,41.1,24.6
			s12.6,26.8,18.8,46.6c6.1,20,14.9,44.3,6.5,55.5c-8.4,11.2-34.1,9-58.7,15c-24.6,6.1-48.1,20-69.1,16.8c-21-3.2-39.5-23.7-43-45.7
			C9,147,20.5,123.5,30.7,102.3z"/>
	</g>
	<g id="XMLID_970_" transform="translate(62.332 76.58)">
		<g id="XMLID_1079_" transform="translate(0 0)">
			<path id="XMLID_1150_" class="st1" d="M130.2,68.5c0-5.7-4.7-10.4-10.4-10.4H-12V-9.4c0-5.4,4.4-9.7,9.7-9.7h2.6
				c4.3,0,8.1,2.9,9.3,7c-5.9,1.6-10,7-10,13.1v3.9c0,1.8,1.5,3.3,3.3,3.3h20.8c1.8,0,3.3-1.5,3.3-3.3V1c0-6.4-4.4-11.9-10.7-13.3
				c-1.4-7.7-8.1-13.3-16-13.3h-2.6c-9,0-16.2,7.3-16.2,16.2v67.6h-7.1c-5.7,0-10.4,4.6-10.4,10.4c0,4.5,2.9,8.5,7.1,9.9v10.9
				c0,11,4.4,21.6,12.2,29.4c-0.9,0.7-1.9,1.2-3,1.5c-5.6,1.4-8.9,7.1-7.5,12.7c1.4,5.6,7.1,8.9,12.7,7.5c0.1,0,0.1,0,0.2-0.1
				c6.4-1.7,12-5.5,16-10.9c3.6,1,7.3,1.5,11.1,1.5h68.8c3.7,0,7.5-0.5,11.1-1.5c3.9,5.3,9.6,9.2,16,10.9c5.6,1.4,11.2-1.9,12.7-7.5
				c1.4-5.5-1.8-11.1-7.3-12.6c-1.1-0.3-2.1-0.8-3-1.5c7.8-7.8,12.2-18.4,12.2-29.4V78.4C127.3,77,130.2,73,130.2,68.5L130.2,68.5z
				 M20.4,1v0.6H6.1V1c0-3.9,3.1-7.2,7.1-7.2c3.9,0,7.2,3.1,7.2,7.1C20.4,0.8,20.4,0.9,20.4,1z M-16.1,134c-2.1,0.6-4.2-0.7-4.8-2.8
				c-0.6-2.1,0.7-4.2,2.8-4.8c2.4-0.6,4.5-1.8,6.3-3.5c2.2,1.6,4.5,2.9,6.9,4.1C-7.8,130.4-11.7,132.8-16.1,134L-16.1,134z
				 M114.6,128.3c1.1,1.9,0.4,4.2-1.4,5.3c-0.9,0.5-2,0.7-3,0.4c-4.3-1.2-8.2-3.6-11.2-7c2.4-1.1,4.7-2.5,6.9-4.1
				c1.8,1.7,4,2.9,6.3,3.5C113.2,126.7,114,127.4,114.6,128.3L114.6,128.3z M119.8,72.4H61.7c-1.8-0.1-3.3,1.3-3.4,3.1
				s1.3,3.3,3.1,3.4c0.1,0,0.2,0,0.3,0h54.8v10.4c0,19.4-15.7,35.1-35.1,35.1H12.6c-19.4,0-35.1-15.7-35.1-35.1V78.9h54.9
				c1.8,0.1,3.3-1.3,3.4-3.1c0.1-1.8-1.3-3.3-3.1-3.4c-0.1,0-0.2,0-0.3,0h-58.2c-2.2,0-3.9-1.7-3.9-3.9s1.7-3.9,3.9-3.9h145.5
				c2.2,0,3.9,1.7,3.9,3.9S122,72.4,119.8,72.4L119.8,72.4z"/>
			<path id="XMLID_1184_" class="st1" d="M47.1,72.4c-1.8,0-3.3,1.5-3.3,3.2c0,1.8,1.5,3.3,3.2,3.3c1.8,0,3.3-1.5,3.3-3.2
				c0-0.9-0.3-1.7-1-2.3C48.7,72.7,47.9,72.4,47.1,72.4z"/>
			<path id="XMLID_1204_" class="st1" d="M96.1,2.6c1.8,0,3.3-1.5,3.3-3.3v0v-4.2c0.1-1.8-1.3-3.3-3.1-3.4C94.5-8.4,93-7,92.9-5.2
				c0,0.1,0,0.2,0,0.4v4.2C92.9,1.1,94.3,2.6,96.1,2.6z"/>
			<path id="XMLID_1205_" class="st1" d="M96.1,25c1.8,0,3.3-1.5,3.3-3.3v0v-4.1c0.1-1.8-1.3-3.3-3.1-3.4c-1.8-0.1-3.3,1.3-3.4,3.1
				c0,0.1,0,0.2,0,0.4v4.1C92.9,23.5,94.3,25,96.1,25z"/>
			<path id="XMLID_1206_" class="st1" d="M105.2,11.7h4.2c1.8-0.1,3.2-1.6,3.1-3.4c-0.1-1.7-1.4-3-3.1-3.1h-4.2
				c-1.8,0.1-3.2,1.6-3.1,3.4C102.2,10.3,103.5,11.6,105.2,11.7z"/>
			<path id="XMLID_1207_" class="st1" d="M82.8,11.7H87c1.8,0.1,3.3-1.3,3.4-3.1c0.1-1.8-1.3-3.3-3.1-3.4c-0.1,0-0.2,0-0.3,0h-4.2
				c-1.8-0.1-3.3,1.3-3.4,3.1c-0.1,1.8,1.3,3.3,3.1,3.4C82.6,11.7,82.7,11.7,82.8,11.7z"/>
			<path id="XMLID_1209_" class="st1" d="M47.1,22.7c1.8,0,3.3-1.5,3.3-3.3c0,0,0,0,0,0v-4.2c0.1-1.8-1.3-3.3-3.1-3.4
				c-1.8-0.1-3.3,1.3-3.4,3.1c0,0.1,0,0.2,0,0.3v4.2C43.9,21.3,45.3,22.7,47.1,22.7z"/>
			<path id="XMLID_1210_" class="st1" d="M47.1,45.1c1.8,0,3.3-1.5,3.3-3.3v0v-4.1c0.1-1.8-1.3-3.3-3.1-3.4
				c-1.8-0.1-3.3,1.3-3.4,3.1c0,0.1,0,0.2,0,0.3v4.1C43.9,43.7,45.3,45.1,47.1,45.1z"/>
			<path id="XMLID_1211_" class="st1" d="M56.2,31.8h4.2c1.8,0.1,3.3-1.3,3.4-3.1s-1.3-3.3-3.1-3.4c-0.1,0-0.2,0-0.3,0h-4.2
				c-1.8-0.1-3.3,1.3-3.4,3.1c-0.1,1.8,1.3,3.3,3.1,3.4C56,31.8,56.1,31.8,56.2,31.8z"/>
			<path id="XMLID_1257_" class="st1" d="M33.8,31.8H38c1.8-0.1,3.2-1.6,3.1-3.4c-0.1-1.7-1.4-3-3.1-3.1h-4.2
				c-1.8-0.1-3.3,1.3-3.4,3.1c-0.1,1.8,1.3,3.3,3.1,3.4C33.6,31.8,33.7,31.8,33.8,31.8z"/>
		</g>
	</g>
</g>
</svg>
