<svg xmlns="http://www.w3.org/2000/svg" width="56.034" height="51" viewBox="0 0 56.034 51">
  <g id="plant" transform="translate(0 -23)">
    <circle id="Ellipse_15" data-name="Ellipse 15" cx="1.094" cy="1.094" r="1.094" transform="translate(44.432 63.93)" fill="#6b94fe"/>
    <path id="Path_340" data-name="Path 340" d="M1.094,69.512H4.647c1.731,0,3.967.76,6.556,1.641C14.861,72.4,19.413,73.944,24.612,74a28.31,28.31,0,0,0,15.439-4.571c.584-.36,1.169-.713,1.739-1.05a1.094,1.094,0,0,0-1.113-1.885c-.582.344-1.179.7-1.774,1.071A26.118,26.118,0,0,1,24.635,71.81c-4.849-.051-9.035-1.474-12.728-2.73-2.773-.943-5.168-1.758-7.261-1.758H2.189V59.662h1.2c4.477,0,7.577-1.732,10.068-3.124,1.73-.966,3.224-1.8,4.713-1.8a6.115,6.115,0,0,1,3.688,1.342,10.509,10.509,0,0,0,5.739,2.043c7.227.4,8.792,1.771,8.792,2.088,0,.282-.651.581-.745.651C34.2,61.585,30.556,62.4,21.45,62.4a1.094,1.094,0,1,0,0,2.189c8.048,0,13.08-.616,15.377-1.88a36.923,36.923,0,0,0,6.207-2.615,9.754,9.754,0,0,1,10,.386c-1.229.475-2.174.845-3.5,1.426a1.094,1.094,0,1,0,.879,2c1.367-.6,2.45-1.018,3.241-1.324a13.037,13.037,0,0,0,1.613-.692,1.272,1.272,0,0,0,.546-1.874c-1.266-1.829-6.1-3.98-10.476-3.126a40.819,40.819,0,0,1-2.29-3.464c-2.034-3.3-4.13-6.708-7.37-7.342V37.227a2.191,2.191,0,0,1,2.189-2.189A10.956,10.956,0,0,0,48.81,24.094,1.094,1.094,0,0,0,47.715,23H44.432a10.957,10.957,0,0,0-9.85,6.176A10.956,10.956,0,0,0,24.733,23H21.45a1.094,1.094,0,0,0-1.094,1.094A10.956,10.956,0,0,0,31.3,35.038a2.191,2.191,0,0,1,2.189,2.189v8.838c-3.151.485-4.859,3.044-6.382,5.329a13.929,13.929,0,0,1-2.933,3.543c-.388-.216-.751-.45-1.129-.695a8.167,8.167,0,0,0-4.878-1.693c-2.059,0-3.867,1.01-5.78,2.079-2.388,1.334-5.094,2.846-9,2.846H1.094A1.094,1.094,0,0,0,0,58.568v9.85a1.094,1.094,0,0,0,1.094,1.094ZM31.3,32.85a8.769,8.769,0,0,1-8.687-7.661h2.121a8.766,8.766,0,0,1,8.74,8.24A4.351,4.351,0,0,0,31.3,32.85Zm13.133-7.662h2.121a8.769,8.769,0,0,1-8.687,7.662,4.351,4.351,0,0,0-2.174.579A8.767,8.767,0,0,1,44.432,25.188Zm-15.5,27.42c1.587-2.381,2.958-4.437,5.655-4.437,2.657,0,4.662,3.257,6.6,6.407.627,1.018,1.269,2.061,1.943,3.007a10.541,10.541,0,0,0-1.225.635,21.821,21.821,0,0,1-3.369,1.54c-.416-2.19-3.966-3.443-10.817-3.824a9.267,9.267,0,0,1-1.211-.144A21.463,21.463,0,0,0,28.928,52.608Z" fill="#6b94fe"/>
  </g>
</svg>
