<svg id="price" xmlns="http://www.w3.org/2000/svg" width="51.008" height="51" viewBox="0 0 51.008 51">
  <g id="Group_131" data-name="Group 131" transform="translate(14.434 12.217)">
    <g id="Group_130" data-name="Group 130">
      <path id="Path_243" data-name="Path 243" d="M146.581,122.962a1,1,0,1,0,.292.7A1,1,0,0,0,146.581,122.962Z" transform="translate(-144.88 -122.67)" fill="#6b94fe"/>
    </g>
  </g>
  <g id="Group_133" data-name="Group 133" transform="translate(0 0)">
    <g id="Group_132" data-name="Group 132" transform="translate(0 0)">
      <path id="Path_244" data-name="Path 244" d="M50.716,4.2,49.484,2.97l1.231-1.231A1,1,0,0,0,49.307.33L48.076,1.561,46.862.345a1,1,0,0,0-.7-.292L29.3.044h0A4.952,4.952,0,0,0,25.769,1.5L17.354,9.918a1,1,0,1,0,1.409,1.409l8.414-8.414a2.972,2.972,0,0,1,2.116-.876h0l16.449.009.923.924-3.7,3.7a4.081,4.081,0,1,0,1.408,1.41l3.7-3.7.939.941-.009,16.427a2.973,2.973,0,0,1-.876,2.114L23.819,48.172a2.992,2.992,0,0,1-4.232,0L2.869,31.453a2.992,2.992,0,0,1,0-4.232L13.608,16.483A1,1,0,1,0,12.2,15.074L1.46,25.813a4.985,4.985,0,0,0,0,7.05L18.178,49.581a4.99,4.99,0,0,0,7.05,0L49.538,25.27A4.953,4.953,0,0,0,51,21.748l.009-16.84A1,1,0,0,0,50.716,4.2Zm-8.366,7.44a2.089,2.089,0,1,1-1.477-3.565,2.1,2.1,0,0,1,.6.087l-1.15,1.15a1,1,0,1,0,1.409,1.409l1.147-1.147A2.09,2.09,0,0,1,42.35,11.644Z" transform="translate(0 -0.038)" fill="#6b94fe"/>
    </g>
  </g>
  <g id="Group_135" data-name="Group 135" transform="translate(5.839 7.293)">
    <g id="Group_134" data-name="Group 134">
      <path id="Path_245" data-name="Path 245" d="M95.323,86.009,83.713,74.4a3.949,3.949,0,0,0-5.578,0L59.761,92.772a3.944,3.944,0,0,0,0,5.578l11.61,11.61a3.944,3.944,0,0,0,5.578,0L95.323,91.587a3.944,3.944,0,0,0,0-5.578Zm-1.409,4.169L75.541,108.551a1.952,1.952,0,0,1-2.76,0L61.17,96.941a1.952,1.952,0,0,1,0-2.761L79.543,75.808a1.954,1.954,0,0,1,2.76,0l11.61,11.61a1.952,1.952,0,0,1,0,2.76Z" transform="translate(-58.606 -73.245)" fill="#6b94fe"/>
    </g>
  </g>
  <g id="Group_137" data-name="Group 137" transform="translate(20.45 18.228)">
    <g id="Group_136" data-name="Group 136">
      <path id="Path_246" data-name="Path 246" d="M217.307,184.711A1,1,0,0,0,215.9,183.3l-.574.574a3.835,3.835,0,0,0-4.74.423,3.615,3.615,0,0,0-1.044,2.77,4.19,4.19,0,0,0,1.243,2.756h0a1.793,1.793,0,1,1-2.708-.2,1,1,0,0,0-1.409-1.409,3.835,3.835,0,0,0-.423,4.74l-.681.681a1,1,0,0,0,1.409,1.409l.681-.681a4.121,4.121,0,0,0,2.159.623,3.616,3.616,0,0,0,2.58-1.045,3.919,3.919,0,0,0-.2-5.525h0a2.2,2.2,0,0,1-.662-1.444,1.646,1.646,0,0,1,.462-1.264,1.933,1.933,0,0,1,2.708.2h0a1.933,1.933,0,0,1,.2,2.708,1,1,0,1,0,1.409,1.409,3.835,3.835,0,0,0,.423-4.74Z" transform="translate(-205.272 -183.01)" fill="#6b94fe"/>
    </g>
  </g>
  <g id="Group_139" data-name="Group 139" transform="translate(15.585 31.037)">
    <g id="Group_138" data-name="Group 138">
      <path id="Path_247" data-name="Path 247" d="M163.252,316.986l-5.117-5.117a1,1,0,1,0-1.409,1.409l5.117,5.117a1,1,0,0,0,1.409-1.409Z" transform="translate(-156.434 -311.578)" fill="#6b94fe"/>
    </g>
  </g>
  <g id="Group_141" data-name="Group 141" transform="translate(12.856 28.307)">
    <g id="Group_140" data-name="Group 140">
      <path id="Path_248" data-name="Path 248" d="M130.74,284.472a.994.994,0,1,0,.293.705A1,1,0,0,0,130.74,284.472Z" transform="translate(-129.04 -284.18)" fill="#6b94fe"/>
    </g>
  </g>
</svg>
