<svg id="whatsapp" xmlns="http://www.w3.org/2000/svg" width="28.81" height="28.81" viewBox="0 0 28.81 28.81">
  <path id="Path_224" data-name="Path 224" d="M6.968,26.754A14.3,14.3,0,0,0,14.354,28.8,14.479,14.479,0,0,0,28.81,14.4,14.4,14.4,0,1,0,2.056,21.842L0,28.81ZM1.7,14.4A12.652,12.652,0,1,1,7.546,25.127l-.324-.207L2.5,26.314,3.89,21.588l-.207-.324A12.71,12.71,0,0,1,1.7,14.4Zm0,0" fill="#eff3fc"/>
  <path id="Path_225" data-name="Path 225" d="M121.325,99.2a12.721,12.721,0,0,0,10.2,10.2c1.676.319,4.136.367,5.338-.835l.67-.67a1.791,1.791,0,0,0,0-2.533l-2.68-2.68a1.792,1.792,0,0,0-2.533,0l-.67.67a1.192,1.192,0,0,1-1.594.005l-2.673-2.785-.012-.012a1.053,1.053,0,0,1,0-1.487l.67-.67a1.79,1.79,0,0,0,0-2.533l-2.68-2.68a1.793,1.793,0,0,0-2.533,0l-.67.67h0C121.2,94.818,120.88,96.864,121.325,99.2Zm2.028-4.145c.7-.687.666-.7.743-.7a.1.1,0,0,1,.073.03c2.824,2.839,2.711,2.672,2.711,2.754a.1.1,0,0,1-.03.073l-.67.67a2.738,2.738,0,0,0-.007,3.867l2.675,2.787.012.012a2.878,2.878,0,0,0,3.986,0l.67-.67a.1.1,0,0,1,.147,0c2.824,2.839,2.711,2.672,2.711,2.753a.1.1,0,0,1-.03.073l-.67.67c-.459.459-1.922.734-3.829.371a11.034,11.034,0,0,1-8.861-8.861C122.619,96.974,122.893,95.511,123.353,95.052Zm0,0" transform="translate(-114.312 -87.451)" fill="#eff3fc"/>
</svg>
