<?xml version="1.0" encoding="utf-8"?>
<!-- Generator: Adobe Illustrator 24.2.3, SVG Export Plug-In . SVG Version: 6.00 Build 0)  -->
<svg version="1.1" xmlns="http://www.w3.org/2000/svg" xmlns:xlink="http://www.w3.org/1999/xlink" x="0px" y="0px"
	 viewBox="0 0 816.7 694.3" style="enable-background:new 0 0 816.7 694.3;" xml:space="preserve">
<style type="text/css">
	.st0{display:none;}
	.st1{display:inline;}
	.st2{opacity:0.55;fill:#EFF3FC;enable-background:new    ;}
	.st3{fill:#738FFD;}
	.st4{fill:#F1B5AB;}
	.st5{fill:#98D8EA;}
	.st6{fill:#90D6E9;}
	.st7{fill:#263B7F;}
	.st8{fill:#052195;}
	.st9{fill:#404040;}
	.st10{fill:#F5948D;}
	.st11{fill:#983222;}
	.st12{fill:#1E1724;}
	.st13{fill:#7A1715;}
	.st14{opacity:0.581;}
	.st15{fill:#A7BCF1;}
	.st16{opacity:0.15;fill:#FFFFFF;enable-background:new    ;}
	.st17{fill:none;stroke:#FFFFFF;stroke-width:1.958;stroke-miterlimit:10;}
	.st18{fill:none;stroke:#34327B;stroke-width:5.07;}
	.st19{fill:#34327B;}
	.st20{fill:#98DFCC;}
	.st21{clip-path:url(#SVGID_2_);}
	.st22{fill:#E7E7E7;}
	.st23{clip-path:url(#SVGID_4_);}
	.st24{fill:#6B94FE;}
	.st25{fill:#3F4261;}
	.st26{fill:#C6E8F0;}
	.st27{fill:#9CD9E7;}
	.st28{fill:#212A60;}
	.st29{fill:#EFF3FC;}
</style>
<g id="Layer_1" class="st0">
	<g id="HC_Sercvices" transform="translate(-27.095 -2070.622)" class="st1">
		<path id="blob-2" class="st2" d="M122.3,2326.4c-54.6,84.4-103.5,159.4-94.1,223c9.3,63.1,76.6,115.8,143.9,154.1
			c68,38.6,136,63.2,204.5,61.4s137.5-30.2,231-61.9c93.9-32.4,211.6-68.1,232.6-121.8c21.1-53.7-55.2-125.7-97.5-215
			c-41.7-89.5-50-195.8-117.9-250.9s-196.8-58.8-291.6-13.2C238.2,2147.1,177.5,2241.9,122.3,2326.4z"/>
		<g id="figure_2" transform="translate(80.68 2260.243)">
			<path id="Path_118" class="st3" d="M286.9,302.3c-3.4,0.8-6.8,1.3-10.2,1.6c-8,0.9-19.5,1.8-31.9,2.4c-11.8,0.6-24.3,1-35,0.8
				c-0.9,0-1.9,0-2.8-0.1c-10-0.3-17.7-0.7-23.5-1.1c-2.3-0.2-4.2-0.3-6-0.5c-6.6-0.6-9.2-1.2-9.2-1.2c-1.5-6.8,12.2-90.2,16.5-105
				c4.3-14.8,19.9-36.2,19.9-36.2c0.1-2.2,0.4-4.8,0.6-7.5c0.7-6.6,1.7-14.3,2.7-21.4c1.7-11.9,3.4-22.1,3.4-22.1
				c28.3,0.8,41.1-2.6,41.2-2.6c0,0,1.3,2.8,2.9,6.4l0,0c2.3,5.4,5.1,12.7,4.6,14.9c-0.7,2.7-4.2,6.8-6.1,9
				c-0.8,0.8-1.3,1.4-1.3,1.4c0.5,6.2,8.2,59.1,14.2,79.7S286.9,302.3,286.9,302.3z"/>
			<path id="Path_121" class="st4" d="M189.4,190.1c0,0-1.3,5.3-3.2,5.8s-11.8-9.4-24.2-21.9c-12.4-12.6-23.8-29.3-23.8-29.3
				c2.8-9.9,27.6-39.6,27.6-39.6c4.2,2.4,8,5.6,11.1,9.4c1,1.2,2,2.5,2.9,3.9c3.3,4.9,3.9,8.1,3.9,8.1c-6,8.1-18.3,16.3-18.3,16.3
				s8.7,15.2,13.6,24.2l0,0c0.2,0.4,0.4,0.7,0.6,1.1C183.2,175.3,186.5,182.6,189.4,190.1z"/>
			<path id="Path_122" class="st5" d="M252.7,109.4c-2.4,0.6-4.9,1-7.4,1.3c-0.5,0.1-1,0.1-1.5,0.2c-8.8,1-17.6,1.4-26.4,1.2
				c-0.5,0-1,0-1.5,0c-1.4,0-2.9-0.1-4.4-0.1c0,0-1.7,10.3-3.4,22.3c-0.9,6.3-1.8,13-2.4,19c-0.1,0.7-0.2,1.5-0.2,2.2
				c-0.1-0.5-0.2-1-0.3-1.5c-3.3-14.1-9.6-40.5-9.6-40.5c-3,4.3-11.9,13.1-11.9,13.1s-1.4-3.2-3.4-6.8c-1-1.8-2.1-3.6-3.4-5.2
				c-3.7-4.8-11.6-8.8-11.6-8.8c1.3-1.6,18.7-25,27.1-30c4.1-2.4,8.4-4.6,12.7-6.5c0.5-0.2,0.9-0.4,1.4-0.6c3.9-1.8,8-3.3,12.2-4.3
				c0,0,7.6,0.6,11.4,1.3c1.4,0.3,2.8,0.6,4.1,1.1c0.6,0.2,1.1,0.4,1.7,0.7c2.6,1.1,4.9,2.9,6.3,5.4c2.7,4.7,4.7,5.4,5,12
				C247.4,91.3,252.7,109.3,252.7,109.4z"/>
			<g id="Group_59" transform="translate(297.201 139.663)">
				<path id="Path_123" class="st6" d="M-79.8-27.6c0,0.3-0.2,0.6-0.6,0.7c-0.1,0-0.1,0-0.2,0c-0.3,0-0.6-0.2-0.7-0.6l0-0.2
					l-10.8-42.9c0.5-0.2,0.9-0.4,1.4-0.6l10.9,43.3C-79.8-27.7-79.8-27.6-79.8-27.6z"/>
			</g>
			<path id="Path_124" class="st4" d="M255.6,51.2c-5.1,5.2-15.1,6.8-23.7,4.2c-0.8-0.2-1.6-0.5-2.4-0.8c-0.4-0.2-0.8-0.3-1.2-0.5
				c-6.3-2.9-11-8.4-13.4-11.7c-1.2-1.6-1.8-2.7-1.8-2.7c-1.7,0-3.2-0.6-4.5-1.7c-5-4.3-5.1-15.2-1.1-17c4.9-2.2,5.6,3.8,5.6,3.8
				s2.1-9.3,6.5-15.1c0.4-0.5,0.8-1,1.2-1.4c4.1-4.3,10.6-10.2,13.2-12.5h0c0.7-0.6,1.1-1,1.1-1c14.4,3.2,19.5,1.1,19.5,1.1
				s0.2,0.5,0.5,1.5c0.1,0.4,0.3,0.9,0.5,1.5c1.8,5.3,5.5,16.4,7.5,22.9C265.5,30.3,261.4,45.1,255.6,51.2z"/>
			<path id="Path_125" class="st7" d="M206.3,355c-0.9,23.6,0,92.6,0,92.6h-4.5c-0.6,0-23.6-76.7-24.6-95.1
				c-0.9-18.4,10.1-32.6,10.1-32.6l-3.8-14c1.8,0.1,3.8,0.3,5.9,0.4c4.8,0.3,10.6,0.5,17.6,0.7c0.9,0,1.9,0.1,2.8,0.1
				C209.2,313.5,207.1,335.1,206.3,355z"/>
			<path id="Path_126" class="st8" d="M306.6,442.5l-5.2,1.1l-0.2,0c0,0-18.8-31.3-29.3-46.3c-10.5-15-21-33.8-22.7-47.6
				c-1.7-13.9,2.4-32.4,2.4-32.4l-6.8-11c3.1-0.2,6.2-0.3,9.2-0.5c8.8-0.6,16.7-1.2,22.7-1.9c1.1,6.9,4.8,31.3,8.1,51.5
				C288.8,379.2,306.6,442.5,306.6,442.5z"/>
			<path id="Path_127" class="st4" d="M204.6,190.9c-1.3,0.7-7-3.4-11.1-2.1c0,0,7.5,3.9,6.6,6.2c-0.8,1.9-7.2-0.9-8.8-1.8
				c1.3,1.1,5,5.9,4.2,7.1c-0.9,1.3-7-4.3-7-4.3s2.4,5,0.9,6.5s-3.2-6.6-3.2-6.6c0.9-2,2-4,3.2-5.8c2.1-2.9,4.9-7.7,8.1-6.4
				S206,190.1,204.6,190.9z"/>
			<path id="Path_128" class="st4" d="M291,144.9c-0.9,8.3-4.1,11.9-8.8,12.8c-2.6,0.4-5.2,0.2-7.7-0.5
				c-8.8-2.1-12.2-13.7-15.2-24.8S249,98.2,247.7,89.6c-0.8-4.6-1-9.3-0.7-13.9c-1.3-0.2-2.5-0.7-3.6-1.5c-0.1-0.1-0.2-0.2-0.2-0.4
				c-0.1-0.7,1.5-1.6,2.9-2.1c-2.2,0.8-5.5,1.7-6.2,0.9c-1.1-1.3,5.1-6.3,5.4-6.6c-0.4,0.1-7.5,3.2-8.4,2.2c-0.9-0.9,6.4-5.4,7.2-6
				c-0.9,0.4-9.1,3.8-9.9,2.4c-0.9-1.5,8-7,10.9-8.1c2.9-1.1,5.4,1.7,5.4,1.7s4.1-0.8,3.9,2.4c2.2,1.2,3.4,3.7,3,6.2
				c-0.6,3-1.5,6-2.8,8.8c0.4,0.6,16.7,26.1,23.6,36C285.2,121.7,292.4,132.7,291,144.9z"/>
			<path id="Path_129" class="st8" d="M301.2,443.7l2.1,5.8h25.3C328.6,449.5,316,436.3,301.2,443.7z"/>
			<path id="Path_130" class="st4" d="M231.9,55.3l-0.3,4.5l-0.7,10.6c-4.1,2.1-12-3.2-12-5.1c0-0.9-0.8-5.7-1.7-10.7
				c-1.1-6.1-2.3-12.4-2.3-12.4c2.4,3.3,7.1,8.8,13.4,11.7C229.4,54.5,230.6,55,231.9,55.3z"/>
			<g id="Group_60" transform="translate(274.772 50.334)">
				<path id="Path_131" class="st9" d="M-9.4-60c0,0.1,0,0.2,0,0.3c-0.2,3.7-5.4,6.1-10.4,6.4c-0.3-0.9-0.5-1.5-0.5-1.5
					s-5.1,2.1-19.5-1.1c0,0-9,8.1-14.3,13.5c-3,3.1-5.1,8.1-6.4,11.8c-0.9,2.7-1.3,4.7-1.3,4.7s-0.6-5.2-4.7-4.1
					c-0.3,0.1-0.6,0.2-0.9,0.3c-2,0.9-2.9,4.2-2.8,7.7c0.1,2.8,1,5.5,2.5,7.8c0.4,0.6,0.9,1.1,1.4,1.5c-0.7,1.4-1.4,2.9-1.9,4.5
					c-3.6,10.2,7.5,18.9,13.3,24.3c4.4,4.1,8.8,14.1,6,21.6v0c-0.9,2.5-2.6,4.6-4.8,6c-5.9,4-13.4,4.9-20.1,2.4
					c5.8-4.5,2.1-14.6-6.2-19.3s-12-8.3-12.2-20.9c-0.2-12.6,14.8-22.8,14.8-22.8l4-7.8c0-0.1,0-0.1,0.1-0.1c0-0.1,0.1-0.1,0.1-0.2
					l2-3.9c-1-4.8-3.6-17.1,1-27s17.8-16.7,35.4-15C-17.1-69.1-9.4-64.3-9.4-60z"/>
			</g>
			<g id="Group_61" transform="translate(326.292 137.791)">
				<path id="Path_133" class="st6" d="M-81.1-27.2L-81.1-27.2c0.1,0.4-0.2,0.8-0.6,0.9c0,0-0.1,0-0.1,0c-0.4,0-0.7-0.2-0.7-0.6
					l0-0.1l-9.6-44.2c0.6,0.2,1.1,0.4,1.7,0.7L-81.1-27.2z"/>
			</g>
			<path id="Path_134" class="st10" d="M204.6,190.9c-1.3,0.7-7-3.4-11.1-2.1c0,0,7.5,3.9,6.6,6.2c-0.8,1.9-7.2-0.9-8.8-1.8
				c1.3,1.1,5,5.9,4.2,7.1c-0.9,1.3-7-4.3-7-4.3s2.4,5,0.9,6.5s-3.2-6.6-3.2-6.6c0.9-2,2-4,3.2-5.8c2.1-2.9,4.9-7.7,8.1-6.4
				S206,190.1,204.6,190.9z"/>
			<path id="Path_136" class="st10" d="M255.5-1.4c-7.3,0.3-14.6-0.7-21.6-3.1c0.7-0.6,1.1-1,1.1-1c14.4,3.2,19.5,1.1,19.5,1.1
				s0.2,0.5,0.5,1.5C255.1-2.5,255.3-2,255.5-1.4z"/>
			<g id="Group_62" transform="translate(333.715 87.845)">
				<path id="Path_137" class="st11" d="M-90.5-53.1c-0.4,0-0.8,0-1.2,0c-0.2,0-0.4-0.2-0.4-0.4s0.2-0.4,0.4-0.4
					c5.3,0.2,7.4-0.9,8-1.3c-1.6-3.1-5.2-14.9-5.1-15.6c0-0.2,0.2-0.4,0.4-0.4c0.2,0,0.4,0.2,0.4,0.4c0.1,0.9,3.6,12.8,5.2,15.5
					c0.1,0.1,0.1,0.3,0,0.4C-83-54.8-84.6-53.1-90.5-53.1z"/>
			</g>
			<g id="Group_63" transform="translate(299.359 94.905)">
				<path id="Path_138" class="st11" d="M-88.9-60.1L-88.9-60.1c-0.2,0-0.4-0.2-0.4-0.4c0,0,0,0,0,0c0.5-4.2-2.8-9.9-2.8-10
					c-0.1-0.2,0-0.4,0.1-0.5c0.2-0.1,0.4,0,0.5,0.1c0,0,0,0,0,0c0.1,0.2,3.4,6,2.9,10.4C-88.5-60.3-88.7-60.1-88.9-60.1z"/>
			</g>
			<g id="Group_64" transform="translate(299.28 98.417)">
				<path id="Path_139" class="st11" d="M-90.2-66.8c-0.7,0.1-1.4-0.3-1.8-0.9c-0.6-1.3,1.3-3,1.6-3.2c0.2-0.1,0.4-0.1,0.5,0
					c0,0,0,0,0,0c0.1,0.2,0.1,0.4,0,0.5c-0.5,0.4-1.7,1.7-1.4,2.4c0.3,0.7,1.7,0.4,2.2,0.3c0.2-0.1,0.4,0.1,0.5,0.3c0,0,0,0,0,0
					c0.1,0.2-0.1,0.4-0.2,0.5c0,0,0,0,0,0C-89.4-66.9-89.8-66.9-90.2-66.8z"/>
			</g>
			<path id="Path_140" class="st12" d="M231.2,18.9c0,2.1-0.8,3.8-1.7,3.8s-1.7-1.7-1.7-3.8s0.8-3.8,1.7-3.8S231.2,16.8,231.2,18.9z
				"/>
			<path id="Path_141" class="st12" d="M252.7,18.1c0,2.5-0.8,4.6-1.7,4.6s-1.7-2-1.7-4.6s0.8-4.6,1.7-4.6S252.7,15.6,252.7,18.1z"
				/>
			<path id="Path_146" class="st13" d="M304.7,445.4c-0.1,0-0.2-0.1-0.2-0.2C304.6,445.3,304.7,445.4,304.7,445.4z"/>
			<path id="Path_148" class="st8" d="M199,439.1c-1.8,5.6-2.6,9.9-2.6,9.9s10.1,0,15-0.9l-5.1-9.6L199,439.1z"/>
		</g>
		<g id="Group_124" transform="translate(51.466 2275.117)" class="st14">
			<g id="Group_121" transform="translate(477.529 38.413)">
				<g id="Group_120">
					<path id="Path_229" class="st15" d="M-92.1-71.1H151v199.3H-92.1V-71.1z"/>
					<path id="Path_226" class="st16" d="M-33.8-71.1l-58.3,86.8v74.9l112-161.8H-33.8z"/>
					<path id="Path_227" class="st16" d="M74.8-71.1L-46.9,128.6h16.2L91.5-71.1H74.8z"/>
					<path id="Path_228" class="st16" d="M151-71.1L44.9,128.6l106.1-0.4L151-71.1z"/>
				</g>
				<line id="Line_1" class="st17" x1="31.2" y1="-71.1" x2="31.2" y2="128.6"/>
			</g>
			<g id="Group_123" transform="translate(459.534 27.883)">
				<path id="Path_335" class="st18" d="M199.5-65.1"/>
				<rect id="Rectangle_18" x="-83.1" y="134.9" class="st19" width="259" height="9"/>
				<rect id="Rectangle_19" x="-83.1" y="-69.1" class="st19" width="259" height="9"/>
			</g>
		</g>
		<g id="Group_129" transform="translate(186.827 2235.251)">
			<g id="Group_125" transform="translate(402.173 338.643)">
				<path id="Path_230" class="st20" d="M-26.7,23.1c0,0-20.7-48.7-40.4-67.3c0,0,11,51.6,26,80.1"/>
				<path id="Path_231" class="st20" d="M-28.3,23.2c0,0,30.2-50.8,49.9-69.4c0,0-16.8,49.7-28.9,80.8"/>
				<path id="Path_232" class="st20" d="M-34.6,31.7c0,0-12.9-59.1,10.7-102.7c0,0,19.3,23.8,8.4,102.7"/>
				<path id="Path_233" class="st20" d="M-35.5,24.8c0,0-6.7-17.3-56.7-34c0,0,6.6,18.8,44.4,40.8"/>
				<path id="Path_234" class="st20" d="M-12.6,23.8c0,0,18.1-29.7,56.1-33c0,0-12.9,18.1-42.8,40.8"/>
			</g>
			<g id="Group_128" transform="translate(434.676 438.79)">
				<rect id="Rectangle_3" x="-74.4" y="-10.7" class="st15" width="34.3" height="15.9"/>
				<g id="Group_127">
					<path id="Path_235" class="st15" d="M-92.1-68.3l6.6,54.9c0.6,4.6,3.3,8.7,7.5,10.9l0,0c2.1,1.1,4.4,1.7,6.7,1.7h27.8
						c2.9,0,5.7-0.9,8.1-2.5l0.1-0.1c3.4-2.3,5.6-6,6.1-10.1l6.3-54.7c0.2-1.3-0.8-2.6-2.2-2.7c-0.1,0-0.2,0-0.3,0h-64.2
						c-1.4,0-2.5,1.1-2.5,2.5C-92.1-68.5-92.1-68.4-92.1-68.3z"/>
					<g>
						<defs>
							<path id="SVGID_1_" d="M-92.1-68.3l6.6,54.9c0.6,4.6,3.3,8.7,7.5,10.9l0,0c2.1,1.1,4.4,1.7,6.7,1.7h27.8
								c2.9,0,5.7-0.9,8.1-2.5l0.1-0.1c3.4-2.3,5.6-6,6.1-10.1l6.3-54.7c0.2-1.3-0.8-2.6-2.2-2.7c-0.1,0-0.2,0-0.3,0h-64.2
								c-1.4,0-2.5,1.1-2.5,2.5C-92.1-68.5-92.1-68.4-92.1-68.3z"/>
						</defs>
						<clipPath id="SVGID_2_">
							<use xlink:href="#SVGID_1_"  style="overflow:visible;"/>
						</clipPath>
						<g id="Group_126" class="st21">
							<path id="Path_237" class="st22" d="M-20.8-52.4L-20.8-52.4z"/>
						</g>
					</g>
				</g>
			</g>
		</g>
	</g>
	<g id="HC_Sercvices_1_" transform="translate(-27.095 -2070.622)" class="st1">
		<path id="blob-2_1_" class="st2" d="M122.3,2326.4c-54.6,84.4-103.5,159.4-94.1,223c9.3,63.1,76.6,115.8,143.9,154.1
			c68,38.6,136,63.2,204.5,61.4s137.5-30.2,231-61.9c93.9-32.4,211.6-68.1,232.6-121.8c21.1-53.7-55.2-125.7-97.5-215
			c-41.7-89.5-50-195.8-117.9-250.9s-196.8-58.8-291.6-13.2C238.2,2147.1,177.5,2241.9,122.3,2326.4z"/>
		<g id="figure_2_1_" transform="translate(80.68 2260.243)">
			<path id="Path_118_1_" class="st3" d="M286.9,302.3c-3.4,0.8-6.8,1.3-10.2,1.6c-8,0.9-19.5,1.8-31.9,2.4c-11.8,0.6-24.3,1-35,0.8
				c-0.9,0-1.9,0-2.8-0.1c-10-0.3-17.7-0.7-23.5-1.1c-2.3-0.2-4.2-0.3-6-0.5c-6.6-0.6-9.2-1.2-9.2-1.2c-1.5-6.8,12.2-90.2,16.5-105
				c4.3-14.8,19.9-36.2,19.9-36.2c0.1-2.2,0.4-4.8,0.6-7.5c0.7-6.6,1.7-14.3,2.7-21.4c1.7-11.9,3.4-22.1,3.4-22.1
				c28.3,0.8,41.1-2.6,41.2-2.6c0,0,1.3,2.8,2.9,6.4l0,0c2.3,5.4,5.1,12.7,4.6,14.9c-0.7,2.7-4.2,6.8-6.1,9
				c-0.8,0.8-1.3,1.4-1.3,1.4c0.5,6.2,8.2,59.1,14.2,79.7S286.9,302.3,286.9,302.3z"/>
			<path id="Path_121_1_" class="st4" d="M189.4,190.1c0,0-1.3,5.3-3.2,5.8s-11.8-9.4-24.2-21.9c-12.4-12.6-23.8-29.3-23.8-29.3
				c2.8-9.9,27.6-39.6,27.6-39.6c4.2,2.4,8,5.6,11.1,9.4c1,1.2,2,2.5,2.9,3.9c3.3,4.9,3.9,8.1,3.9,8.1c-6,8.1-18.3,16.3-18.3,16.3
				s8.7,15.2,13.6,24.2l0,0c0.2,0.4,0.4,0.7,0.6,1.1C183.2,175.3,186.5,182.6,189.4,190.1z"/>
			<path id="Path_122_1_" class="st5" d="M252.7,109.4c-2.4,0.6-4.9,1-7.4,1.3c-0.5,0.1-1,0.1-1.5,0.2c-8.8,1-17.6,1.4-26.4,1.2
				c-0.5,0-1,0-1.5,0c-1.4,0-2.9-0.1-4.4-0.1c0,0-1.7,10.3-3.4,22.3c-0.9,6.3-1.8,13-2.4,19c-0.1,0.7-0.2,1.5-0.2,2.2
				c-0.1-0.5-0.2-1-0.3-1.5c-3.3-14.1-9.6-40.5-9.6-40.5c-3,4.3-11.9,13.1-11.9,13.1s-1.4-3.2-3.4-6.8c-1-1.8-2.1-3.6-3.4-5.2
				c-3.7-4.8-11.6-8.8-11.6-8.8c1.3-1.6,18.7-25,27.1-30c4.1-2.4,8.4-4.6,12.7-6.5c0.5-0.2,0.9-0.4,1.4-0.6c3.9-1.8,8-3.3,12.2-4.3
				c0,0,7.6,0.6,11.4,1.3c1.4,0.3,2.8,0.6,4.1,1.1c0.6,0.2,1.1,0.4,1.7,0.7c2.6,1.1,4.9,2.9,6.3,5.4c2.7,4.7,4.7,5.4,5,12
				C247.4,91.3,252.7,109.3,252.7,109.4z"/>
			<g id="Group_59_1_" transform="translate(297.201 139.663)">
				<path id="Path_123_1_" class="st6" d="M-79.8-27.6c0,0.3-0.2,0.6-0.6,0.7c-0.1,0-0.1,0-0.2,0c-0.3,0-0.6-0.2-0.7-0.6l0-0.2
					l-10.8-42.9c0.5-0.2,0.9-0.4,1.4-0.6l10.9,43.3C-79.8-27.7-79.8-27.6-79.8-27.6z"/>
			</g>
			<path id="Path_124_1_" class="st4" d="M255.6,51.2c-5.1,5.2-15.1,6.8-23.7,4.2c-0.8-0.2-1.6-0.5-2.4-0.8
				c-0.4-0.2-0.8-0.3-1.2-0.5c-6.3-2.9-11-8.4-13.4-11.7c-1.2-1.6-1.8-2.7-1.8-2.7c-1.7,0-3.2-0.6-4.5-1.7c-5-4.3-5.1-15.2-1.1-17
				c4.9-2.2,5.6,3.8,5.6,3.8s2.1-9.3,6.5-15.1c0.4-0.5,0.8-1,1.2-1.4c4.1-4.3,10.6-10.2,13.2-12.5h0c0.7-0.6,1.1-1,1.1-1
				c14.4,3.2,19.5,1.1,19.5,1.1s0.2,0.5,0.5,1.5c0.1,0.4,0.3,0.9,0.5,1.5c1.8,5.3,5.5,16.4,7.5,22.9
				C265.5,30.3,261.4,45.1,255.6,51.2z"/>
			<path id="Path_125_1_" class="st7" d="M206.3,355c-0.9,23.6,0,92.6,0,92.6h-4.5c-0.6,0-23.6-76.7-24.6-95.1
				c-0.9-18.4,10.1-32.6,10.1-32.6l-3.8-14c1.8,0.1,3.8,0.3,5.9,0.4c4.8,0.3,10.6,0.5,17.6,0.7c0.9,0,1.9,0.1,2.8,0.1
				C209.2,313.5,207.1,335.1,206.3,355z"/>
			<path id="Path_126_1_" class="st8" d="M306.6,442.5l-5.2,1.1l-0.2,0c0,0-18.8-31.3-29.3-46.3c-10.5-15-21-33.8-22.7-47.6
				c-1.7-13.9,2.4-32.4,2.4-32.4l-6.8-11c3.1-0.2,6.2-0.3,9.2-0.5c8.8-0.6,16.7-1.2,22.7-1.9c1.1,6.9,4.8,31.3,8.1,51.5
				C288.8,379.2,306.6,442.5,306.6,442.5z"/>
			<path id="Path_127_1_" class="st4" d="M204.6,190.9c-1.3,0.7-7-3.4-11.1-2.1c0,0,7.5,3.9,6.6,6.2c-0.8,1.9-7.2-0.9-8.8-1.8
				c1.3,1.1,5,5.9,4.2,7.1c-0.9,1.3-7-4.3-7-4.3s2.4,5,0.9,6.5s-3.2-6.6-3.2-6.6c0.9-2,2-4,3.2-5.8c2.1-2.9,4.9-7.7,8.1-6.4
				S206,190.1,204.6,190.9z"/>
			<path id="Path_128_1_" class="st4" d="M291,144.9c-0.9,8.3-4.1,11.9-8.8,12.8c-2.6,0.4-5.2,0.2-7.7-0.5
				c-8.8-2.1-12.2-13.7-15.2-24.8S249,98.2,247.7,89.6c-0.8-4.6-1-9.3-0.7-13.9c-1.3-0.2-2.5-0.7-3.6-1.5c-0.1-0.1-0.2-0.2-0.2-0.4
				c-0.1-0.7,1.5-1.6,2.9-2.1c-2.2,0.8-5.5,1.7-6.2,0.9c-1.1-1.3,5.1-6.3,5.4-6.6c-0.4,0.1-7.5,3.2-8.4,2.2c-0.9-0.9,6.4-5.4,7.2-6
				c-0.9,0.4-9.1,3.8-9.9,2.4c-0.9-1.5,8-7,10.9-8.1c2.9-1.1,5.4,1.7,5.4,1.7s4.1-0.8,3.9,2.4c2.2,1.2,3.4,3.7,3,6.2
				c-0.6,3-1.5,6-2.8,8.8c0.4,0.6,16.7,26.1,23.6,36C285.2,121.7,292.4,132.7,291,144.9z"/>
			<path id="Path_129_1_" class="st8" d="M301.2,443.7l2.1,5.8h25.3C328.6,449.5,316,436.3,301.2,443.7z"/>
			<path id="Path_130_1_" class="st4" d="M231.9,55.3l-0.3,4.5l-0.7,10.6c-4.1,2.1-12-3.2-12-5.1c0-0.9-0.8-5.7-1.7-10.7
				c-1.1-6.1-2.3-12.4-2.3-12.4c2.4,3.3,7.1,8.8,13.4,11.7C229.4,54.5,230.6,55,231.9,55.3z"/>
			<g id="Group_60_1_" transform="translate(274.772 50.334)">
				<path id="Path_131_1_" class="st9" d="M-9.4-60c0,0.1,0,0.2,0,0.3c-0.2,3.7-5.4,6.1-10.4,6.4c-0.3-0.9-0.5-1.5-0.5-1.5
					s-5.1,2.1-19.5-1.1c0,0-9,8.1-14.3,13.5c-3,3.1-5.1,8.1-6.4,11.8c-0.9,2.7-1.3,4.7-1.3,4.7s-0.6-5.2-4.7-4.1
					c-0.3,0.1-0.6,0.2-0.9,0.3c-2,0.9-2.9,4.2-2.8,7.7c0.1,2.8,1,5.5,2.5,7.8c0.4,0.6,0.9,1.1,1.4,1.5c-0.7,1.4-1.4,2.9-1.9,4.5
					c-3.6,10.2,7.5,18.9,13.3,24.3c4.4,4.1,8.8,14.1,6,21.6v0c-0.9,2.5-2.6,4.6-4.8,6c-5.9,4-13.4,4.9-20.1,2.4
					c5.8-4.5,2.1-14.6-6.2-19.3s-12-8.3-12.2-20.9c-0.2-12.6,14.8-22.8,14.8-22.8l4-7.8c0-0.1,0-0.1,0.1-0.1c0-0.1,0.1-0.1,0.1-0.2
					l2-3.9c-1-4.8-3.6-17.1,1-27s17.8-16.7,35.4-15C-17.1-69.1-9.4-64.3-9.4-60z"/>
			</g>
			<g id="Group_61_1_" transform="translate(326.292 137.791)">
				<path id="Path_133_1_" class="st6" d="M-81.1-27.2L-81.1-27.2c0.1,0.4-0.2,0.8-0.6,0.9c0,0-0.1,0-0.1,0c-0.4,0-0.7-0.2-0.7-0.6
					l0-0.1l-9.6-44.2c0.6,0.2,1.1,0.4,1.7,0.7L-81.1-27.2z"/>
			</g>
			<path id="Path_134_1_" class="st10" d="M204.6,190.9c-1.3,0.7-7-3.4-11.1-2.1c0,0,7.5,3.9,6.6,6.2c-0.8,1.9-7.2-0.9-8.8-1.8
				c1.3,1.1,5,5.9,4.2,7.1c-0.9,1.3-7-4.3-7-4.3s2.4,5,0.9,6.5s-3.2-6.6-3.2-6.6c0.9-2,2-4,3.2-5.8c2.1-2.9,4.9-7.7,8.1-6.4
				S206,190.1,204.6,190.9z"/>
			<path id="Path_136_1_" class="st10" d="M255.5-1.4c-7.3,0.3-14.6-0.7-21.6-3.1c0.7-0.6,1.1-1,1.1-1c14.4,3.2,19.5,1.1,19.5,1.1
				s0.2,0.5,0.5,1.5C255.1-2.5,255.3-2,255.5-1.4z"/>
			<g id="Group_62_1_" transform="translate(333.715 87.845)">
				<path id="Path_137_1_" class="st11" d="M-90.5-53.1c-0.4,0-0.8,0-1.2,0c-0.2,0-0.4-0.2-0.4-0.4s0.2-0.4,0.4-0.4
					c5.3,0.2,7.4-0.9,8-1.3c-1.6-3.1-5.2-14.9-5.1-15.6c0-0.2,0.2-0.4,0.4-0.4c0.2,0,0.4,0.2,0.4,0.4c0.1,0.9,3.6,12.8,5.2,15.5
					c0.1,0.1,0.1,0.3,0,0.4C-83-54.8-84.6-53.1-90.5-53.1z"/>
			</g>
			<g id="Group_63_1_" transform="translate(299.359 94.905)">
				<path id="Path_138_1_" class="st11" d="M-88.9-60.1L-88.9-60.1c-0.2,0-0.4-0.2-0.4-0.4c0,0,0,0,0,0c0.5-4.2-2.8-9.9-2.8-10
					c-0.1-0.2,0-0.4,0.1-0.5c0.2-0.1,0.4,0,0.5,0.1c0,0,0,0,0,0c0.1,0.2,3.4,6,2.9,10.4C-88.5-60.3-88.7-60.1-88.9-60.1z"/>
			</g>
			<g id="Group_64_1_" transform="translate(299.28 98.417)">
				<path id="Path_139_1_" class="st11" d="M-90.2-66.8c-0.7,0.1-1.4-0.3-1.8-0.9c-0.6-1.3,1.3-3,1.6-3.2c0.2-0.1,0.4-0.1,0.5,0
					c0,0,0,0,0,0c0.1,0.2,0.1,0.4,0,0.5c-0.5,0.4-1.7,1.7-1.4,2.4c0.3,0.7,1.7,0.4,2.2,0.3c0.2-0.1,0.4,0.1,0.5,0.3c0,0,0,0,0,0
					c0.1,0.2-0.1,0.4-0.2,0.5c0,0,0,0,0,0C-89.4-66.9-89.8-66.9-90.2-66.8z"/>
			</g>
			<path id="Path_140_1_" class="st12" d="M231.2,18.9c0,2.1-0.8,3.8-1.7,3.8s-1.7-1.7-1.7-3.8s0.8-3.8,1.7-3.8
				S231.2,16.8,231.2,18.9z"/>
			<path id="Path_141_1_" class="st12" d="M252.7,18.1c0,2.5-0.8,4.6-1.7,4.6s-1.7-2-1.7-4.6s0.8-4.6,1.7-4.6S252.7,15.6,252.7,18.1
				z"/>
			<path id="Path_146_1_" class="st13" d="M304.7,445.4c-0.1,0-0.2-0.1-0.2-0.2C304.6,445.3,304.7,445.4,304.7,445.4z"/>
			<path id="Path_148_1_" class="st8" d="M199,439.1c-1.8,5.6-2.6,9.9-2.6,9.9s10.1,0,15-0.9l-5.1-9.6L199,439.1z"/>
		</g>
		<g id="Group_124_1_" transform="translate(51.466 2275.117)" class="st14">
			<g id="Group_121_1_" transform="translate(477.529 38.413)">
				<g id="Group_120_1_">
					<path id="Path_229_1_" class="st15" d="M-92.1-71.1H151v199.3H-92.1V-71.1z"/>
					<path id="Path_226_1_" class="st16" d="M-33.8-71.1l-58.3,86.8v74.9l112-161.8H-33.8z"/>
					<path id="Path_227_1_" class="st16" d="M74.8-71.1L-46.9,128.6h16.2L91.5-71.1H74.8z"/>
					<path id="Path_228_1_" class="st16" d="M151-71.1L44.9,128.6l106.1-0.4L151-71.1z"/>
				</g>
				<line id="Line_1_1_" class="st17" x1="31.2" y1="-71.1" x2="31.2" y2="128.6"/>
			</g>
			<g id="Group_123_1_" transform="translate(459.534 27.883)">
				<path id="Path_335_1_" class="st18" d="M199.5-65.1"/>
				<rect id="Rectangle_18_1_" x="-83.1" y="134.9" class="st19" width="259" height="9"/>
				<rect id="Rectangle_19_1_" x="-83.1" y="-69.1" class="st19" width="259" height="9"/>
			</g>
		</g>
		<g id="Group_129_1_" transform="translate(186.827 2235.251)">
			<g id="Group_125_1_" transform="translate(402.173 338.643)">
				<path id="Path_230_1_" class="st20" d="M-26.7,23.1c0,0-20.7-48.7-40.4-67.3c0,0,11,51.6,26,80.1"/>
				<path id="Path_231_1_" class="st20" d="M-28.3,23.2c0,0,30.2-50.8,49.9-69.4c0,0-16.8,49.7-28.9,80.8"/>
				<path id="Path_232_1_" class="st20" d="M-34.6,31.7c0,0-12.9-59.1,10.7-102.7c0,0,19.3,23.8,8.4,102.7"/>
				<path id="Path_233_1_" class="st20" d="M-35.5,24.8c0,0-6.7-17.3-56.7-34c0,0,6.6,18.8,44.4,40.8"/>
				<path id="Path_234_1_" class="st20" d="M-12.6,23.8c0,0,18.1-29.7,56.1-33c0,0-12.9,18.1-42.8,40.8"/>
			</g>
			<g id="Group_128_1_" transform="translate(434.676 438.79)">
				<rect id="Rectangle_3_1_" x="-74.4" y="-10.7" class="st15" width="34.3" height="15.9"/>
				<g id="Group_127_1_">
					<path id="Path_235_1_" class="st15" d="M-92.1-68.3l6.6,54.9c0.6,4.6,3.3,8.7,7.5,10.9l0,0c2.1,1.1,4.4,1.7,6.7,1.7h27.8
						c2.9,0,5.7-0.9,8.1-2.5l0.1-0.1c3.4-2.3,5.6-6,6.1-10.1l6.3-54.7c0.2-1.3-0.8-2.6-2.2-2.7c-0.1,0-0.2,0-0.3,0h-64.2
						c-1.4,0-2.5,1.1-2.5,2.5C-92.1-68.5-92.1-68.4-92.1-68.3z"/>
					<g>
						<defs>
							<path id="SVGID_3_" d="M-92.1-68.3l6.6,54.9c0.6,4.6,3.3,8.7,7.5,10.9l0,0c2.1,1.1,4.4,1.7,6.7,1.7h27.8
								c2.9,0,5.7-0.9,8.1-2.5l0.1-0.1c3.4-2.3,5.6-6,6.1-10.1l6.3-54.7c0.2-1.3-0.8-2.6-2.2-2.7c-0.1,0-0.2,0-0.3,0h-64.2
								c-1.4,0-2.5,1.1-2.5,2.5C-92.1-68.5-92.1-68.4-92.1-68.3z"/>
						</defs>
						<clipPath id="SVGID_4_">
							<use xlink:href="#SVGID_3_"  style="overflow:visible;"/>
						</clipPath>
						<g id="Group_126_1_" class="st23">
							<path id="Path_237_1_" class="st22" d="M-20.8-52.4L-20.8-52.4z"/>
						</g>
					</g>
				</g>
			</g>
		</g>
	</g>
</g>
<g id="Layer_2">
	<g id="Eco_friendly_1_" transform="translate(-869.995 -2970.622)">
		<path id="blob-2_3_" class="st2" d="M967.8,3226.7c-54.1,83.5-102.4,157.8-93.1,220.7c9.2,62.4,75.8,114.6,142.4,152.4
			c67.2,38.2,134.5,62.5,202.3,60.7c67.8-1.8,136.1-29.8,228.5-61.3c92.9-32.1,209.3-67.4,230.2-120.5s-54.6-124.3-96.5-212.8
			c-41.3-88.6-49.4-193.7-116.7-248.2c-67.2-54.5-194.8-58.2-288.6-13.1C1082.5,3049.2,1022.5,3143,967.8,3226.7z"/>
		<g id="Group_181_1_" transform="translate(-82)">
			<g id="Group_151_1_" transform="translate(1277.094 3118)">
				<rect id="Rectangle_9_1_" x="-44.1" y="-68.9" class="st15" width="102.1" height="51.8"/>
				<path id="Path_252_1_" class="st19" d="M97.3,10.6H-91l26.5-27.7H74.1L97.3,10.6z"/>
			</g>
			<rect id="Rectangle_11_1_" x="1405.4" y="3049.1" class="st15" width="141.3" height="117.8"/>
			<g id="Group_153_1_" transform="translate(1298.22 3322.433)">
				<path id="Path_258_1_" class="st24" d="M-30.9-71.1c0,0-4.6,46.4-11.1,47.8c-3.3,0.7-11.9,1.3-20.2,1.4
					c-8,0.1-15.7-0.3-18.6-1.4c-5.1-2-10.4-47.7-10.4-47.7l49.9,0L-30.9-71.1z"/>
			</g>
			<g id="Group_154_1_" transform="translate(1296.424 3603.698)">
				<rect id="Rectangle_12_1_" x="-91.2" y="-74" class="st19" width="198.3" height="9.7"/>
				<path id="Path_260_1_" class="st19" d="M107.1-74v9.7H38.8l2.4-9.7H107.1z"/>
			</g>
			<path id="Path_261_1_" class="st15" d="M1551.1,3299.7l-0.5,47.6v0.9l-0.6,59.8l0,0.9l-0.6,59.8l0,0.9l-0.6,59.8v0.9l-0.1,9.2
				h-145.3v-239.6H1551.1z"/>
			<path id="Path_263_1_" class="st15" d="M1403.5,3299.7v229.9h-198.3l-0.7-65.3l-1.1-108.1l0-0.9l-0.5-55.6L1403.5,3299.7z"/>
			<path id="Path_265_1_" class="st15" d="M1385.5,3399.6l-1,46.2l-1.2,53.6h-159l-2.2-99.8H1385.5z"/>
			<path id="Path_269_1_" class="st8" d="M1506.8,3344.5c-2.1,15.9-8.5,60.7-8.5,60.7c3.8,6.2,10.5,20.3,7.9,52
				c-2.7,31.7-16.9,74.1-16.9,74.1l-1.7,0.4l-2.4,0.6c0,0-8.8-103.5-9.8-113.6c-1-10.2-7.2-76.8-7.2-76.8s-0.4,0.5-1,1.3v0
				c-3.4,4.3-14.3,18.4-21.5,29.6c-8.6,13.4-29.7,42-29.7,42c12.1,11.3,19.4,30.3,22.8,48.9c3.4,18.6,6.9,71,6.9,71l-0.6-0.3l-4-2.1
				c0,0-21.3-47.2-32.6-71.4c-11.3-24.2-22.7-45.3-22.3-47c0.4-1.7,16.7-39.2,21.7-52.2c5-13,28.8-64.1,28.8-64.1s12.7,4.4,31.3,1
				c8.8-1.7,17.2-5.2,24.7-10.2c5.1-3.4,8.3-6.5,9.1-7.6C1509.3,3292.8,1508.9,3328.6,1506.8,3344.5z"/>
			<path id="Path_272_1_" class="st5" d="M1543.7,3230.2c-2.1-0.1-4.2,0-6.2,0.4c-4.2,0.8-8.1,2.4-11.6,4.8c0,0-2.7-1.5-6.7-3.9l0,0
				c-4.3-2.6-10.2-6.4-15.9-10.4c-11.1-7.9-20.5-15.7-20.5-15.7s-0.6,20.9-0.8,27.8c-0.2,6.9,1.1,11.2,7.1,18.6
				c6.7,8.4,11.1,18.3,12.9,28.8c-0.8,1.1-3.9,4.1-8.7,7.4c-7.6,5.1-16.1,8.7-25,10.5c-18.6,3.5-31.3-1-31.3-1
				c-0.2-7.9-0.9-50.3-1.1-54.1c-0.1-1-0.3-1.9-0.7-2.8c-1-2.3-2.2-4.5-3.7-6.5l0,0c-0.1-0.1-0.1-0.2-0.2-0.3c0,0,0,0.1-0.1,0.1
				c-0.5,1.1-6.6,12.9-12.2,20.7c-5.2,7.2-12,13.2-19.8,17.6c0.2-2.8,0.2-5.7,0-8.5c-0.7-11.2-4.4-14.5-4.4-14.5s5.9-14.7,10.7-27.2
				c3.2-8.3,6.7-19.2,10.1-29.3c1.8-5.2,3.5-10.1,5.2-14.3c0.4-1.1,0.9-2.2,1.5-3.2c4.8-9.1,11-8.8,14.6-8.3l0.2-0.1l1.8,3.5
				c1.2,1.7,2.3,2.9,3.4,2.8c2.7-0.2,5.9-6.2,7.1-10.4c-0.1-0.3-0.2-0.7-0.4-1.1l0.7-0.3c3.4-3.4,8.6-4,14.9-2.7
				c4.1,0.9,8.1,2.2,11.9,4c1.6,0.7,3.2,1.4,4.8,2.3c13.8,6.9,39,33.4,48.9,44.1c0.3,0.4,0.7,0.7,1,1.1v0
				C1536.4,3215.9,1540.7,3222.8,1543.7,3230.2z"/>
			<g id="Group_159_1_" transform="translate(1484.41 3170.377)">
				<path id="Path_278_1_" class="st4" d="M-30.8-47.8c-0.4,5.6-9.4,10-9.4,10c0.3,2.6,0.2,5.2-0.4,7.8c-0.1,0.6-0.3,1.2-0.4,1.8
					c-1.1,4.4-3.2,8.4-6.1,11.9c0,0-0.1,0.1-0.1,0.2c-1.2,1.5-2.6,2.9-4.1,4.2c-0.1,0.1-0.3,0.2-0.4,0.3c-4,2.9-8.8,3.1-21.3,1.9
					c-17.3-1.7-17.5-11.5-17.5-17.9c-0.1-6.3-2.6-16.6-2.6-16.6c0.9,0,1.7-0.3,2.4-0.8c4-2.5,7.8-5.3,11.4-8.4
					c5.2-4.4,9.5-9.8,12.7-15.9c2.4,4.2,10.5,16.2,17.2,19.7c0.3,0.2,0.7,0.3,1,0.5c6.9,2.7,9.2-5.2,11.5-6.9
					C-34.6-58-30.4-53.4-30.8-47.8z"/>
			</g>
			<g id="Group_160_1_" transform="translate(1526.699 3210.226)">
				<path id="Path_280_1_" class="st4" d="M-77.1-50.4c0,1-0.2,1.9-0.4,2.9c-1.1,4.2-4.3,10.2-7.1,10.4c-1.1,0.1-2.2-1.1-3.4-2.8
					c-1.2-1.9-2.3-3.9-3.2-5.9c-1-2.1-1.8-4.3-2.5-5.9c1.6-1.3,3-2.7,4.2-4.3c2.9-3.5,4.9-7.6,6.1-11.9c0-0.2,0.1-0.4,0.1-0.5
					c0.1-0.4,0.2-0.9,0.3-1.3c0.1,0.3,0.2,0.6,0.3,0.9c1.7,5.2,3.7,11.4,4.8,15.2C-77.5-52.7-77.2-51.6-77.1-50.4z"/>
			</g>
			<g id="Group_161_1_" transform="translate(1439.395 3320.094)">
				<path id="Path_282_1_" class="st4" d="M-40.5-48c-3.3,4.4-19,14-52.2,13.8c0,0,0.8-2,1.9-4.8c1.7-4.1,4.1-9.7,5.6-12.4
					c6.8-1.8,13.4-4.1,19.8-7c15.7-7.2,20-12.9,20.6-12.7c0.6,0.2,3.2,2.5,4.3,10.2c0.2,1.2,0.3,2.4,0.4,3.5
					C-39.8-54.2-39.9-51.1-40.5-48z"/>
			</g>
			<g id="Group_162_1_" transform="translate(1620.398 3299.687)">
				<path id="Path_284_1_" class="st4" d="M-74.6-26.1c-0.7,0.1-1.4,0.3-2.2,0.4c-3.4,0.8-6.8,1.9-10.1,3.2
					c-0.6-3.6-2.3-12.6-4.7-21.3c-1.9-6.7-2.9-13.6-3.1-20.5c3.4-2.5,7.2-4.4,11.3-5.5c2-0.6,4-0.9,6.1-1.1
					C-71.9-60.5-74.1-31.3-74.6-26.1z"/>
			</g>
			<path id="Path_286_1_" class="st19" d="M1445.8,3534.7c-2.9-3.6-7.5-5.5-12.1-5c-8.1,0.8-13,9.6-13,9.6h25.1V3534.7z"/>
			<path id="Path_287_1_" class="st19" d="M1480.7,3539.3h18.4l-9.8-8.1h-4.1L1480.7,3539.3z"/>
			<path id="Path_288_1_" class="st25" d="M1413.6,3123.9c-1.7,0.4-1.7-4.4,1.9-6.1c3.7-1.7,9.4,1.2,9.4,1.2
				c-2.4,0.3-4.8,0.9-7.1,1.7C1416.1,3121.3,1414.7,3122.4,1413.6,3123.9z"/>
			<path id="Path_289_1_" class="st25" d="M1476.3,3162.5c-11.7-5.1-21.4-6.5-26.8-1.2l-0.7,0.3c-2.3-6.3-4.1-12.9-5.4-19.5
				c0.9-3.1,1.2-6.3,0.9-9.6c0,0,9-4.4,9.4-10c0.4-5.6-3.8-10.2-6.2-8.4c-2.3,1.7-4.6,9.6-11.5,6.9c-6.9-2.7-15.7-15.7-18.2-20.2
				c-3.1,6.1-7.4,11.5-12.7,15.9c-3.6,3.1-7.4,5.9-11.4,8.4c-4.7,1.9-8.8,2.3-9.9,0.4c-0.1-0.2-0.2-0.3-0.2-0.5
				c-1.2-3.9,1.3-18,10.4-27.7c9.5-10.2,15.2-16.2,25-16.3c10.9-0.2,25.6,17,34.6,30.3c1.8,2.6,3.3,5.1,4.6,7.3
				c0.3,0.5,0.6,1,0.9,1.5c4.4,7.8,10.2,22.9,14,33.3C1474.4,3157.4,1475.6,3160.5,1476.3,3162.5z"/>
			<g id="Group_167_1_" transform="translate(1498.181 3198.409)">
				<path id="Path_296_1_" class="st11" d="M-88.5-49c-0.6,0-1.3-0.2-1.8-0.5c-0.1-0.1-0.1-0.1-0.1-0.2c0-4.1-0.3-8.2-0.8-12.2
					c-0.4-2.5-1.1-5-2-7.4c-0.1-0.1,0-0.3,0.1-0.4c0,0,0,0,0,0c0.1-0.1,0.3,0,0.4,0.1c1,2.4,1.7,5,2.1,7.6c0.5,4,0.8,8.1,0.8,12.2
					c0.6,0.4,1.4,0.4,2.1,0.3c1.3-0.4,2.3-1.6,3.2-3.7c0.1-0.1,0.2-0.2,0.4-0.1c0.1,0.1,0.2,0.2,0.1,0.4c-1,2.3-2.2,3.6-3.6,4
					C-87.9-49-88.2-49-88.5-49z"/>
			</g>
			<path id="Path_298_1_" class="st12" d="M1402.4,3136.1c0.8,2.1,0.5,4.1-0.5,4.5s-2.5-1-3.3-3c-0.8-2.1-0.5-4.1,0.5-4.5
				C1400.2,3132.7,1401.7,3134.1,1402.4,3136.1z"/>
			<path id="Path_299_1_" class="st12" d="M1418.9,3130c0.8,2.1,0.6,4-0.5,4.4c-1,0.4-2.5-1-3.2-3.1c-0.8-2.1-0.6-4,0.5-4.4
				C1416.7,3126.5,1418.1,3127.9,1418.9,3130z"/>
			<path id="Path_300_1_" class="st25" d="M1403.9,3128.6c-1.1-0.7-5.9-1.6-8.3-0.5c-2.4,1.2-2.6,4-1,4.6c1.6,0.6,1.6-0.1,3.7-1.7
				C1400,3130,1401.9,3129.1,1403.9,3128.6z"/>
			<g id="Group_169_1_" transform="translate(1388.176 3334.415)">
				<path id="Path_303_1_" class="st24" d="M-37.2-57.7c-1.4,3.1-2.6,6.3-3.6,9.5c-1,3-1.6,5.1-1.6,5.1s-4.8,0.8-14.2,0
					c-5.8-0.5-11.4-2.4-16.3-5.4c0,0-7.9,4.2-9,2.7c-1.2-1.6,2.3-4.4,2.3-4.4c-1.7-1.7-12.5,1-12.5,1s-0.1-0.5,1.2-2.4
					c0.4-0.6,0.9-1.3,1.5-2.2c2.9-3.8,12.5-9,18.8-9c6.3,0,9.2,1.7,13.4,0c4.2-1.7,22.3-10.8,24.2-7.7
					C-32.4-69.6-34.2-64.6-37.2-57.7z"/>
			</g>
			<g id="Group_170_1_" transform="translate(1618.033 3344.603)">
				<path id="Path_305_1_" class="st24" d="M-69.8-54.6c-2.1,8.1-4.6,11.9-4.6,11.9s1.7,9.6,0,14.6c-1,2.9-1.7,3.9-2.2,3.9
					c-0.4,0-0.6-0.4-0.9-1c0.1,0.3,0.5,2.6-3.6,4.6c-4,1.9-6.2,0.7-6.9-0.5v0c-0.1-0.1-0.1-0.3-0.2-0.4c-0.4-1.3,1.5-11.5,1.1-12.1
					s-5.6,2.5-7.1,1.9c-0.2-0.1-0.4-0.3-0.4-0.5c-0.3-1.4,2.1-5.3,4.6-7.6c1.6-1.4,2.8-3.1,3.7-5c0,0-0.4-4.2-1-10.9
					c-0.6-6.7-1-10-1-10s1.5-0.7,3.8-1.6c4-1.6,8-2.8,12.2-3.7c0,0,0.1,0,0.1,0c1.7-0.3,3.5-0.4,5.2-0.1
					C-67.4-65.6-68.4-60.1-69.8-54.6z"/>
			</g>
			<rect id="Rectangle_17_1_" x="1216.8" y="3372.7" class="st19" width="177.1" height="14.6"/>
			<g id="Group_174_1_" transform="translate(1355.177 3335.368)">
				<path id="Path_313_1_" class="st26" d="M-91.5-35.6c0,0-1.7-6.7,2.9-10.4c4.6-3.7,8.5,1.4,8.5,1.4s-0.5-6.9,2.1-7.3
					c2.6-0.4,4.3,3.9,4.3,3.9s0.3-11.4,6.9-12.9S-53-49.4-53-49.4s1.7-5.4,5.2-5.4c3.5,0,4.4,10.1,4.4,10.1s3.1-7.5,9.9-4.7
					s1.9,14,1.9,14L-91.5-35.6z"/>
				<path id="Path_314_1_" class="st26" d="M-80.1-57.9c4.7-2,0.2-10.3-3.9-6.6C-88-60.8-84.8-56-80.1-57.9z"/>
				<path id="Path_315_1_" class="st26" d="M-64-68.7c0-1.4,1.1-2.5,2.5-2.5c1.4,0,2.5,1.1,2.5,2.5c0,1.4-1.1,2.5-2.5,2.5
					C-62.9-66.2-64-67.3-64-68.7L-64-68.7z"/>
				<path id="Path_316_1_" class="st27" d="M-62.2-49.4c0,2.8-2.3,5.1-5.1,5.1c-2.8,0-5.1-2.3-5.1-5.1c0-2.8,2.3-5.1,5.1-5.1
					C-64.5-54.5-62.2-52.2-62.2-49.4z"/>
				<path id="Path_317_1_" class="st27" d="M-51.9-42.2c0,2-1.6,3.6-3.6,3.6c-2,0-3.6-1.6-3.6-3.6c0-2,1.6-3.6,3.6-3.6c0,0,0,0,0,0
					C-53.5-45.7-51.9-44.1-51.9-42.2z"/>
			</g>
			<path id="Path_319_1_" class="st19" d="M1335.3,3490l-5.1,63.6h-76.1l-3.9-31.2l-0.2-1.5l-0.7-6l-0.2-1.7l-2.8-22.2l2,0l22.6-0.3
				l1.1,0l50.8-0.7L1335.3,3490z"/>
			<path id="Path_321_1_" class="st5" d="M1244,3534.5l-5.5,20.6l-21,1.7l-38.4,3.1c0,0,6.9-21.7,6.9-22.8l47.5-2.1L1244,3534.5z"/>
			<g id="Group_178_1_" transform="translate(1300.698 3277.142)">
				<path id="Path_329_1_" class="st7" d="M-41.9-70.6L-64.4,107l-19.6,155.2h-7.3l19.1-151l23-181.8H-41.9z"/>
				<path id="Path_330_1_" class="st28" d="M-64.4,107l-19.6,155.2h-7.3l19.1-151L-64.4,107z"/>
			</g>
			<path id="Path_331_1_" class="st26" d="M1269,3475.1c0,3.1-2.5,5.6-5.6,5.6c-3.1,0-5.6-2.5-5.6-5.6c0-3.1,2.5-5.6,5.6-5.6
				C1266.5,3469.4,1269,3472,1269,3475.1C1269,3475.1,1269,3475.1,1269,3475.1z"/>
			<path id="Path_332_1_" class="st26" d="M1314.6,3460.7c0,4.8-3.9,8.7-8.7,8.7c-4.8,0-8.7-3.9-8.7-8.7c0-4.8,3.9-8.7,8.7-8.7
				C1310.6,3452,1314.6,3455.9,1314.6,3460.7C1314.6,3460.7,1314.6,3460.7,1314.6,3460.7z"/>
			<path id="Path_333_1_" class="st26" d="M1289.7,3480.8c0,1.9-1.6,3.5-3.5,3.4s-3.5-1.6-3.4-3.5c0-1.9,1.6-3.4,3.5-3.4
				C1288.2,3477.3,1289.7,3478.9,1289.7,3480.8C1289.7,3480.8,1289.7,3480.8,1289.7,3480.8z"/>
			<path id="Path_334_1_" class="st26" d="M1262.4,3488.5c0,0,1.1-5.1,4.9-5.4c3.9-0.3,7.8,2.7,7.8,2.7s2.9-3,5.8-2.7
				c2.9,0.2,3.5,5.3,3.5,5.3s11.4-8.2,20,0L1262.4,3488.5z"/>
		</g>
		<path id="Path_336_1_" class="st29" d="M1357.2,3121.8c0,0-5.6,18.4-44.6,30.1c0.4,0.6,8.1,13.4,37.3,8.1
			c10.3-6.7,13-28.2,13-28.2L1357.2,3121.8z"/>
	</g>
</g>
</svg>
