<svg xmlns="http://www.w3.org/2000/svg" width="581.736" height="515.436" viewBox="0 0 581.736 515.436">
  <g id="Hero_Art" data-name="Hero Art" transform="translate(-1398 -196.952)">
    <path id="Path_1" data-name="Path 1" d="M926.16,146.8H550.426c-.921,26.731-3.168,47.98-3.461,50.708H927.687C926.513,179.679,926.064,162.663,926.16,146.8Z" transform="translate(916.015 484.343)" fill="#98d8ea"/>
    <path id="Path_2" data-name="Path 2" d="M966.609,107.46c0,8.942-5.774,51.886-10.409,84.369l-.659.07c-2.657,8-5.285,20.992-7.327,37.794H567.129c-1.637-15.275-4.43-29.214-8.964-39.57-6.734-36.948-16.632-83.4-16.632-83.4,5.892-6.546,174.8-2.226,220.132-2.71.388,0,.768-.017,1.143-.017.7,0,1.349-.009,1.964-.026C804.809,103.214,966.609,107.46,966.609,107.46Z" transform="translate(897.741 337.172)" fill="#c6e8ef"/>
    <path id="Path_3" data-name="Path 3" d="M589.615,144.837c-.135-.615-.24-1.226-.4-1.842a38.268,38.268,0,0,0-2.257-6.367c-6.42-14.014-20.564-22.144-34.071-18.631a26.065,26.065,0,0,0-14.149,9.51c-5.97,7.733-8.323,18.84-5.425,30,2.754,10.623,9.641,18.884,18.02,22.973a26.306,26.306,0,0,0,18.313,2.029C584.544,178.634,593.185,162.015,589.615,144.837Z" transform="translate(865.924 384.701)" fill="#c6e8ef"/>
    <path id="Path_4" data-name="Path 4" d="M547.758,125.513c13.507-3.513,27.652,4.617,34.071,18.631h0a52.962,52.962,0,0,1,2.99,5.866l-6.429-33.722c-38.178-7.472-44.79,18.736-44.79,18.736h.009A26.064,26.064,0,0,1,547.758,125.513Z" transform="translate(871.052 377.185)" fill="#98d8ea"/>
    <path id="Path_5" data-name="Path 5" d="M547.4,132.073c.633,5.866,1.082,11.923,1.392,18.059H926.674c.528-6.372,1.13-12.373,1.807-17.959C898.494,132.88,581.21,132.156,547.4,132.073Z" transform="translate(917.465 434.801)" fill="#9dd9e1"/>
    <path id="Path_6" data-name="Path 6" d="M547.715,136.211c.8,15.633.689,31.728.187,46.208H923.636c.1-16.868.838-32.413,1.964-46.208Z" transform="translate(918.538 448.723)" fill="#98d8ea"/>
    <path id="Path_7" data-name="Path 7" d="M585.485,185.241c-.31-6.136-.76-12.194-1.392-18.059-1.907-.009,0-.009,0-.009-1.628-15.275-4.421-29.214-8.947-39.57.153.838-.043-.1-.043-.1a53.016,53.016,0,0,0-2.99-5.866A38.285,38.285,0,0,1,574.37,128c.161.615.266,1.226.4,1.842,3.57,17.178-5.071,33.8-19.971,37.668a26.306,26.306,0,0,1-18.313-2.029s17.483,52.9,12.447,116.974h33.242s.009-.114.035-.3c.292-2.728,2.54-23.977,3.461-50.708C586.175,216.969,586.284,200.874,585.485,185.241Z" transform="translate(880.768 399.692)" fill="#98d8ea"/>
    <path id="Path_8" data-name="Path 8" d="M697.527,146.849c-7.262,11.159-20.206,16.938-32.439,13.368-14.664-4.3-22.925-20.494-19.207-36.825l-.262.017-.65.061c-2.644,8-5.285,21-7.319,37.8,0,0,1.458.083-.017.109-.677,5.586-1.279,11.587-1.807,17.959-1.126,13.8-1.859,29.341-1.964,46.208-.1,15.864.354,32.88,1.528,50.708h38.732S666.493,198.853,697.527,146.849Z" transform="translate(1208.313 405.593)" fill="#98d8ea"/>
    <path id="Path_9" data-name="Path 9" d="M674.582,129.155A26.756,26.756,0,0,1,689.041,139.7c-7.1-12.853-22.641-32.963-46.88-22.511L636.4,154.123h.008a27.66,27.66,0,0,1,3.557-7.725C646.537,132.742,661.014,125.175,674.582,129.155Z" transform="translate(1216.878 374.94)" fill="#98d8ea"/>
    <path id="Path_10" data-name="Path 10" d="M689.015,129.048A26.755,26.755,0,0,0,674.556,118.5c-13.568-3.98-28.045,3.587-34.621,17.243a35.052,35.052,0,0,0-2.121,5.5c-.205.716-.358,1.431-.524,2.147-3.718,16.331,4.543,32.527,19.207,36.825,12.233,3.57,25.177-2.208,32.439-13.368a35.291,35.291,0,0,0,4.308-9.374S691.752,134,689.015,129.048Z" transform="translate(1216.904 385.591)" fill="#c6e8ef"/>
    <path id="Path_18" data-name="Path 18" d="M928.48,132.18c.009-.035.009-.065.017-.109H547.4v.009C581.21,132.163,898.494,132.887,928.48,132.18Z" transform="translate(917.465 434.795)" fill="#938b8b"/>
    <path id="Path_20" data-name="Path 20" d="M750.866,234.9c0,6.145-16.6,11.364-39.418,13.067-5.128.384-10.579.589-16.23.589-30.733,0-55.648-6.123-55.648-13.656l.1-6.232.048-1.685,1.6-88.4c0,7.293,24.125,13.219,53.894,13.219a189.963,189.963,0,0,0,28.721-2.038c15.126-2.344,25.173-6.468,25.173-11.181l1.576,86.591.03,1.615Z" transform="translate(1227.556 456.682)" fill="#6b94fe"/>
    <path id="Path_22" data-name="Path 22" d="M704.624,340.935l-3.208.93s-20.97-25.675-32.492-39.85c-11.5-14.157-27.564-30.781-35.5-47.784-6.9-14.782-21.8-54.7-25.566-64.852,11.692-3.862,18.932-9.8,22.162-18.238,5.49-14.358.2-30.6-4.535-39.859-1.763-3.461-4.059-7.921-6.232-12.141-.362-.716-.711-1.405-1.074-2.086-1.558-3.02-3-5.8-4.037-7.843-.152-.271-.292-.528-.406-.768-.44-.86-.79-1.541-1.03-2-.122-.218-.21-.384-.271-.5a.542.542,0,0,0-.092-.161v-.017c.423-.332.833-.681,1.226-1.039.419-.349.825-.716,1.222-1.074a67.083,67.083,0,0,0,6.407-6.49l.048-.035.031.017c.135.14.271.257.406.384,9.143,8.2,15.44,25.378,19.565,42.442v.009a284.642,284.642,0,0,1,5.97,34.368c2.261,20.791,6.974,71.966,6.974,71.966,17.942,5.089,26.251,15.3,30.6,28.145.886,2.645,2.387,7.432,4.15,13.289C695.088,308,704.624,340.935,704.624,340.935Z" transform="translate(1120.88 317.222)" fill="#052195"/>
    <path id="Path_23" data-name="Path 23" d="M621.327,190.291c11.888,15.292,8.685,33.823,2.64,53.828-5.7,18.875-16.248,48.351-16.248,48.351l-3.53-.742-2.7-.572s-3.779-76.309-4.53-99.535c-.668-20.756-2.54-63.015-2.68-72.35a66.565,66.565,0,0,0,13.311,1.191c3.976.044,8.811-.065,14.685-.423,3.125-.2,6.106-.436,8.947-.742Z" transform="translate(1075.187 391.736)" fill="#052195"/>
    <path id="Path_24" data-name="Path 24" d="M704.624,340.935l-3.208.93s-20.97-25.675-32.492-39.85c-11.5-14.157-27.564-30.781-35.5-47.784-6.9-14.782-21.8-54.7-25.566-64.852,11.692-3.862,18.932-9.8,22.162-18.238,5.49-14.358.2-30.6-4.535-39.859-1.763-3.461-4.059-7.921-6.232-12.141-.362-.716-.711-1.405-1.074-2.086-1.558-3.02-3-5.8-4.037-7.843-.152-.271-.292-.528-.406-.768-.44-.86-.79-1.541-1.03-2-.122-.218-.21-.384-.271-.5a.542.542,0,0,0-.092-.161v-.017c.423-.332.833-.681,1.226-1.039.419-.349.825-.716,1.222-1.074a67.083,67.083,0,0,0,6.407-6.49l.048-.035.031.017c.135.14.271.257.406.384,9.143,8.2,15.44,25.378,19.565,42.442v.009c-2.679,12.137-6.607,29.7-7.45,50.42-1.135,27.582,9.518,64.215,9.518,64.215s21.926,29.136,45.628,33.133C695.088,308,704.624,340.935,704.624,340.935Z" transform="translate(1120.88 317.222)" fill="#052195"/>
    <path id="Path_25" data-name="Path 25" d="M623.581,119.278l-9.894,70.993c11.888,15.292,8.685,33.823,2.64,53.828-5.7,18.875-16.248,48.351-16.248,48.351l-3.53-.742c4.081-13.394,14.524-48.12,16.086-67.052,1.981-23.807-4.4-29.467-4.4-29.467-.725-16.933-5.822-57.481-8.283-74.746,3.976.044,8.811-.065,14.686-.423C617.759,119.824,620.74,119.584,623.581,119.278Z" transform="translate(1082.827 391.756)" fill="#052195"/>
    <path id="Path_26" data-name="Path 26" d="M690.375,102.382a45.577,45.577,0,0,0-5.844,9.82c-.768,1.833-1.75,3.854-2.706,5.713-1.89,3.71-3.683,6.826-3.683,6.826l-3.614-2.265-.65-.41-6.978-4.382-.319-.188c-.087.079-.179.17-.267.257-7.017,6.852-10.88,19.316-10.88,29.559,0,10.4,4.727,20.4,9.636,23.816,4.2,2.907,13.25,10.518,15.759,12.634-.545.807-1.209,1.737-2.025,2.763-3.509,4.473-9.719,10.653-19.958,16.135A78.105,78.105,0,0,1,637.2,210c-.257.061-.515.1-.777.157a109.275,109.275,0,0,1-20.634,1.96c-.576-2.448-5.106-20.586-6.241-34.01-.332-3.954-.742-7.96-1.135-11.652-.816-7.528-1.61-13.717-1.824-15.318-.052-.271-.066-.41-.066-.41-1.161-.375-2.252-.755-3.277-1.157h-.013a34.007,34.007,0,0,1-9.444-5.124c-3.88-3.173-4.988-6.428-5.2-9.213-.388-4.722,6.8-17.383,9.16-24.361,1.807-5.32,4.089-16.488,5.582-22.327A18.657,18.657,0,0,1,604.452,85a29.531,29.531,0,0,1,4.43-4.408c.388-.349.8-.716,1.191-1.056a48.106,48.106,0,0,0,4.382-4.312,5.329,5.329,0,0,1,.179,1c.231,2.156.594,8.065,1.344,12.931.524,3.352,1.231,6.2,2.208,6.948l.044.026a.539.539,0,0,0,.275.127.6.6,0,0,0,.467-.127l.214-.166a2.933,2.933,0,0,0,.2-.244c.908-1.261,1.781-4.6,2.824-8.048.349-1.152.729-2.326,1.139-3.426,2.064-5.678,6.219-13.237,6.04-14.354,0,0,.873.009,2.278.061,3.443.092,10.051.279,14.764.628,1.933.153,3.535.314,4.473.5,4.172.812,8.7,4.273,17.012,10.893,5.364,4.264,13.145,11.508,18.006,16.121.188.179.384.34.546.511C688.843,100.881,690.375,102.382,690.375,102.382Z" transform="translate(1055.992 225.634)" fill="#738ffd"/>
    <path id="Path_30" data-name="Path 30" d="M645.634,113.247a55.2,55.2,0,0,0-.044-7.511c11.661-9.518,3.684-21.777,0-20.8s-3.518,7.576-3.518,7.576l-5.036-8.558a12.541,12.541,0,0,0-5.442-4.849c-6.642-3.247-16.27-2.226-21.778.964-7.384,4.277-15.55,13.219-16.715,19.059-3.3-.65-9.1-4.687-10.911-12.063-2.125-8.737,5.259-25.256,15.371-30.327,9.893-4.927,24.213-.205,24.811-.009-.345-.393-5.29-6.01.013-6.215,4.835-.161,18.229,7.746,21.433,9.7.454.253.694.406.694.406S657.439,72.7,660.363,85.146C663.27,97.588,659.883,115.1,645.634,113.247Z" transform="translate(1033.292 160.43)" fill="#404040"/>
    <path id="Path_32" data-name="Path 32" d="M646.339,100.39c-.964,9.139-6.219,17.893-14.184,20.612,0,0,3.112-8.72.964-13.215-1.671-3.483-2.723-3.107-8.558-2.147s-9.715-.96-11.072-8.934c-1.322-7.694-3.744-20.8-13.525-23.619,1.641-4.9.135-9.4-3.282-9.741A23.882,23.882,0,0,1,599.76,55a15.156,15.156,0,0,1,13.73-7.69c12.63.2,16.518,8.371,18.465,17.7,1.789,8.606-2.191,19.194-2.832,20.8a5.879,5.879,0,0,1,6.922-3.094c4.373.965,9.282,6.267,10.234,13.3v.009A18.721,18.721,0,0,1,646.339,100.39Z" transform="translate(1083.278 149.641)" fill="#404040"/>
    <path id="Path_34" data-name="Path 34" d="M636.911,85.227s.144,1.589.144,4.024c0,1.034-.017,2.217-.1,3.487-.306,5.455-1.492,12.709-5.3,17.374a1.3,1.3,0,0,1-.188.218,41.545,41.545,0,0,1-4.242,4.534c-5.49,5.006-11.561,7.083-20.263,5.56-11.081-1.942-16.13-10.492-18.264-21.983-2.147-11.456-4.29-19.8-4.29-19.8l.017-.017c1.165-5.839,9.331-14.782,16.715-19.059,5.15-2.976,13.922-4.076,20.459-1.536a13.066,13.066,0,0,1,6.76,5.42l5.036,8.558s-.179-6.6,3.517-7.576S648.572,75.709,636.911,85.227Z" transform="translate(1041.972 180.939)" fill="#f1b5ab"/>
    <path id="Path_35" data-name="Path 35" d="M599.412,51c-.052,0-.1-.017-.149-.017-4.181-.266-3.321,7.3-3.321,7.3a24.248,24.248,0,0,1,5.512,5.207,15.254,15.254,0,0,0,1.248-2.745C604.352,55.844,602.847,51.344,599.412,51Z" transform="translate(1080.54 161.984)" fill="#404040"/>
    <path id="Path_36" data-name="Path 36" d="M614.229,101.147c.144-.375.223-.611.223-.611S614.364,100.772,614.229,101.147Z" transform="translate(1142.307 328.704)" fill="#f1b5ab"/>
    <path id="Path_37" data-name="Path 37" d="M590.222,66.12s-.96-5.25,3.413-5.839S604.218,63.2,604.218,63.2,592.552,62.812,590.222,66.12Z" transform="translate(1061.24 193.058)" fill="#404040"/>
    <path id="Path_38" data-name="Path 38" d="M594.608,62.921a5.7,5.7,0,0,0-6.481,0c-3.43,2.331-3.046,6.769-3.046,6.769a32.269,32.269,0,0,1,5.338-3.893A22.8,22.8,0,0,0,594.608,62.921Z" transform="translate(1044.203 198.719)" fill="#404040"/>
    <path id="Path_39" data-name="Path 39" d="M608.9,105.752a72.4,72.4,0,0,0,8.907-8.619l-8.934,8.637Z" transform="translate(1124.285 317.255)" fill="#5f1d16"/>
    <g id="Group_12" data-name="Group 12" transform="translate(1664.402 409.173)">
      <path id="Path_40" data-name="Path 40" d="M675.083,135.1c-1.763-3.461-4.059-7.921-6.232-12.141-.362-.716-.729-1.405-1.074-2.086-1.558-3.02-3-5.8-4.037-7.843-.153-.271-.292-.528-.406-.768-.44-.86-.79-1.541-1.03-2-.122-.218-.21-.384-.271-.5-.048-.074-.074-.144-.092-.161v-.017l7.934-7.716.921-.886-.1-.092-5.163-4.892c-2.915,4.39-9.409,12.163-21.983,18.9-18.705,10.025-43.062,9.462-43.062,9.462v5.276c0,.026-.017.074-.017.109-.026.179-.074.436-.122.759-1.091,7.917-7.236,58.926-7.236,64.848,0,0,.546,1.257,5.063,2.261,4.43.982,12.678,1.715,28,.768,3.125-.2,6.106-.436,8.947-.742a108.367,108.367,0,0,0,22.332-4.434c11.692-3.862,18.932-9.8,22.162-18.238C685.107,160.6,679.813,144.353,675.083,135.1ZM661.863,109.61l.035-.009-.048.044Z" transform="translate(-593.118 -95.766)" fill="#34327b"/>
      <path id="Path_41" data-name="Path 41" d="M609.737,96l.035-.061Z" transform="translate(-537.208 -95.938)" fill="#5f1d16"/>
      <path id="Path_42" data-name="Path 42" d="M611.138,97.347c-.214.275-.428.515-.079.017C611.509,96.836,611.33,97.111,611.138,97.347Z" transform="translate(-533.381 -92.158)" fill="#5f1d16"/>
    </g>
    <path id="Path_43" data-name="Path 43" d="M608.866,99.152l.052-.044-.026.017Z" transform="translate(1124.265 323.9)" fill="#5f1d16"/>
    <path id="Path_44" data-name="Path 44" d="M619.488,160.579a21.624,21.624,0,0,0-13.446-1.693c-7.515,1.5-15.261,9.06-15.261,9.06h28.708Z" transform="translate(1063.419 523.633)" fill="#263b7f"/>
    <path id="Path_45" data-name="Path 45" d="M638.86,154.914c.489.589-1.589,20.372-3.478,23.611s-8.689,5.669-9.065,7.092,12.652,2.728,16.239,0S653.7,163.634,653.7,163.634l-11.63-11.116Z" transform="translate(1182.947 503.583)" fill="#263b7f"/>
    <path id="Path_47" data-name="Path 47" d="M613.52,87.072c-6.826.354-16.423,7.707-17.933,8.9,1.3-1.37,2.457-7.122,4.159-11.718,2.064-5.678,6.219-13.237,6.04-14.354,0,0,.873.009,2.278.061Z" transform="translate(1079.591 225.634)" fill="#4469ff"/>
    <g id="Group_13" data-name="Group 13" transform="translate(1677.301 247.432)">
      <path id="Path_48" data-name="Path 48" d="M598.03,71a.359.359,0,0,1-.3-.161c-2.933-4.059-1.331-9-.114-11.587l.061-.135a.381.381,0,0,1,.716.257c-.009.026-.039.092-.092.205-1.148,2.435-2.658,7.066.039,10.815a.38.38,0,0,1-.092.537A.317.317,0,0,1,598.03,71Z" transform="translate(-596.073 -58.877)" fill="#983222"/>
    </g>
    <g id="Group_14" data-name="Group 14" transform="translate(1677.38 252.185)">
      <path id="Path_49" data-name="Path 49" d="M597.028,63.936a.38.38,0,0,1-.131-.733c.07-.026,1.619-.607,1.4-1.868-.074-.419-.271-.5-.332-.537a1.835,1.835,0,0,0-1.318.17.379.379,0,0,1-.349-.672,2.558,2.558,0,0,1,2.008-.179,1.429,1.429,0,0,1,.738,1.091,2.621,2.621,0,0,1-1.885,2.71A.329.329,0,0,1,597.028,63.936Z" transform="translate(-596.091 -59.966)" fill="#983222"/>
    </g>
    <g id="Group_28" data-name="Group 28" transform="translate(1639.42 266.961)">
      <path id="Path_61" data-name="Path 61" d="M590.895,82.375a11.786,11.786,0,0,1-3.238-.493.387.387,0,0,1-.253-.458c.009-.035.978-3.727,1.75-7.947.755-4.177.7-6.655-1.676-9.5a.393.393,0,0,1,.052-.532.38.38,0,0,1,.537.044c2.549,3.059,2.61,5.8,1.824,10.129-.633,3.483-1.4,6.6-1.663,7.637a8.29,8.29,0,0,0,5.014-.07,5.194,5.194,0,0,0,2.728-2.422.386.386,0,0,1,.493-.218.374.374,0,0,1,.214.484,5.783,5.783,0,0,1-3.116,2.837A6.619,6.619,0,0,1,590.895,82.375Z" transform="translate(-587.394 -63.352)" fill="#983222"/>
    </g>
    <g id="Group_31" data-name="Group 31" transform="translate(1659.187 374.99)">
      <path id="Path_64" data-name="Path 64" d="M597.64,90.2a14.561,14.561,0,0,1-5.486-1.37.378.378,0,0,1-.2-.493.372.372,0,0,1,.489-.205c3.81,1.6,5.665,1.287,5.691,1.279a.377.377,0,0,1,.14.742A2.923,2.923,0,0,1,597.64,90.2Z" transform="translate(-591.923 -88.105)" fill="#993e3a"/>
    </g>
    <path id="Path_71" data-name="Path 71" d="M590.486,67.632c.833,2.431.563,4.731-.607,5.132s-2.789-1.244-3.622-3.683-.559-4.722.611-5.119S589.657,65.205,590.486,67.632Z" transform="translate(1046.574 205.456)" fill="#1e1724"/>
    <path id="Path_72" data-name="Path 72" d="M595.235,65.8c.838,2.431.563,4.731-.607,5.124s-2.784-1.244-3.618-3.675-.563-4.722.6-5.119S594.4,63.364,595.235,65.8Z" transform="translate(1062.56 199.284)" fill="#1e1724"/>
    <g id="Group_38" data-name="Group 38" transform="translate(1621.195 369.93)">
      <path id="Path_73" data-name="Path 73" d="M626.425,109.108v2.959s-6.044,13.8-10.958,22.288-16.615,16.239-16.615,16.239c-3.012,3.365-6.162,6.878-7.8,5.931a1.9,1.9,0,0,1-.319-.253c-1.506-1.7,1.693-6.044,1.693-6.044l-5.289,2.435s-.751,6.8-2.641,6.25-1.51-9.069,0-11.526,8.873-4.543,8.873-4.543,4.53-9.623,9.636-22.842,8.305-33.055,8.305-33.055l.489.153a34.556,34.556,0,0,0,9.911,5.3c.89.332,1.824.663,2.824.978C624.536,93.379,625.469,100.335,626.425,109.108Z" transform="translate(-583.218 -86.946)" fill="#f1b5ab"/>
    </g>
    <g id="Group_39" data-name="Group 39" transform="translate(1626.377 386.99)">
      <path id="Path_75" data-name="Path 75" d="M825.55,341.615c-25.6,0-41.281-47.919-54.4-99.919C758.472,191.468,738.79,163.14,706.9,128.431c-30.768-33.482-50.948-31-74.144-24.274-21.769,6.315-37.86,33.063-39.44,36.66a4.533,4.533,0,0,1-8.916-1.157c0-4.809,20.136-36.756,45.829-44.205,25.347-7.358,49.115-10.409,83.344,26.84,32.893,35.809,53.213,65.088,66.358,117.18,7.066,28.01,23.493,93.072,45.654,93.072.319,0,.628-.017.947-.035a4.528,4.528,0,1,1,.755,9.025Q826.414,341.615,825.55,341.615Z" transform="translate(-584.405 -90.855)" fill="#a7bcf1"/>
    </g>
    <g id="Group_40" data-name="Group 40" transform="translate(1667.65 274.489)">
      <path id="Path_76" data-name="Path 76" d="M611.59,86.121c.179,1.117-3.976,8.676-6.04,14.354-2.091,5.643-3.373,13.1-5.115,11.884-2.444-1.706-3.2-16.239-3.6-19.905a5.329,5.329,0,0,0-.179-1,7.4,7.4,0,0,0-.563-1.528,13.409,13.409,0,0,0-2.235-3.352,42.759,42.759,0,0,0,4.307-4.626c3.705-4.526,4.853-11.574,5.154-16.868a100.4,100.4,0,0,1,5.106,11.762C610.184,81.543,611.5,85.611,611.59,86.121Z" transform="translate(-593.862 -65.077)" fill="#f1b5ab"/>
      <path id="Path_77" data-name="Path 77" d="M608.43,76.839A38.955,38.955,0,0,1,596.1,89.923a13.409,13.409,0,0,0-2.235-3.352,42.759,42.759,0,0,0,4.307-4.626c3.705-4.526,4.853-11.574,5.154-16.868A100.4,100.4,0,0,1,608.43,76.839Z" transform="translate(-593.862 -65.077)" fill="#f5948d"/>
    </g>
    <g id="Group_41" data-name="Group 41" transform="translate(1734.134 328.016)">
      <path id="Path_78" data-name="Path 78" d="M642.683,173.468c1.314,7.729-1.331,12.844-3.02,12.844-1.013,0-.816-2.021-.5-3.631v-.017c.2-.978.441-1.816.489-1.994-.048.087-.17.305-.349.642l-.013.031c-.969,1.715-3.552,6.027-4.914,5.721-.877-.188-.864-1.423-.615-2.566v-.017a13.642,13.642,0,0,1,.537-1.942c-.118.253-.349.716-.646,1.27-.017.009-.026.026-.026.061-.759,1.327-1.912,2.955-2.85,2.256-.6-.449-.567-1.737-.314-3.129a23.9,23.9,0,0,1,.969-3.587c-.092.223-.192.476-.314.759-.7,1.567-1.82,3.6-2.784,2.736-1.51-1.34,1.117-13.394,1.117-13.394s-4.526,3.387-6.228,1.108a1.579,1.579,0,0,1-.227-1.261c.519-2.693,5.455-7,5.141-7.8-.375-.938-1.706-20.961-4.535-34.556s-1.706-16.994-1.889-17.754c-.166-.663-10.4-6.957-12.613-9.549,0,0,1.846-3.212,3.762-6.978.938-1.833,1.877-3.775,2.627-5.56a45.583,45.583,0,0,1,5.844-9.82c6.608,5.285,18.7,20,18.7,20s2.658,3.225,3.007,15.685-3.369,47.6-3.369,47.6A98.4,98.4,0,0,1,642.683,173.468Z" transform="translate(-609.096 -77.342)" fill="#f1b5ab"/>
    </g>
    <g id="Group_42" data-name="Group 42" transform="translate(1755.497 424.234)">
      <path id="Path_80" data-name="Path 80" d="M613.991,108.824a23.912,23.912,0,0,1,.969-3.587c-.091.223-.192.476-.314.759a27.793,27.793,0,0,0,.89-6.437.2.2,0,0,1,.2-.17c.1.017.2.1.179.2A22.443,22.443,0,0,1,613.991,108.824Z" transform="translate(-613.991 -99.389)" fill="#993e3a"/>
    </g>
    <g id="Group_43" data-name="Group 43" transform="translate(1758.687 427.259)">
      <path id="Path_81" data-name="Path 81" d="M614.831,107.976a13.634,13.634,0,0,1,.537-1.942c-.118.253-.349.716-.646,1.27a43.482,43.482,0,0,0,2.147-7.074.159.159,0,0,1,.214-.14.181.181,0,0,1,.144.205A40.96,40.96,0,0,1,614.831,107.976Z" transform="translate(-614.722 -100.082)" fill="#993e3a"/>
    </g>
    <g id="Group_44" data-name="Group 44" transform="translate(1764.199 426.226)">
      <path id="Path_82" data-name="Path 82" d="M615.985,106.957c.2-.978.441-1.816.489-1.994-.048.087-.17.306-.349.642a18.254,18.254,0,0,0,1.209-5.578.165.165,0,0,1,.2-.179.185.185,0,0,1,.179.179A19.963,19.963,0,0,1,615.985,106.957Z" transform="translate(-615.985 -99.846)" fill="#993e3a"/>
    </g>
    <ellipse id="Ellipse_1" data-name="Ellipse 1" cx="53.892" cy="13.221" rx="53.892" ry="13.221" transform="translate(1868.883 582.037)" fill="#a7bcf1"/>
    <path id="Path_83" data-name="Path 83" d="M677.75,136.721c-18.217,0-32.989,3.631-32.989,8.1s14.773,8.087,32.989,8.087,32.993-3.622,32.993-8.087S695.971,136.721,677.75,136.721Z" transform="translate(1245.023 450.438)" fill="#4469ff"/>
    <path id="Path_84" data-name="Path 84" d="M640.774,168.059c1.362-4.792,5.94-7.69,10.216-6.468s6.642,6.084,5.276,10.876-5.935,7.685-10.212,6.477S639.408,172.86,640.774,168.059Z" transform="translate(1230.31 533.168)" fill="#34327b"/>
    <path id="Path_85" data-name="Path 85" d="M644.55,171.2a2.4,2.4,0,0,1-.746-.109,3.179,3.179,0,0,1-1.925-1.715,5.011,5.011,0,0,1-.236-3.561,4.39,4.39,0,0,1,3.862-3.461,2.849,2.849,0,0,1,.746.1,3.2,3.2,0,0,1,1.92,1.724,5.013,5.013,0,0,1,.24,3.561A4.4,4.4,0,0,1,644.55,171.2Z" transform="translate(1233.804 536.66)" fill="#4469ff"/>
    <path id="Path_96" data-name="Path 96" d="M681.167,101.84l-32.693,71.814-11.367,24.932L580.483,322.976l-9.522,20.9-12.351,1.764,10.506-22.665,57.643-124.389L638.3,173.654,671.176,102.7Z" transform="translate(955.193 333.092)" fill="#34327b"/>
    <path id="Path_97" data-name="Path 97" d="M590.254,159.557l-41.047,14.107,72.023,1.262-6.8-4.9-11.546-12.871Z" transform="translate(923.558 519.176)" fill="#c3c3c3"/>
    <path id="Path_98" data-name="Path 98" d="M549.207,160.936v7.552H621.23V162.2Z" transform="translate(923.558 531.903)" fill="#a09e9e"/>
    <path id="Path_99" data-name="Path 99" d="M595.94,118.3l-11.367,24.932H574.226L585.767,118.3Z" transform="translate(1007.726 388.45)" fill="#263b7f"/>
    <path id="Path_100" data-name="Path 100" d="M580.483,152.51l-9.522,20.9-12.351,1.764,10.506-22.665Z" transform="translate(955.193 503.557)" fill="#263b7f"/>
    <path id="Path_106" data-name="Path 106" d="M658.885,170.559c2.641-9.309,11.522-14.934,19.827-12.573s12.9,11.823,10.251,21.132-11.522,14.926-19.827,12.565S656.24,179.859,658.885,170.559Z" transform="translate(1290.021 520.168)" fill="#34327b"/>
    <path id="Path_107" data-name="Path 107" d="M669.5,184.192a9.732,9.732,0,0,1-2.623-.367,10.22,10.22,0,0,1-6.389-5.582,13.948,13.948,0,0,1-.733-9.946c1.637-5.778,6.411-9.811,11.609-9.811a9.658,9.658,0,0,1,2.619.367,10.268,10.268,0,0,1,6.389,5.564,13.982,13.982,0,0,1,.738,9.955C679.471,180.155,674.7,184.192,669.5,184.192Z" transform="translate(1293.513 523.664)" fill="#4469ff"/>
    <g id="Group_56" data-name="Group 56" transform="translate(1888.523 574.614)">
      <path id="Path_109" data-name="Path 109" d="M704.113,154.492h-7l-2.029-12.726s-27.949-4.015-42.551,1.27l-.51,11.456h-7.55l.842-12.4.428-6.114s38.017-4.788,56.656,0l.428,4.548Z" transform="translate(-644.472 -133.846)" fill="#34327b"/>
      <path id="Path_110" data-name="Path 110" d="M704.113,151.71h-7l-2.029-12.726s-27.949-4.015-42.551,1.27l-.51,11.456h-7.55l.842-12.4a80.53,80.53,0,0,1,29.057-4.6,184.045,184.045,0,0,1,28.455,3.038Z" transform="translate(-644.472 -131.065)" fill="#34327b"/>
    </g>
    <path id="Path_111" data-name="Path 111" d="M545.336,122.981l.5,2.627c-.153-.838-.3-1.68-.458-2.527Z" transform="translate(910.535 404.214)" fill="#a89e9e"/>
    <path id="Path_112" data-name="Path 112" d="M549.653,132.071h-2.929s1.021,0,2.929.009Z" transform="translate(915.208 434.795)" fill="#a89e9e"/>
    <path id="Path_113" data-name="Path 113" d="M634.716,132.18a15.636,15.636,0,0,0,2.287-.109h-2.27C634.725,132.115,634.725,132.145,634.716,132.18Z" transform="translate(1211.23 434.795)" fill="#a89e9e"/>
    <path id="Path_114" data-name="Path 114" d="M649.512,122.372l-.035-.1.026.1Z" transform="translate(1260.889 401.829)" fill="#a89e9e"/>
    <path id="Path_115" data-name="Path 115" d="M637.833,127.138a35.059,35.059,0,0,1,2.121-5.5,27.655,27.655,0,0,0-3.557,7.725l.912-.079C637.475,128.569,637.628,127.854,637.833,127.138Z" transform="translate(1216.885 399.699)" fill="#98d8ea"/>
    <path id="Path_116" data-name="Path 116" d="M648.458,120.1a74.822,74.822,0,0,1,4.447,9.462A31.036,31.036,0,0,0,648.458,120.1Z" transform="translate(1257.461 394.535)" fill="#b9b0b0"/>
  </g>
</svg>
