<svg id="Logo" xmlns="http://www.w3.org/2000/svg" width="219" height="117.352" viewBox="0 0 219 117.352">
  <g id="Group_88" data-name="Group 88" transform="translate(-270 -4.648)" opacity="0.122">
    <g id="Group_85" data-name="Group 85" transform="translate(23.154 -1120)">
      <path id="Path_190" data-name="Path 190" d="M807.912,695.522c5.063-3.527,5.867-3.755,20.254,1.482s22.287-8.865,22.287-8.865,13.168-14.319,22.492,4.542c1.708,5.426-3.293,8.642,6.837,10.472s16.935,11.754,8.4,20.529-19.3,5.473-12.087,20.058.664,17.921-1.524,18.659-6.9,3.131-14.925-2.432-15.343-2.653-21.982,3.188-20.835,18.187-20.835,18.187-11.959,7.19-16.011-6.1c1.273-13.933,17.116-23.144,18.888-39.178s-5.371-19.057-11.8-24.959S802.848,699.048,807.912,695.522Z" transform="translate(-549.202 441.715)" fill="#4469ff"/>
    </g>
    <circle id="Ellipse_6" data-name="Ellipse 6" cx="6" cy="6" r="6" transform="translate(270 49)" fill="#4469ff"/>
    <circle id="Ellipse_7" data-name="Ellipse 7" cx="3.5" cy="3.5" r="3.5" transform="translate(301 5)" fill="#4469ff"/>
    <circle id="Ellipse_8" data-name="Ellipse 8" cx="3.5" cy="3.5" r="3.5" transform="translate(363 9)" fill="#4469ff"/>
  </g>
  <text id="Jenny_s_Cleaning_Services" data-name="Jenny’s
Cleaning Services" transform="translate(40 76.352)" fill="#34327b" font-size="54" font-family="Courgette-Regular, Courgette"><tspan x="0" y="0">Jenny’s</tspan><tspan fill="#8689a8" font-size="20" font-family="Poppins-Regular, Poppins"><tspan x="0" y="34">Cleaning Services</tspan></tspan></text>
</svg>
