<svg xmlns="http://www.w3.org/2000/svg" width="220.34" height="113.35" viewBox="0 0 220.34 113.35">
  <g id="Group_191" data-name="Group 191" transform="translate(-416.396 -560.176)">
    <g id="Group_88" data-name="Group 88" opacity="0.122">
      <g id="Group_85" data-name="Group 85">
        <path id="Path_190" data-name="Path 190" d="M431.1,574.4c7.089-3.984,8.214-4.241,28.356,1.673s31.2-10.013,31.2-10.013,18.436-16.174,31.491,5.131c2.391,6.129-4.61,9.762,9.573,11.829s23.71,13.276,11.764,23.188-27.026,6.182-16.922,22.657.929,20.243-2.134,21.076-9.666,3.536-20.9-2.747-21.48-3-30.776,3.6-29.171,20.543-29.171,20.543-16.744,8.121-22.417-6.886c1.782-15.738,23.963-26.142,26.445-44.253S440.087,598.668,431.09,592,424.008,578.379,431.1,574.4Z" fill="#4469ff"/>
      </g>
      <circle id="Ellipse_6" data-name="Ellipse 6" cx="6" cy="6" r="6" transform="translate(416.396 615.528)" fill="#4469ff"/>
      <circle id="Ellipse_7" data-name="Ellipse 7" cx="3.5" cy="3.5" r="3.5" transform="translate(459.396 564.528)" fill="#4469ff"/>
      <circle id="Ellipse_8" data-name="Ellipse 8" cx="3.5" cy="3.5" r="3.5" transform="translate(546.396 568.528)" fill="#4469ff"/>
    </g>
    <g id="Group_189" data-name="Group 189" style="isolation: isolate">
      <g id="Path_370" data-name="Path 370" fill="#315add" stroke-miterlimit="10">
        <path d="M 458.2770080566406 650.7930297851562 C 456.9241333007812 650.7930297851562 455.88330078125 650.375732421875 455.183349609375 649.5527954101562 L 455.1622619628906 649.5280151367188 L 455.1422729492188 649.5023193359375 C 454.8150024414062 649.081787109375 454.6419982910156 648.5716552734375 454.6419982910156 648.0269775390625 C 454.6419982910156 647.4737548828125 454.83740234375 646.1198120117188 456.6426696777344 645.462646484375 C 461.1431884765625 643.7059326171875 465.8021240234375 638.0966796875 470.4903564453125 628.7901611328125 C 474.2574768066406 621.3247680664062 477.2536010742188 613.3526000976562 479.3960571289062 605.0943603515625 C 480.0633544921875 602.5167846679688 480.4647521972656 600.5228881835938 480.5940246582031 599.1466674804688 C 479.1781005859375 599.5698852539062 477.0646362304688 600.8018798828125 474.0247802734375 603.842529296875 C 473.3878173828125 604.4758911132812 472.6161193847656 604.8090209960938 471.7900085449219 604.8090209960938 C 471.1578063964844 604.8090209960938 470.5339965820312 604.6798095703125 469.9359130859375 604.4249267578125 C 469.3989562988281 604.1973876953125 468.9016418457031 603.8946533203125 468.4600830078125 603.5260620117188 C 467.3041381835938 602.6197509765625 466.7179870605469 601.5933227539062 466.7179870605469 600.4749755859375 C 466.7179870605469 599.5056762695312 467.021484375 598.6057739257812 467.6200561523438 597.80029296875 C 468.1112976074219 597.1392822265625 468.7653503417969 596.5029907226562 469.5640563964844 595.9091796875 C 470.3219604492188 595.3457641601562 471.1907348632812 594.8228759765625 472.1462707519531 594.3549194335938 C 473.0826110839844 593.8967895507812 474.0709533691406 593.4871826171875 475.0843200683594 593.1371459960938 L 475.0903015136719 593.1351318359375 L 475.0963134765625 593.133056640625 C 477.3118286132812 592.3887939453125 479.0074462890625 592.0269775390625 480.2799987792969 592.0269775390625 C 481.4754638671875 592.0269775390625 482.4980163574219 592.0979614257812 483.4061584472656 592.2440185546875 C 484.3392944335938 592.3920288085938 485.2532348632812 592.6509399414062 486.1194458007812 593.0130004882812 L 486.1280822753906 593.0166015625 L 486.1366882324219 593.0203247070312 C 489.150390625 594.324462890625 489.7829895019531 596.3382568359375 489.7829895019531 597.7979736328125 C 489.7829895019531 600.597412109375 488.9535827636719 604.8634033203125 487.2473754882812 610.8397827148438 C 485.4732360839844 617.0128784179688 483.1174926757812 623.1355590820312 480.2448425292969 629.0402221679688 L 480.2412719726562 629.0474853515625 L 480.2376403808594 629.0548095703125 C 478.1530151367188 633.2240600585938 475.9749755859375 636.8652954101562 473.7640991210938 639.8773193359375 C 471.5234680175781 642.9298706054688 469.1803588867188 645.4295043945312 466.7998657226562 647.3068237304688 C 463.869140625 649.6199951171875 461.00146484375 650.7930297851562 458.2770080566406 650.7930297851562 Z" stroke="none"/>
        <path d="M 458.2770080566406 649.2930297851562 C 460.6679992675781 649.2930297851562 463.1990051269531 648.2379760742188 465.8710021972656 646.1290283203125 C 470.4410095214844 642.5250244140625 474.7829895019531 636.6099853515625 478.89599609375 628.3839721679688 C 481.7439880371094 622.530029296875 484.0469970703125 616.5449829101562 485.8049926757812 610.427978515625 C 487.4559936523438 604.64501953125 488.2829895019531 600.4349975585938 488.2829895019531 597.7979736328125 C 488.2829895019531 596.322021484375 487.3689880371094 595.18798828125 485.5409851074219 594.39697265625 C 484.7850036621094 594.0809936523438 483.9939880371094 593.8560180664062 483.1679992675781 593.7249755859375 C 482.3410034179688 593.5919799804688 481.3789978027344 593.5269775390625 480.2799987792969 593.5269775390625 C 479.1820068359375 593.5269775390625 477.6130065917969 593.8699951171875 475.5740051269531 594.5549926757812 C 474.6069946289062 594.8889770507812 473.6849975585938 595.27197265625 472.8059997558594 595.7020263671875 C 471.9259948730469 596.1329956054688 471.1449890136719 596.60302734375 470.4590148925781 597.1129760742188 C 469.7730102539062 597.6229858398438 469.22900390625 598.1500244140625 468.8240051269531 598.6950073242188 C 468.4190063476562 599.239990234375 468.2179870605469 599.8330078125 468.2179870605469 600.4749755859375 C 468.2179870605469 601.1170043945312 468.6130065917969 601.7449951171875 469.4039916992188 602.3599853515625 C 469.7369995117188 602.6409912109375 470.1109924316406 602.8699951171875 470.5239868164062 603.0449829101562 C 470.93701171875 603.2210083007812 471.3590087890625 603.3090209960938 471.7900085449219 603.3090209960938 C 472.2210083007812 603.3090209960938 472.6109924316406 603.1329956054688 472.9639892578125 602.781982421875 C 476.5140075683594 599.2310180664062 479.4500122070312 597.4559936523438 481.77099609375 597.4559936523438 C 482.0169982910156 597.4559936523438 482.1400146484375 597.72802734375 482.1400146484375 598.2730102539062 C 482.1400146484375 599.75 481.7080078125 602.1489868164062 480.8479919433594 605.4710083007812 C 478.6679992675781 613.8740234375 475.6619873046875 621.8709716796875 471.8299865722656 629.4650268554688 C 466.9419860839844 639.1680297851562 462.0570068359375 644.968994140625 457.1700134277344 646.8670043945312 C 456.4840087890625 647.1129760742188 456.1419982910156 647.5 456.1419982910156 648.0269775390625 C 456.1419982910156 648.2379760742188 456.2030029296875 648.4229736328125 456.3259887695312 648.5809936523438 C 456.7300109863281 649.0560302734375 457.3810119628906 649.2930297851562 458.2770080566406 649.2930297851562 M 458.2770080566406 652.2930297851562 C 456.0187683105469 652.2930297851562 454.7268371582031 651.3313598632812 454.0407104492188 650.5245971679688 L 453.99853515625 650.4749755859375 L 453.9585571289062 650.4236450195312 C 453.4243469238281 649.7372436523438 453.1419982910156 648.9085083007812 453.1419982910156 648.0269775390625 C 453.1419982910156 646.2242431640625 454.2507934570312 644.7445068359375 456.1111755371094 644.0598754882812 C 458.0606384277344 643.2948608398438 460.1107482910156 641.6465454101562 462.2051696777344 639.16015625 C 464.4859619140625 636.4525146484375 466.8227844238281 632.7364501953125 469.1507263183594 628.1153564453125 C 472.8702087402344 620.7443237304688 475.8284301757812 612.872802734375 477.9441223144531 604.7176513671875 C 478.235595703125 603.5917358398438 478.4591674804688 602.641845703125 478.6295166015625 601.8406372070312 C 477.6815795898438 602.50390625 476.510498046875 603.4777221679688 475.0856018066406 604.9030151367188 L 475.0824584960938 604.9061279296875 L 475.0793151855469 604.9093017578125 C 474.1584167480469 605.8250122070312 473.02099609375 606.3090209960938 471.7900085449219 606.3090209960938 C 470.9544982910156 606.3090209960938 470.1328125 606.1393432617188 469.3477478027344 605.8047485351562 C 468.6811828613281 605.5216674804688 468.0652770996094 605.1474609375 467.5162658691406 604.6920776367188 C 465.6181640625 603.1954345703125 465.2179870605469 601.5748901367188 465.2179870605469 600.4749755859375 C 465.2179870605469 599.194580078125 465.6322937011719 597.9603271484375 466.4161071777344 596.9055786132812 C 466.9947509765625 596.126953125 467.7527770996094 595.38671875 468.6690979003906 594.7054443359375 C 469.5007934570312 594.0872192382812 470.4486694335938 593.5160522460938 471.4865417480469 593.0077514648438 C 472.4781799316406 592.5225830078125 473.5235595703125 592.0892944335938 474.5946350097656 591.7193603515625 L 474.6066284179688 591.7152099609375 L 474.6186218261719 591.711181640625 C 476.9905700683594 590.914306640625 478.8424072265625 590.5269775390625 480.2799987792969 590.5269775390625 C 481.5561828613281 590.5269775390625 482.6566772460938 590.6041870117188 483.6443481445312 590.7630615234375 C 484.6962280273438 590.930419921875 485.7236022949219 591.2218017578125 486.6979370117188 591.6290283203125 L 486.7152099609375 591.6362915039062 L 486.7323913574219 591.6436767578125 C 490.6918029785156 593.3569946289062 491.2829895019531 596.2349243164062 491.2829895019531 597.7979736328125 C 491.2829895019531 600.7386474609375 490.4347229003906 605.1393432617188 488.6897277832031 611.2515258789062 L 488.6889953613281 611.2540893554688 L 488.6882934570312 611.256591796875 C 486.8910217285156 617.5101928710938 484.5040588378906 623.7142333984375 481.5936889648438 629.6964111328125 L 481.5865478515625 629.7110595703125 L 481.5792846679688 629.7256469726562 C 479.4568176269531 633.9705200195312 477.2342529296875 637.6846923828125 474.9732971191406 640.764892578125 C 472.6527404785156 643.9263916015625 470.2153015136719 646.523681640625 467.7286987304688 648.484619140625 C 464.5272827148438 651.011474609375 461.3469543457031 652.2930297851562 458.2770080566406 652.2930297851562 Z" stroke="none" fill="#fff"/>
      </g>
      <g id="Path_371" data-name="Path 371" fill="#315add" stroke-miterlimit="10">
        <path d="M 497.4849853515625 636.291015625 C 494.5036315917969 636.291015625 492.0553588867188 635.3645629882812 490.2081604003906 633.5374755859375 L 490.2052307128906 633.5345458984375 L 490.2023315429688 633.5316772460938 C 488.1469116210938 631.4762573242188 487.1653442382812 628.6888427734375 487.2848815917969 625.2469482421875 L 487.2851867675781 625.2386474609375 L 487.2855529785156 625.2304077148438 C 487.3611450195312 623.5798950195312 487.6412658691406 621.9741821289062 488.1181030273438 620.4579467773438 C 488.5830688476562 618.9760131835938 489.218994140625 617.5135498046875 490.0079040527344 616.1121826171875 C 490.7940673828125 614.7205810546875 491.7225952148438 613.3915405273438 492.7687683105469 612.159912109375 C 493.8279113769531 610.9130249023438 494.9949951171875 609.8038330078125 496.2376098632812 608.8630981445312 L 496.2408752441406 608.8606567382812 L 496.244140625 608.858154296875 C 499.0101013183594 606.7877807617188 501.8762817382812 605.7379760742188 504.7630004882812 605.7379760742188 C 509.3196105957031 605.7379760742188 511.3013916015625 608.2638549804688 512.1615600585938 610.38623046875 C 512.5884399414062 611.412353515625 512.7947998046875 612.6181030273438 512.7748413085938 613.9701538085938 C 512.7550048828125 615.3135986328125 512.4918823242188 616.580078125 511.9927978515625 617.7343139648438 C 511.5038146972656 618.8641967773438 510.8191833496094 619.9039916992188 509.9577331542969 620.825439453125 C 509.1256103515625 621.7176513671875 508.125 622.5263061523438 506.9849548339844 623.2276000976562 C 505.8763427734375 623.9102172851562 504.6530456542969 624.4962768554688 503.3495178222656 624.9691162109375 L 503.3428955078125 624.9714965820312 L 503.3362426757812 624.973876953125 C 501.0960693359375 625.7627563476562 498.697998046875 626.2349243164062 496.1901550292969 626.3822021484375 C 496.2018127441406 626.6845703125 496.2450256347656 627.021728515625 496.3192138671875 627.3885498046875 C 496.40478515625 627.8128662109375 496.5498046875 628.1891479492188 496.75048828125 628.5079956054688 L 496.7588195800781 628.5213012695312 L 496.7669067382812 628.5347290039062 C 497.1313171386719 629.1414794921875 497.553466796875 629.3889770507812 498.2239990234375 629.3889770507812 C 499.99365234375 629.3889770507812 501.68505859375 628.8756713867188 503.3948364257812 627.8197631835938 L 503.4071350097656 627.8121948242188 L 503.4195556640625 627.8048095703125 C 503.9947204589844 627.4647216796875 504.4575805664062 627.12109375 504.7953186035156 626.7833251953125 C 505.5263671875 626.0523681640625 506.2402954101562 625.697021484375 506.9779968261719 625.697021484375 C 507.4631042480469 625.697021484375 508.3807678222656 625.8615112304688 509.0763549804688 626.963134765625 L 509.0780944824219 626.9659423828125 L 509.0798645019531 626.96875 C 509.4674682617188 627.588623046875 509.6640014648438 628.2864990234375 509.6640014648438 629.0430297851562 C 509.6640014648438 630.3077392578125 509.2933959960938 631.4314575195312 508.5624694824219 632.3828125 L 508.5028686523438 632.46044921875 L 508.4336547851562 632.5296630859375 C 505.9378356933594 635.0255126953125 502.2541809082031 636.291015625 497.4849853515625 636.291015625 Z M 500.104248046875 615.373779296875 C 499.1510925292969 616.8159790039062 498.3192138671875 618.4713134765625 497.6196899414062 620.3152465820312 C 499.2337036132812 619.8076782226562 500.6781005859375 618.9492797851562 501.9921264648438 617.7223510742188 C 503.6576538085938 616.1298217773438 504.5020141601562 614.6605224609375 504.5020141601562 613.35498046875 C 504.5020141601562 612.5858154296875 504.3554382324219 612.3141479492188 504.3179626464844 612.2573852539062 C 504.2976684570312 612.25244140625 504.2553100585938 612.2449951171875 504.1830139160156 612.2449951171875 C 502.8758544921875 612.2449951171875 501.5035705566406 613.2977294921875 500.104248046875 615.373779296875 Z" stroke="none"/>
        <path d="M 497.4849853515625 634.791015625 C 501.8619995117188 634.791015625 505.1579895019531 633.6840209960938 507.3729858398438 631.468994140625 C 507.8999938964844 630.7830200195312 508.1640014648438 629.9749755859375 508.1640014648438 629.0430297851562 C 508.1640014648438 628.5679931640625 508.0450134277344 628.1430053710938 507.8080139160156 627.7639770507812 C 507.5700073242188 627.3870239257812 507.2940063476562 627.197021484375 506.9779968261719 627.197021484375 C 506.6610107421875 627.197021484375 506.2869873046875 627.4130249023438 505.8559875488281 627.843994140625 C 505.4259948730469 628.2739868164062 504.8680114746094 628.6909790039062 504.1830139160156 629.0960083007812 C 502.2479858398438 630.291015625 500.2630004882812 630.8889770507812 498.2239990234375 630.8889770507812 C 497.0270080566406 630.8889770507812 496.114013671875 630.3610229492188 495.4809875488281 629.3070068359375 C 495.1820068359375 628.8319702148438 494.9710083007812 628.291015625 494.8489990234375 627.6859741210938 C 494.7260131835938 627.0780029296875 494.6730041503906 626.5289916992188 494.6900024414062 626.0369873046875 C 494.7070007324219 625.5449829101562 494.7520141601562 625.176025390625 494.8219909667969 624.9299926757812 C 497.6700134277344 624.89501953125 500.3420104980469 624.43798828125 502.8380126953125 623.5590209960938 C 504.0509948730469 623.1190185546875 505.1709899902344 622.5830078125 506.1990051269531 621.9500122070312 C 507.2279968261719 621.3170166015625 508.114990234375 620.6019897460938 508.8619995117188 619.801025390625 C 509.6090087890625 619.0020141601562 510.1940002441406 618.114013671875 510.6159973144531 617.1389770507812 C 511.0379943847656 616.1630249023438 511.2579956054688 615.0999755859375 511.2749938964844 613.947998046875 C 511.2919921875 612.7969970703125 511.1260070800781 611.7990112304688 510.7739868164062 610.9559936523438 C 509.7720031738281 608.4769897460938 507.7690124511719 607.2379760742188 504.7630004882812 607.2379760742188 C 502.1950073242188 607.2379760742188 499.656005859375 608.177978515625 497.1430053710938 610.0590209960938 C 495.9819946289062 610.93798828125 494.9049987792969 611.9619750976562 493.9119873046875 613.1309814453125 C 492.9190063476562 614.2999877929688 492.0539855957031 615.5399780273438 491.3150024414062 616.8480224609375 C 490.5769958496094 618.1589965820312 489.9869995117188 619.5120239257812 489.5490112304688 620.9080200195312 C 489.1090087890625 622.3070068359375 488.85400390625 623.77001953125 488.7839965820312 625.2990112304688 C 488.6789855957031 628.322021484375 489.5050048828125 630.7130126953125 491.2630004882812 632.4710083007812 C 492.8269958496094 634.0180053710938 494.9010009765625 634.791015625 497.4849853515625 634.791015625 M 504.1830139160156 610.7449951171875 C 505.39599609375 610.7449951171875 506.0020141601562 611.614990234375 506.0020141601562 613.35498046875 C 506.0020141601562 615.094970703125 505.0090026855469 616.9149780273438 503.0220031738281 618.81298828125 C 500.8599853515625 620.833984375 498.31201171875 621.9940185546875 495.3760070800781 622.2930297851562 C 496.2550048828125 619.3049926757812 497.4150085449219 616.7210083007812 498.8559875488281 614.5419921875 C 500.5610046386719 612.010009765625 502.3370056152344 610.7449951171875 504.1830139160156 610.7449951171875 M 497.4849853515625 637.791015625 C 494.0945434570312 637.791015625 491.2913513183594 636.7186889648438 489.1532897949219 634.6038818359375 L 489.1474609375 634.59814453125 L 489.1416625976562 634.5923461914062 C 486.7803039550781 632.23095703125 485.6512145996094 629.0691528320312 485.7857971191406 625.1948852539062 L 485.786376953125 625.1783447265625 L 485.7871398925781 625.1618041992188 C 485.86865234375 623.3817749023438 486.1714782714844 621.6477661132812 486.6871948242188 620.0079345703125 C 487.1830749511719 618.4275512695312 487.8607482910156 616.8685302734375 488.7007751464844 615.3763427734375 C 489.5346984863281 613.9002685546875 490.5179748535156 612.49267578125 491.6255187988281 611.1888427734375 C 492.7553405761719 609.8587036132812 494.00244140625 608.6738891601562 495.3322143554688 607.6671752929688 L 495.3387145996094 607.6622314453125 L 495.3452758789062 607.6573486328125 C 498.37646484375 605.388427734375 501.5450439453125 604.2379760742188 504.7630004882812 604.2379760742188 C 506.8248596191406 604.2379760742188 508.619873046875 604.7015991210938 510.09814453125 605.615966796875 C 511.6449890136719 606.5728149414062 512.8059692382812 607.9857788085938 513.549072265625 609.816162109375 C 514.0535278320312 611.0315551757812 514.2976684570312 612.4364013671875 514.274658203125 613.9923095703125 C 514.2518920898438 615.5340576171875 513.9473876953125 616.9933471679688 513.36962890625 618.3296508789062 C 512.8118286132812 619.6183471679688 512.03271484375 620.8023681640625 511.0534362792969 621.849853515625 C 510.1936340332031 622.7717895507812 509.1752014160156 623.6112060546875 508.0249938964844 624.345947265625 C 508.9514465332031 624.6163330078125 509.7660827636719 625.2459716796875 510.3446960449219 626.162353515625 L 510.3482055664062 626.1679077148438 L 510.3516845703125 626.1734619140625 C 510.8906860351562 627.0354614257812 511.1640014648438 628.0009765625 511.1640014648438 629.0430297851562 C 511.1640014648438 630.6459350585938 510.6889343261719 632.0770874023438 509.7519836425781 633.2966918945312 L 509.6327209472656 633.451904296875 L 509.4943237304688 633.5902709960938 C 506.7069702148438 636.377685546875 502.6664428710938 637.791015625 497.4849853515625 637.791015625 Z M 498.1380920410156 627.8847045898438 C 498.1571655273438 627.8869018554688 498.1853332519531 627.8889770507812 498.2239990234375 627.8889770507812 C 499.4109802246094 627.8889770507812 500.5663452148438 627.6070556640625 501.73193359375 627.0303344726562 C 500.5311889648438 627.3424072265625 499.2950744628906 627.57421875 498.02978515625 627.724609375 L 498.0366516113281 627.7355346679688 L 498.0527954101562 627.7623901367188 C 498.0901794433594 627.8246459960938 498.1195678710938 627.863037109375 498.1380920410156 627.8847045898438 Z M 501.3510131835938 616.2078247070312 C 501.3262634277344 616.245361328125 501.3016357421875 616.2828979492188 501.2770385742188 616.3207397460938 C 501.8362121582031 615.7498168945312 502.2681579589844 615.2030029296875 502.5599365234375 614.700927734375 C 502.1679382324219 615.0960693359375 501.7581481933594 615.6043701171875 501.3510131835938 616.2078247070312 Z" stroke="none" fill="#fff"/>
      </g>
      <g id="Path_372" data-name="Path 372" fill="#315add" stroke-miterlimit="10">
        <path d="M 534.18798828125 636.291015625 C 533.123291015625 636.291015625 532.2417602539062 636.1717529296875 531.4929809570312 635.9263916015625 C 530.7055053710938 635.6683959960938 529.995361328125 635.25146484375 529.3819580078125 634.68701171875 C 528.0244140625 633.4639282226562 527.3359985351562 631.7780151367188 527.3359985351562 629.676025390625 C 527.3359985351562 627.415771484375 528.0038452148438 624.724609375 529.377685546875 621.4488525390625 L 529.384033203125 621.4337768554688 L 529.3906860351562 621.4188842773438 C 530.3168334960938 619.3388671875 530.9896240234375 617.876708984375 531.3906860351562 617.072509765625 L 532.2822875976562 615.2117919921875 L 532.283447265625 615.2094116210938 L 532.2846069335938 615.2069702148438 C 532.5645751953125 614.6279907226562 532.7284545898438 614.1939697265625 532.82373046875 613.8761596679688 C 532.607177734375 614.0269775390625 532.2630004882812 614.3084716796875 531.7647094726562 614.828125 C 530.7955322265625 615.83984375 529.93798828125 616.7792358398438 529.2161254882812 617.619873046875 L 526.9963989257812 620.283447265625 L 522.769775390625 625.6702880859375 C 521.806884765625 627.4988403320312 521.0341796875 629.0542602539062 520.4724731445312 630.2947998046875 L 520.46923828125 630.3018798828125 L 520.4660034179688 630.3088989257812 L 519.04296875 633.3668823242188 L 519.0367431640625 633.3801879882812 L 519.0302734375 633.3934326171875 C 518.5909423828125 634.2910766601562 518.2140502929688 634.9042358398438 517.8442993164062 635.3229370117188 L 517.8426513671875 635.3247680664062 L 517.8410034179688 635.32666015625 C 517.2800903320312 635.95751953125 516.5093383789062 636.291015625 515.6119995117188 636.291015625 C 514.964599609375 636.291015625 514.3307495117188 636.1730346679688 513.7279052734375 635.9404296875 C 513.1487426757812 635.716064453125 512.6317138671875 635.41650390625 512.1892700195312 635.0494384765625 L 512.1846923828125 635.0457153320312 L 512.1802368164062 635.0419311523438 C 510.9121704101562 633.9730224609375 510.64599609375 632.8244018554688 510.64599609375 632.0490112304688 C 510.64599609375 631.5191650390625 510.8575744628906 630.878173828125 511.3757629394531 629.8394165039062 L 512.3699951171875 627.719970703125 L 512.3779907226562 627.7030029296875 L 512.3863525390625 627.6862182617188 C 512.6848754882812 627.0891723632812 513.0431518554688 626.3040771484375 513.4513549804688 625.3526000976562 L 514.9210205078125 621.7576293945312 C 517.5327758789062 615.224365234375 517.9229736328125 613.011474609375 517.9229736328125 612.2739868164062 C 517.9229736328125 611.85009765625 517.8131103515625 611.7424926757812 517.7552490234375 611.6983032226562 L 517.2447509765625 611.3414916992188 C 516.9052124023438 611.1029052734375 516.3410034179688 610.5451049804688 516.3410034179688 609.4650268554688 C 516.3410034179688 608.8048095703125 516.5859375 608.1654052734375 517.04931640625 607.615966796875 C 517.4069213867188 607.1923828125 517.8662109375 606.826171875 518.4149780273438 606.5269775390625 L 518.4327392578125 606.517333984375 L 518.4507446289062 606.5081176757812 C 519.4513549804688 605.9970703125 520.4837036132812 605.7379760742188 521.5189819335938 605.7379760742188 C 522.5182495117188 605.7379760742188 523.3076782226562 605.8587646484375 523.9323120117188 606.107177734375 L 523.934814453125 606.108154296875 L 523.9373779296875 606.1091918945312 C 524.5553588867188 606.3575439453125 525.0911254882812 606.7033081054688 525.530029296875 607.1368408203125 C 526.4795532226562 608.041748046875 526.9609985351562 609.0513916015625 526.9609985351562 610.1380004882812 C 526.9609985351562 610.4215698242188 526.9480590820312 610.70703125 526.9223022460938 610.9932861328125 L 526.9248046875 610.9903564453125 L 526.9310913085938 610.9830322265625 C 528.38671875 609.2811889648438 529.5313720703125 608.1652221679688 530.4300537109375 607.5718383789062 C 532.2861938476562 606.3207397460938 533.7235107421875 605.7379760742188 534.9530029296875 605.7379760742188 C 536.03857421875 605.7379760742188 536.951171875 605.880859375 537.7429809570312 606.1747436523438 C 538.537109375 606.4691772460938 539.24462890625 606.8992919921875 539.845458984375 607.4529418945312 L 539.8475341796875 607.4548950195312 L 539.8496704101562 607.4568481445312 C 541.1298828125 608.6455688476562 541.7789916992188 610.1687622070312 541.7789916992188 611.9840087890625 C 541.7789916992188 613.5673828125 541.4205322265625 615.2259521484375 540.7135009765625 616.91357421875 C 540.0726928710938 618.4442749023438 539.5050048828125 619.7108154296875 539.0262451171875 620.6776123046875 C 538.56787109375 621.6031494140625 538.1305541992188 622.543212890625 537.726318359375 623.4717407226562 L 537.7228393554688 623.479736328125 L 537.7192993164062 623.4876708984375 C 536.5134887695312 626.171630859375 536.0604858398438 627.7513427734375 535.9234619140625 628.6748046875 C 536.3682250976562 628.6591796875 536.760009765625 628.5599975585938 537.1177978515625 628.3728637695312 C 538.0213012695312 627.9024658203125 538.5272216796875 627.72802734375 538.9869995117188 627.72802734375 C 540.1771850585938 627.72802734375 541.041015625 628.5914306640625 541.041015625 629.781005859375 C 541.041015625 631.2182006835938 540.5084228515625 633.2828369140625 537.9729614257812 634.9588623046875 C 536.6556396484375 635.8428344726562 535.3822631835938 636.291015625 534.18798828125 636.291015625 Z" stroke="none"/>
        <path d="M 521.5189819335938 607.2379760742188 C 520.718994140625 607.2379760742188 519.9240112304688 607.4400024414062 519.1329956054688 607.843994140625 C 518.7459716796875 608.0549926757812 518.4340209960938 608.301025390625 518.1959838867188 608.5830078125 C 517.958984375 608.864013671875 517.8410034179688 609.1589965820312 517.8410034179688 609.4650268554688 C 517.8410034179688 609.7739868164062 517.9290161132812 609.989013671875 518.10400390625 610.1119995117188 L 518.6320190429688 610.4810180664062 C 519.1589965820312 610.8679809570312 519.4229736328125 611.4650268554688 519.4229736328125 612.2739868164062 C 519.4229736328125 613.7860107421875 518.385009765625 617.1339721679688 516.31201171875 622.3189697265625 L 514.8350219726562 625.9320068359375 C 514.4130249023438 626.916015625 514.0440063476562 627.7249755859375 513.72802734375 628.3569946289062 L 512.7260131835938 630.4929809570312 C 512.3389892578125 631.2670288085938 512.14599609375 631.7849731445312 512.14599609375 632.0490112304688 C 512.14599609375 632.7169799804688 512.47900390625 633.3319702148438 513.14697265625 633.89501953125 C 513.4639892578125 634.1580200195312 513.8369750976562 634.3740234375 514.2680053710938 634.541015625 C 514.697998046875 634.7069702148438 515.14599609375 634.791015625 515.6119995117188 634.791015625 C 516.0780029296875 634.791015625 516.447021484375 634.6370239257812 516.719970703125 634.3300170898438 C 516.9920043945312 634.02197265625 517.31298828125 633.489990234375 517.6829833984375 632.7340087890625 L 519.1060180664062 629.676025390625 C 519.68701171875 628.3930053710938 520.4860229492188 626.7839965820312 521.5059814453125 624.8510131835938 L 525.8300170898438 619.3400268554688 L 528.0709838867188 616.6510009765625 C 528.8099975585938 615.7899780273438 529.6799926757812 614.8359985351562 530.6820068359375 613.7899780273438 C 531.6840209960938 612.7449951171875 532.4569702148438 612.2210083007812 533.0020141601562 612.2210083007812 C 533.968017578125 612.2210083007812 534.4520263671875 612.5460205078125 534.4520263671875 613.197021484375 C 534.4520263671875 613.8469848632812 534.1790161132812 614.7349853515625 533.635009765625 615.8599853515625 L 532.7379760742188 617.7319946289062 C 532.3519897460938 618.5050048828125 531.6920166015625 619.93798828125 530.760986328125 622.0289916992188 C 529.47802734375 625.0880126953125 528.8359985351562 627.6370239257812 528.8359985351562 629.676025390625 C 528.8359985351562 631.3460083007812 529.35400390625 632.64599609375 530.3920288085938 633.5780029296875 C 530.8489990234375 634 531.3709716796875 634.3079833984375 531.9600219726562 634.5009765625 C 532.5490112304688 634.6939697265625 533.2919921875 634.791015625 534.18798828125 634.791015625 C 535.0850219726562 634.791015625 536.0689697265625 634.4310302734375 537.1420288085938 633.7100219726562 C 538.739990234375 632.655029296875 539.541015625 631.3460083007812 539.541015625 629.781005859375 C 539.541015625 629.4119873046875 539.3560180664062 629.22802734375 538.9869995117188 629.22802734375 C 538.81201171875 629.22802734375 538.4199829101562 629.385986328125 537.81298828125 629.7020263671875 C 537.2069702148438 630.0189819335938 536.5349731445312 630.177001953125 535.7969970703125 630.177001953125 C 534.8480224609375 630.177001953125 534.3729858398438 629.8779907226562 534.3729858398438 629.280029296875 C 534.3729858398438 627.9439697265625 535.031982421875 625.8090209960938 536.3510131835938 622.8729858398438 C 536.77197265625 621.906005859375 537.2160034179688 620.9530029296875 537.6820068359375 620.0120239257812 C 538.14697265625 619.072998046875 538.697021484375 617.8460083007812 539.3300170898438 616.333984375 C 539.9630126953125 614.822998046875 540.2789916992188 613.3729858398438 540.2789916992188 611.9840087890625 C 540.2789916992188 610.594970703125 539.7949829101562 609.4530029296875 538.8289794921875 608.5560302734375 C 538.3709716796875 608.1339721679688 537.8359985351562 607.8090209960938 537.2210083007812 607.5809936523438 C 536.60400390625 607.3519897460938 535.8499755859375 607.2379760742188 534.9530029296875 607.2379760742188 C 534.0570068359375 607.2379760742188 532.8259887695312 607.7650146484375 531.2620239257812 608.8200073242188 C 530.4869995117188 609.3300170898438 529.4249877929688 610.375 528.0709838867188 611.9580078125 L 526.2260131835938 614.1719970703125 C 525.6090087890625 614.9459838867188 524.3270263671875 616.6859741210938 522.3759765625 619.3930053710938 C 522.3568725585938 619.4219970703125 522.3455200195312 619.4364624023438 522.3419799804688 619.4364624023438 C 522.3325805664062 619.4364624023438 522.3785400390625 619.333984375 522.4810180664062 619.1290283203125 L 523.0089721679688 617.9959716796875 C 523.2360229492188 617.5029907226562 523.4920043945312 616.9229736328125 523.7730102539062 616.2550048828125 C 524.0540161132812 615.5869750976562 524.322021484375 614.906982421875 524.5770263671875 614.2109985351562 C 524.8319702148438 613.5180053710938 525.0430297851562 612.8330078125 525.2100219726562 612.155029296875 C 525.3770141601562 611.47900390625 525.4609985351562 610.8060302734375 525.4609985351562 610.1380004882812 C 525.4609985351562 609.469970703125 525.135009765625 608.8289794921875 524.4849853515625 608.2130126953125 C 524.1859741210938 607.9149780273438 523.8159790039062 607.677001953125 523.3779907226562 607.5009765625 C 522.93798828125 607.3259887695312 522.3179931640625 607.2379760742188 521.5189819335938 607.2379760742188 M 521.5189819335938 604.2379760742188 C 522.7115478515625 604.2379760742188 523.6822509765625 604.3934326171875 524.486572265625 604.7133178710938 L 524.49169921875 604.71533203125 L 524.4967651367188 604.7174072265625 C 525.296142578125 605.0386962890625 525.9950561523438 605.4903564453125 526.5745239257812 606.0601806640625 C 527.1688232421875 606.6285400390625 527.5841064453125 607.2052001953125 527.87060546875 607.759033203125 C 528.5072021484375 607.1408081054688 529.0748901367188 606.6700439453125 529.5962524414062 606.324951171875 C 531.7095336914062 604.9012451171875 533.4120483398438 604.2379760742188 534.9530029296875 604.2379760742188 C 536.2197875976562 604.2379760742188 537.3031005859375 604.4114990234375 538.264892578125 604.7684326171875 C 539.2426147460938 605.1309814453125 540.11669921875 605.6631469726562 540.8619384765625 606.349853515625 L 540.8660888671875 606.353759765625 L 540.8703002929688 606.3576049804688 C 542.446044921875 607.82080078125 543.2789916992188 609.766357421875 543.2789916992188 611.9840087890625 C 543.2789916992188 613.7674560546875 542.88134765625 615.6210327148438 542.0970458984375 617.4931640625 C 541.4442138671875 619.052490234375 540.86328125 620.3480834960938 540.3704833984375 621.34326171875 C 539.9229125976562 622.2469482421875 539.49609375 623.1644287109375 539.1016845703125 624.0704345703125 L 539.0947265625 624.08642578125 L 539.0875244140625 624.1023559570312 C 538.6964111328125 624.9730224609375 538.3939208984375 625.709228515625 538.1602172851562 626.3292236328125 C 538.43505859375 626.2633056640625 538.7072143554688 626.22802734375 538.9869995117188 626.22802734375 C 541.0131225585938 626.22802734375 542.541015625 627.7554931640625 542.541015625 629.781005859375 C 542.541015625 631.5852661132812 541.8923950195312 634.1638793945312 538.8049926757812 636.2069702148438 C 537.2373046875 637.2581176757812 535.68408203125 637.791015625 534.18798828125 637.791015625 C 532.9620971679688 637.791015625 531.927734375 637.6473388671875 531.02587890625 637.351806640625 C 530.0360107421875 637.0275268554688 529.1433715820312 636.5042724609375 528.3726196289062 635.796630859375 C 527.211669921875 634.7484130859375 525.8359985351562 632.838623046875 525.8359985351562 629.676025390625 C 525.8359985351562 627.496826171875 526.3885498046875 624.9907836914062 527.5216064453125 622.0440673828125 L 524.0338745117188 626.4891967773438 C 523.1141967773438 628.2394409179688 522.376220703125 629.7269287109375 521.8388671875 630.91357421875 L 521.8324584960938 630.9276733398438 L 521.825927734375 630.9417724609375 L 520.4028930664062 633.999755859375 L 520.3905029296875 634.0263671875 L 520.3775634765625 634.0527954101562 C 519.8775634765625 635.074462890625 519.4298706054688 635.7935791015625 518.9686279296875 636.3157958984375 L 518.96533203125 636.319580078125 L 518.9620361328125 636.3233032226562 C 518.12060546875 637.269775390625 516.9308471679688 637.791015625 515.6119995117188 637.791015625 C 514.7791748046875 637.791015625 513.9635620117188 637.6392211914062 513.1878051757812 637.3397827148438 C 512.4557495117188 637.05615234375 511.7987060546875 636.6744995117188 511.2315063476562 636.2039184570312 L 511.2224731445312 636.1964111328125 L 511.2134399414062 636.1888427734375 C 509.5046997070312 634.7484741210938 509.14599609375 633.142578125 509.14599609375 632.0490112304688 C 509.14599609375 631.2615966796875 509.3929443359375 630.4566040039062 510.025390625 629.1861572265625 L 511.0120239257812 627.0828857421875 L 511.0279541015625 627.0489501953125 L 511.044677734375 627.0154418945312 C 511.3289794921875 626.44677734375 511.673095703125 625.6925659179688 512.0676879882812 624.7732543945312 L 513.5309448242188 621.1939697265625 C 515.7994995117188 615.5184326171875 516.2931518554688 613.330322265625 516.3966064453125 612.5787353515625 L 516.385498046875 612.5709838867188 L 516.3822021484375 612.5687255859375 L 516.3789672851562 612.56640625 C 515.4015502929688 611.8794555664062 514.8410034179688 610.7490844726562 514.8410034179688 609.4650268554688 C 514.8410034179688 608.4462280273438 515.2081298828125 607.472412109375 515.9027099609375 606.6488647460938 C 516.3810424804688 606.0822143554688 516.9844360351562 605.5984497070312 517.6969604492188 605.2100219726562 L 517.7324829101562 605.190673828125 L 517.7684936523438 605.1722412109375 C 518.9823608398438 604.5523071289062 520.2442016601562 604.2379760742188 521.5189819335938 604.2379760742188 Z" stroke="none" fill="#fff"/>
      </g>
      <g id="Path_373" data-name="Path 373" fill="#315add" stroke-miterlimit="10">
        <path d="M 564.4840087890625 636.291015625 C 563.4192504882812 636.291015625 562.5377197265625 636.1717529296875 561.7889404296875 635.9263916015625 C 561.0023803710938 635.668701171875 560.2921752929688 635.251953125 559.6777954101562 634.687744140625 C 558.3202514648438 633.4652099609375 557.6320190429688 631.7791137695312 557.6320190429688 629.676025390625 C 557.6320190429688 627.4130859375 558.2999267578125 624.7218627929688 559.6738891601562 621.4484252929688 L 559.6801147460938 621.43359375 L 559.6867065429688 621.4188842773438 C 560.6334228515625 619.2924194335938 561.2877807617188 617.8704223632812 561.6866455078125 617.0725708007812 L 562.5783081054688 615.2117919921875 L 562.5794677734375 615.2094116210938 L 562.58056640625 615.20703125 C 562.8606567382812 614.6278076171875 563.0245361328125 614.1936645507812 563.1198120117188 613.8757934570312 C 562.9032592773438 614.0264282226562 562.5592041015625 614.3078002929688 562.0612182617188 614.8275756835938 C 561.0818481445312 615.8499755859375 560.2244873046875 616.7891235351562 559.5126342773438 617.6193237304688 L 557.2924194335938 620.2833862304688 L 553.0657348632812 625.6703491210938 C 552.0963745117188 627.5111083984375 551.3239135742188 629.0660400390625 550.768798828125 630.2939453125 L 550.7654418945312 630.3013916015625 L 550.761962890625 630.308837890625 L 549.3389892578125 633.3668212890625 L 549.332763671875 633.3801879882812 L 549.3262939453125 633.3934326171875 C 548.886962890625 634.2910766601562 548.5100708007812 634.9042358398438 548.1403198242188 635.3229370117188 L 548.1386108398438 635.3248291015625 L 548.1369018554688 635.3267822265625 C 547.5759887695312 635.9575805664062 546.8052368164062 636.291015625 545.9080200195312 636.291015625 C 545.2614135742188 636.291015625 544.6275634765625 636.1732177734375 544.0240478515625 635.9408569335938 C 543.4434204101562 635.7153930664062 542.9270629882812 635.416015625 542.4852294921875 635.0494384765625 L 542.481201171875 635.0460815429688 L 542.4771118164062 635.0426635742188 C 541.2074584960938 633.97412109375 540.9409790039062 632.8248901367188 540.9409790039062 632.0490112304688 C 540.9409790039062 631.5148315429688 541.1456909179688 630.89453125 541.67041015625 629.840087890625 L 542.6650390625 627.7199096679688 L 542.6734008789062 627.7020874023438 L 542.6822509765625 627.6844482421875 C 542.9788208007812 627.0932006835938 543.3370971679688 626.308837890625 543.7471923828125 625.35302734375 L 545.216552734375 621.7561645507812 C 547.8287353515625 615.2250366210938 548.218994140625 613.0118408203125 548.218994140625 612.2739868164062 C 548.218994140625 611.8495483398438 548.1088256835938 611.7422485351562 548.051025390625 611.6981201171875 L 547.5407104492188 611.3414306640625 C 547.2013549804688 611.10302734375 546.6370239257812 610.5452880859375 546.6370239257812 609.4650268554688 C 546.6370239257812 608.8048095703125 546.8819580078125 608.1654052734375 547.3453369140625 607.615966796875 C 547.6993408203125 607.1947631835938 548.1593627929688 606.8277587890625 548.7109985351562 606.5269775390625 L 548.728759765625 606.517333984375 L 548.7467041015625 606.5081787109375 C 549.747314453125 605.9971313476562 550.779296875 605.7379760742188 551.8140258789062 605.7379760742188 C 552.81396484375 605.7379760742188 553.6036987304688 605.8587646484375 554.2283325195312 606.107177734375 L 554.2308959960938 606.108154296875 L 554.2333984375 606.1091918945312 C 554.8494262695312 606.3567504882812 555.3848876953125 606.7022094726562 555.8251953125 607.1360473632812 C 556.7752685546875 608.0411376953125 557.2570190429688 609.0510864257812 557.2570190429688 610.1380004882812 C 557.2570190429688 610.4215698242188 557.2440795898438 610.70703125 557.2183227539062 610.9933471679688 L 557.220947265625 610.9901733398438 L 557.2271118164062 610.9830322265625 C 558.6829833984375 609.2808837890625 559.8277587890625 608.1648559570312 560.7264404296875 607.571533203125 C 562.58251953125 606.320556640625 564.0196533203125 605.7379760742188 565.2490234375 605.7379760742188 C 566.3345947265625 605.7379760742188 567.2471923828125 605.880859375 568.0390014648438 606.1747436523438 C 568.8331298828125 606.4691772460938 569.5406494140625 606.8992919921875 570.1414794921875 607.4529418945312 L 570.1435546875 607.4548950195312 L 570.1456909179688 607.4568481445312 C 571.4259033203125 608.6455688476562 572.0750122070312 610.1687622070312 572.0750122070312 611.9840087890625 C 572.0750122070312 613.5673217773438 571.7164916992188 615.225830078125 571.0094604492188 616.91357421875 C 570.3684692382812 618.4447631835938 569.8007202148438 619.7113037109375 569.322265625 620.6776123046875 C 568.8665161132812 621.597900390625 568.4286499023438 622.538330078125 568.0208129882812 623.4729614257812 L 568.0176391601562 623.4801635742188 L 568.0144653320312 623.4873046875 C 566.809326171875 626.171875 566.3565063476562 627.7515258789062 566.219482421875 628.6748046875 C 566.6642456054688 628.6591796875 567.0560302734375 628.5599975585938 567.413818359375 628.3728637695312 C 568.3173217773438 627.9024658203125 568.8232421875 627.72802734375 569.2830200195312 627.72802734375 C 570.47314453125 627.72802734375 571.3369750976562 628.5914306640625 571.3369750976562 629.781005859375 C 571.3369750976562 631.2183837890625 570.8043212890625 633.2830810546875 568.2681274414062 634.958740234375 C 566.9518432617188 635.8427734375 565.6787109375 636.291015625 564.4840087890625 636.291015625 Z" stroke="none"/>
        <path d="M 551.8140258789062 607.2379760742188 C 551.0150146484375 607.2379760742188 550.219970703125 607.4400024414062 549.4290161132812 607.843994140625 C 549.0419921875 608.0549926757812 548.72900390625 608.301025390625 548.4920043945312 608.5830078125 C 548.2550048828125 608.864013671875 548.1370239257812 609.1589965820312 548.1370239257812 609.4650268554688 C 548.1370239257812 609.7739868164062 548.2249755859375 609.989013671875 548.4000244140625 610.1119995117188 L 548.927978515625 610.4810180664062 C 549.4550170898438 610.8679809570312 549.718994140625 611.4650268554688 549.718994140625 612.2739868164062 C 549.718994140625 613.7860107421875 548.6810302734375 617.1339721679688 546.6069946289062 622.3189697265625 L 545.1309814453125 625.9320068359375 C 544.708984375 626.916015625 544.3400268554688 627.7249755859375 544.0230102539062 628.3569946289062 L 543.02099609375 630.4929809570312 C 542.635009765625 631.2670288085938 542.4409790039062 631.7849731445312 542.4409790039062 632.0490112304688 C 542.4409790039062 632.7169799804688 542.7739868164062 633.3319702148438 543.4429931640625 633.89501953125 C 543.760009765625 634.1580200195312 544.1329956054688 634.3740234375 544.56298828125 634.541015625 C 544.9940185546875 634.7069702148438 545.4420166015625 634.791015625 545.9080200195312 634.791015625 C 546.3740234375 634.791015625 546.7429809570312 634.6370239257812 547.0159912109375 634.3300170898438 C 547.2880249023438 634.02197265625 547.6090087890625 633.489990234375 547.97900390625 632.7340087890625 L 549.4019775390625 629.676025390625 C 549.9819946289062 628.3930053710938 550.781982421875 626.7839965820312 551.802001953125 624.8510131835938 L 556.1259765625 619.3400268554688 L 558.3670043945312 616.6510009765625 C 559.10498046875 615.7899780273438 559.9760131835938 614.8359985351562 560.97802734375 613.7899780273438 C 561.97900390625 612.7449951171875 562.7529907226562 612.2210083007812 563.2979736328125 612.2210083007812 C 564.2639770507812 612.2210083007812 564.7479858398438 612.5460205078125 564.7479858398438 613.197021484375 C 564.7479858398438 613.8469848632812 564.4749755859375 614.7349853515625 563.9310302734375 615.8599853515625 L 563.0339965820312 617.7319946289062 C 562.64697265625 618.5050048828125 561.9879760742188 619.93798828125 561.0570068359375 622.0289916992188 C 559.7730102539062 625.0880126953125 559.1320190429688 627.6370239257812 559.1320190429688 629.676025390625 C 559.1320190429688 631.3460083007812 559.6489868164062 632.64599609375 560.68701171875 633.5780029296875 C 561.14501953125 634 561.6669921875 634.3079833984375 562.2559814453125 634.5009765625 C 562.844970703125 634.6939697265625 563.5880126953125 634.791015625 564.4840087890625 634.791015625 C 565.3809814453125 634.791015625 566.364990234375 634.4310302734375 567.43701171875 633.7100219726562 C 569.0360107421875 632.655029296875 569.8369750976562 631.3460083007812 569.8369750976562 629.781005859375 C 569.8369750976562 629.4119873046875 569.6519775390625 629.22802734375 569.2830200195312 629.22802734375 C 569.1069946289062 629.22802734375 568.7160034179688 629.385986328125 568.1090087890625 629.7020263671875 C 567.5029907226562 630.0189819335938 566.8309936523438 630.177001953125 566.093017578125 630.177001953125 C 565.1439819335938 630.177001953125 564.6690063476562 629.8779907226562 564.6690063476562 629.280029296875 C 564.6690063476562 627.9439697265625 565.3280029296875 625.8090209960938 566.64599609375 622.8729858398438 C 567.0679931640625 621.906005859375 567.5120239257812 620.9530029296875 567.97802734375 620.0120239257812 C 568.4429931640625 619.072998046875 568.9929809570312 617.8460083007812 569.6259765625 616.333984375 C 570.2589721679688 614.822998046875 570.5750122070312 613.3729858398438 570.5750122070312 611.9840087890625 C 570.5750122070312 610.594970703125 570.0910034179688 609.4530029296875 569.125 608.5560302734375 C 568.6669921875 608.1339721679688 568.1320190429688 607.8090209960938 567.5170288085938 607.5809936523438 C 566.9000244140625 607.3519897460938 566.14599609375 607.2379760742188 565.2490234375 607.2379760742188 C 564.35302734375 607.2379760742188 563.1220092773438 607.7650146484375 561.5579833984375 608.8200073242188 C 560.7830200195312 609.3300170898438 559.7210083007812 610.375 558.3670043945312 611.9580078125 L 556.52099609375 614.1719970703125 C 555.905029296875 614.9459838867188 554.6229858398438 616.6859741210938 552.6719970703125 619.3930053710938 C 552.6528930664062 619.4219970703125 552.6414794921875 619.4364624023438 552.637939453125 619.4364624023438 C 552.6285400390625 619.4364624023438 552.6744995117188 619.333984375 552.7769775390625 619.1290283203125 L 553.3049926757812 617.9959716796875 C 553.531982421875 617.5029907226562 553.7880249023438 616.9229736328125 554.0689697265625 616.2550048828125 C 554.3499755859375 615.5869750976562 554.6179809570312 614.906982421875 554.8729858398438 614.2109985351562 C 555.1279907226562 613.5180053710938 555.3389892578125 612.8330078125 555.5059814453125 612.155029296875 C 555.6729736328125 611.47900390625 555.7570190429688 610.8060302734375 555.7570190429688 610.1380004882812 C 555.7570190429688 609.469970703125 555.4310302734375 608.8289794921875 554.781005859375 608.2130126953125 C 554.4810180664062 607.9149780273438 554.1119995117188 607.677001953125 553.6740112304688 607.5009765625 C 553.2340087890625 607.3259887695312 552.614013671875 607.2379760742188 551.8140258789062 607.2379760742188 M 551.8140258789062 604.2379760742188 C 553.0072631835938 604.2379760742188 553.978271484375 604.3934326171875 554.7825927734375 604.7133178710938 L 554.7876586914062 604.71533203125 L 554.7927856445312 604.7174072265625 C 555.58984375 605.0377197265625 556.2880859375 605.4888305664062 556.8687744140625 606.0584716796875 C 557.4639892578125 606.6273803710938 557.8798217773438 607.2046508789062 558.1666259765625 607.7589721679688 C 558.803955078125 607.1400146484375 559.3721313476562 606.6690063476562 559.89404296875 606.32373046875 C 562.006591796875 604.9007568359375 563.70849609375 604.2379760742188 565.2490234375 604.2379760742188 C 566.5158081054688 604.2379760742188 567.59912109375 604.4114990234375 568.5609130859375 604.7684326171875 C 569.5386962890625 605.1309814453125 570.4127807617188 605.6632080078125 571.157958984375 606.3499145507812 L 571.1621704101562 606.353759765625 L 571.1663208007812 606.3576049804688 C 572.7420654296875 607.82080078125 573.5750122070312 609.766357421875 573.5750122070312 611.9840087890625 C 573.5750122070312 613.7673950195312 573.1773071289062 615.6209106445312 572.3929443359375 617.4931640625 C 571.7399291992188 619.0531005859375 571.1589965820312 620.3486328125 570.66650390625 621.34326171875 C 570.2213745117188 622.2420654296875 569.7938232421875 623.160400390625 569.3955688476562 624.0729370117188 L 569.3892822265625 624.0872802734375 L 569.3828735351562 624.1015625 C 568.9918212890625 624.9727172851562 568.6895141601562 625.7091064453125 568.4558715820312 626.3292846679688 C 568.7307739257812 626.2633056640625 569.003173828125 626.22802734375 569.2830200195312 626.22802734375 C 571.30908203125 626.22802734375 572.8369750976562 627.7554931640625 572.8369750976562 629.781005859375 C 572.8369750976562 631.585693359375 572.1883544921875 634.16455078125 569.0995483398438 636.207275390625 C 567.533203125 637.2581176757812 565.9803466796875 637.791015625 564.4840087890625 637.791015625 C 563.258056640625 637.791015625 562.2236938476562 637.6473388671875 561.3218383789062 637.351806640625 C 560.3329467773438 637.0277709960938 559.4403686523438 636.5048828125 558.6686401367188 635.7975463867188 C 557.5079345703125 634.75 556.1320190429688 632.84033203125 556.1320190429688 629.676025390625 C 556.1320190429688 627.4948120117188 556.684326171875 624.9891357421875 557.8170776367188 622.044677734375 L 554.3298950195312 626.4891967773438 C 553.4042358398438 628.2506713867188 552.6663818359375 629.7377319335938 552.1356201171875 630.911865234375 L 552.1288452148438 630.9268188476562 L 552.1219482421875 630.9417114257812 L 550.698974609375 633.9996948242188 L 550.6865234375 634.0263671875 L 550.673583984375 634.0527954101562 C 550.1735229492188 635.0745239257812 549.725830078125 635.7935791015625 549.2646484375 636.3157958984375 L 549.26123046875 636.3197021484375 L 549.2578125 636.3235473632812 C 548.4163208007812 637.2698364257812 547.2266845703125 637.791015625 545.9080200195312 637.791015625 C 545.076416015625 637.791015625 544.2611694335938 637.6395263671875 543.4850463867188 637.3406982421875 L 543.4810180664062 637.339111328125 L 543.4769287109375 637.3375244140625 C 542.7496337890625 637.0550537109375 542.09375 636.6736450195312 541.5275268554688 636.203857421875 L 541.5193481445312 636.1971435546875 L 541.5112915039062 636.1903076171875 C 539.8001708984375 634.750244140625 539.4409790039062 633.1433715820312 539.4409790039062 632.0490112304688 C 539.4409790039062 631.2646484375 539.6876831054688 630.460205078125 540.3197631835938 629.1874389648438 L 541.3070068359375 627.0828857421875 L 541.3237915039062 627.0471801757812 L 541.3414306640625 627.0119018554688 C 541.62353515625 626.4495849609375 541.9673461914062 625.696533203125 542.3637084960938 624.773193359375 L 543.825439453125 621.1951293945312 C 546.0952758789062 615.5194702148438 546.5891723632812 613.3304443359375 546.692626953125 612.5787963867188 L 546.6813354492188 612.5709228515625 L 546.6784057617188 612.56884765625 L 546.6754150390625 612.5667114257812 C 545.69775390625 611.8798828125 545.1370239257812 610.7493286132812 545.1370239257812 609.4650268554688 C 545.1370239257812 608.4462280273438 545.504150390625 607.472412109375 546.19873046875 606.6488647460938 C 546.674560546875 606.083740234375 547.2781982421875 605.5997314453125 547.9929809570312 605.2100219726562 L 548.0284423828125 605.190673828125 L 548.064453125 605.1723022460938 C 549.2782592773438 604.5523071289062 550.539794921875 604.2379760742188 551.8140258789062 604.2379760742188 Z" stroke="none" fill="#fff"/>
      </g>
      <g id="Path_374" data-name="Path 374" fill="#315add" stroke-miterlimit="10">
        <path d="M 578.8209838867188 650.5484619140625 C 577.8936157226562 650.5485229492188 577.09228515625 650.343994140625 576.4389038085938 649.9406127929688 C 575.8643188476562 649.595458984375 575.42724609375 649.2478637695312 575.1029052734375 648.878173828125 C 574.5227661132812 648.2169189453125 574.4010009765625 647.5772094726562 574.4010009765625 647.156982421875 C 574.4010009765625 646.5853271484375 574.6309814453125 645.2022094726562 576.7613525390625 644.7069702148438 C 577.3895874023438 644.5623168945312 578.0614624023438 644.258544921875 578.7612915039062 643.803466796875 C 579.5330200195312 643.3031616210938 580.290771484375 642.7076416015625 581.0154418945312 642.0320434570312 C 583.1925048828125 639.9523315429688 584.9034423828125 637.6680297851562 586.1005859375 635.242919921875 C 586.815673828125 633.7431640625 587.442626953125 632.2843017578125 587.97412109375 630.8843383789062 C 587.0012817382812 631.9920043945312 586.1454467773438 632.8408813476562 585.3856201171875 633.4536743164062 C 583.01416015625 635.3631591796875 580.8867797851562 636.291015625 578.8809814453125 636.291015625 C 577.5016479492188 636.291015625 576.31103515625 635.9725952148438 575.3423461914062 635.344482421875 C 574.3486938476562 634.7002563476562 573.6041259765625 633.7455444335938 573.12939453125 632.5067749023438 L 573.1248168945312 632.4949340820312 L 573.1204833984375 632.4829711914062 C 572.8507690429688 631.7418212890625 572.7139892578125 630.8993530273438 572.7139892578125 629.97900390625 C 572.7139892578125 629.0977172851562 572.86083984375 628.12060546875 573.150390625 627.07470703125 C 573.4200439453125 626.0977172851562 573.7713623046875 625.0712280273438 574.1943359375 624.0248413085938 C 574.59619140625 623.0281372070312 575.04736328125 621.9721069335938 575.5347900390625 620.8872680664062 L 576.9591674804688 617.722412109375 C 578.81494140625 613.6007080078125 579.0010986328125 612.2021484375 579.0056762695312 611.8228149414062 C 578.9170532226562 611.7381591796875 578.7428588867188 611.5963745117188 578.4224243164062 611.411865234375 L 578.4190673828125 611.409912109375 L 578.4157104492188 611.407958984375 C 577.740966796875 611.0147094726562 577.35400390625 610.3065185546875 577.35400390625 609.4650268554688 C 577.35400390625 608.990478515625 577.48779296875 608.2774047851562 578.1251831054688 607.5750122070312 C 578.4978637695312 607.1629028320312 578.9725341796875 606.804931640625 579.5343017578125 606.5130004882812 L 579.5609741210938 606.4991455078125 L 579.5882568359375 606.486328125 C 580.6453247070312 605.98974609375 581.729248046875 605.7379760742188 582.8099975585938 605.7379760742188 C 583.8743896484375 605.7379760742188 584.7020263671875 605.8646850585938 585.3402099609375 606.1253051757812 L 585.3436889648438 606.1267700195312 L 585.3472290039062 606.1282348632812 C 585.9786987304688 606.389892578125 586.5107421875 606.7344360351562 586.9286499023438 607.15234375 C 587.7852172851562 608.0089111328125 588.2379760742188 609.0413208007812 588.2379760742188 610.1380004882812 C 588.2379760742188 610.971923828125 588.1102905273438 611.8677978515625 587.8475952148438 612.8768920898438 C 587.60693359375 613.790283203125 587.2916870117188 614.7868041992188 586.9096069335938 615.8432006835938 C 586.5410766601562 616.8607177734375 586.1265869140625 617.9419555664062 585.6774291992188 619.0573120117188 L 585.6718139648438 619.0712280273438 L 585.6659545898438 619.0849609375 C 584.4300537109375 621.9857788085938 583.6220703125 623.8446044921875 583.1958618164062 624.7677612304688 L 583.19091796875 624.7783813476562 L 583.1858520507812 624.7889404296875 L 582.2183837890625 626.8012084960938 C 581.8570556640625 627.6070556640625 581.6884155273438 628.1002807617188 581.6096801757812 628.386474609375 C 581.64013671875 628.3688354492188 581.672119140625 628.3494873046875 581.7056884765625 628.3283081054688 C 582.13037109375 628.0596923828125 582.6065063476562 627.6867065429688 583.1193237304688 627.2207641601562 C 583.658935546875 626.73046875 584.23046875 626.150146484375 584.81787109375 625.495849609375 C 585.41259765625 624.8353271484375 586.008544921875 624.128173828125 586.5906372070312 623.3923950195312 L 586.595703125 623.3859252929688 L 586.6009521484375 623.3795166015625 C 588.1005859375 621.5259399414062 589.2205200195312 619.9255981445312 589.9295043945312 618.6229248046875 C 595.6682739257812 608.0491333007812 595.9286499023438 607.6882934570312 596.0684814453125 607.494384765625 L 596.0814208984375 607.4764404296875 L 596.0949096679688 607.4589233398438 C 596.9710693359375 606.3169555664062 597.9612426757812 605.7379760742188 599.0380249023438 605.7379760742188 C 599.7742919921875 605.7379760742188 600.4386596679688 605.825927734375 601.0126953125 605.9994506835938 C 601.6181640625 606.1804809570312 602.1573486328125 606.4506225585938 602.615966796875 606.8025512695312 C 603.8690185546875 607.7230834960938 604.2882690429688 609.03271484375 603.7373657226562 610.31005859375 C 603.47705078125 610.9158935546875 603.1575317382812 611.7611083984375 602.7885131835938 612.8204956054688 C 599.4566040039062 622.4820556640625 597.2586059570312 628.605224609375 596.2572021484375 631.0155029296875 C 595.2498168945312 633.441162109375 594.359619140625 635.4151611328125 593.6112670898438 636.8824462890625 C 592.8522338867188 638.374755859375 591.9474487304688 639.9048461914062 590.9227905273438 641.4288940429688 C 589.8927612304688 642.9600219726562 588.7752685546875 644.3785400390625 587.6011962890625 645.6455688476562 L 587.5986328125 645.6483154296875 L 587.5960083007812 645.651123046875 C 586.2256469726562 647.1149291992188 584.864501953125 648.2632446289062 583.55029296875 649.064208984375 C 582.1519165039062 649.91650390625 580.7569580078125 650.407470703125 579.4041748046875 650.5234985351562 C 579.20166015625 650.5402221679688 579.0071411132812 650.5484619140625 578.8209838867188 650.5484619140625 Z" stroke="none"/>
        <path d="M 578.8209838867188 649.0484619140625 C 578.9667358398438 649.0484619140625 579.1184692382812 649.0419921875 579.2760009765625 649.0289916992188 C 581.5260009765625 648.8359985351562 583.9340209960938 647.3679809570312 586.5009765625 644.6259765625 C 587.625 643.4130249023438 588.6849975585938 642.0679931640625 589.677978515625 640.5919799804688 C 590.6710205078125 639.114990234375 591.5369873046875 637.6519775390625 592.2750244140625 636.2009887695312 C 593.0139770507812 634.7520141601562 593.8790283203125 632.8309936523438 594.8720092773438 630.4400024414062 C 595.864990234375 628.0499877929688 598.031982421875 622.0120239257812 601.3720092773438 612.3270263671875 C 601.7579956054688 611.218994140625 602.0880126953125 610.3489990234375 602.3599853515625 609.7160034179688 C 602.6329956054688 609.0830078125 602.4169921875 608.5120239257812 601.7150268554688 608.0020141601562 C 601.3980102539062 607.7559814453125 601.02001953125 607.5670166015625 600.5809936523438 607.4359741210938 C 600.1420288085938 607.302978515625 599.6270141601562 607.2379760742188 599.0380249023438 607.2379760742188 C 598.448974609375 607.2379760742188 597.864990234375 607.6160278320312 597.2849731445312 608.3720092773438 C 597.0570068359375 608.68798828125 595.0440063476562 612.343994140625 591.2470092773438 619.3400268554688 C 590.4910278320312 620.72900390625 589.3309936523438 622.3900146484375 587.7670288085938 624.322998046875 C 587.1690063476562 625.0789794921875 586.5579833984375 625.8049926757812 585.9340209960938 626.4979858398438 C 585.3099975585938 627.1929931640625 584.7080078125 627.8040161132812 584.1279907226562 628.3309936523438 C 583.5479736328125 628.8579711914062 583.0070190429688 629.280029296875 582.5059814453125 629.5969848632812 C 582.0050048828125 629.9130249023438 581.5479736328125 630.0709838867188 581.135009765625 630.0709838867188 C 580.7219848632812 630.0709838867188 580.43701171875 629.9710083007812 580.2780151367188 629.7680053710938 C 580.1199951171875 629.5659790039062 580.041015625 629.218994140625 580.041015625 628.7269897460938 C 580.041015625 628.2340087890625 580.31298828125 627.3820190429688 580.8579711914062 626.1690063476562 L 581.833984375 624.1389770507812 C 582.2559814453125 623.2249755859375 583.072998046875 621.343994140625 584.2860107421875 618.4970092773438 C 584.7249755859375 617.406982421875 585.1300048828125 616.3519897460938 585.4990234375 615.3330078125 C 585.8679809570312 614.31298828125 586.1669921875 613.3679809570312 586.39599609375 612.4990234375 C 586.6229858398438 611.6270141601562 586.7379760742188 610.8410034179688 586.7379760742188 610.1380004882812 C 586.7379760742188 609.4349975585938 586.447998046875 608.7930297851562 585.8679809570312 608.2130126953125 C 585.5869750976562 607.9320068359375 585.2219848632812 607.7000122070312 584.7730102539062 607.5139770507812 C 584.3250122070312 607.3309936523438 583.6699829101562 607.2379760742188 582.8099975585938 607.2379760742188 C 581.947998046875 607.2379760742188 581.0859985351562 607.4400024414062 580.2260131835938 607.843994140625 C 579.8200073242188 608.0549926757812 579.4910278320312 608.301025390625 579.2360229492188 608.5830078125 C 578.9810180664062 608.864013671875 578.85400390625 609.1589965820312 578.85400390625 609.4650268554688 C 578.85400390625 609.7739868164062 578.9600219726562 609.989013671875 579.1710205078125 610.1119995117188 C 579.7509765625 610.4459838867188 580.14599609375 610.780029296875 580.3569946289062 611.114013671875 C 580.8319702148438 611.8699951171875 580.155029296875 614.2780151367188 578.3270263671875 618.3380126953125 L 576.9030151367188 621.5020141601562 C 576.4290161132812 622.5570068359375 575.989013671875 623.5850219726562 575.5850219726562 624.5869750976562 C 575.1799926757812 625.5889892578125 574.8510131835938 626.551025390625 574.5960083007812 627.4749755859375 C 574.3410034179688 628.39599609375 574.2139892578125 629.2319946289062 574.2139892578125 629.97900390625 C 574.2139892578125 630.7269897460938 574.3189697265625 631.3900146484375 574.530029296875 631.969970703125 C 575.2509765625 633.8510131835938 576.7009887695312 634.791015625 578.8809814453125 634.791015625 C 580.5159912109375 634.791015625 582.3699951171875 633.9559936523438 584.4439697265625 632.2860107421875 C 585.5339965820312 631.406982421875 586.905029296875 629.9219970703125 588.5579833984375 627.8300170898438 L 590.4559936523438 625.2990112304688 C 591.0709838867188 624.4730224609375 591.6329956054688 623.7520141601562 592.1439819335938 623.1370239257812 L 590.0869750976562 629.4119873046875 C 589.4180297851562 631.4509887695312 588.5399780273438 633.6129760742188 587.4500122070312 635.8980102539062 C 586.1669921875 638.5 584.364990234375 640.9080200195312 582.0449829101562 643.1229858398438 C 581.2540283203125 643.8610229492188 580.4320068359375 644.5079956054688 579.5789794921875 645.0609741210938 C 578.7269897460938 645.614990234375 577.9000244140625 645.9840087890625 577.1010131835938 646.1680297851562 C 576.301025390625 646.35400390625 575.9010009765625 646.6829833984375 575.9010009765625 647.156982421875 C 575.9010009765625 647.6320190429688 576.3400268554688 648.1329956054688 577.219970703125 648.6599731445312 C 577.6358642578125 648.9190063476562 578.1698608398438 649.0484619140625 578.8209838867188 649.0484619140625 M 578.821044921875 652.0484619140625 C 578.8209838867188 652.0484619140625 578.8209838867188 652.0484619140625 578.8209838867188 652.0484619140625 C 577.614990234375 652.0485229492188 576.5514526367188 651.7705078125 575.6595458984375 651.2222900390625 C 574.9532470703125 650.7973022460938 574.402099609375 650.3539428710938 573.9752807617188 649.8673706054688 C 573.08740234375 648.855224609375 572.9010009765625 647.8347778320312 572.9010009765625 647.156982421875 C 572.9010009765625 646.0149536132812 573.3956298828125 644.9786376953125 574.293701171875 644.2388916015625 C 574.8607177734375 643.7717895507812 575.5568237304688 643.447021484375 576.4216918945312 643.2459716796875 L 576.4246826171875 643.2452392578125 L 576.4276733398438 643.2445678710938 C 576.8812866210938 643.1400756835938 577.3912963867188 642.905029296875 577.9435424804688 642.5459594726562 C 578.6411743164062 642.0936889648438 579.3269653320312 641.5546875 579.985595703125 640.94140625 C 581.4771118164062 639.515625 582.7339477539062 637.9922485351562 583.7387084960938 636.3941650390625 C 582.0592041015625 637.331298828125 580.4537353515625 637.791015625 578.8809814453125 637.791015625 C 577.2072143554688 637.791015625 575.7420654296875 637.391357421875 574.5263061523438 636.6030883789062 C 573.2607421875 635.7825927734375 572.3194580078125 634.5849609375 571.7286987304688 633.0436401367188 L 571.7196044921875 633.0198364257812 L 571.7108764648438 632.9959106445312 C 571.3811645507812 632.08984375 571.2139892578125 631.0748291015625 571.2139892578125 629.97900390625 C 571.2139892578125 628.9625244140625 571.3790893554688 627.8507080078125 571.7047729492188 626.6744384765625 C 571.9892578125 625.6436157226562 572.3592529296875 624.5621948242188 572.8036499023438 623.4627075195312 C 573.2122802734375 622.4492797851562 573.671142578125 621.3751220703125 574.16650390625 620.2725219726562 L 575.59130859375 617.1067504882812 C 576.7041015625 614.6353149414062 577.1696166992188 613.2467041015625 577.3643188476562 612.5114135742188 C 576.4124755859375 611.8239135742188 575.85400390625 610.7098388671875 575.85400390625 609.4650268554688 C 575.85400390625 608.4072875976562 576.2540283203125 607.4066162109375 577.0109252929688 606.5708618164062 L 577.0109252929688 606.5708618164062 C 577.5054931640625 606.02392578125 578.1217651367188 605.556640625 578.8425903320312 605.1820068359375 L 578.89599609375 605.154296875 L 578.950439453125 605.128662109375 C 580.2085571289062 604.5376586914062 581.5071411132812 604.2379760742188 582.8099975585938 604.2379760742188 C 584.0725708007812 604.2379760742188 585.0857543945312 604.401123046875 585.9074096679688 604.7366943359375 L 585.9143676757812 604.7395629882812 L 585.9213256835938 604.742431640625 C 586.735595703125 605.079833984375 587.4313354492188 605.5337524414062 587.9892578125 606.0916748046875 C 589.13330078125 607.2357177734375 589.7379760742188 608.6348876953125 589.7379760742188 610.1380004882812 C 589.7379760742188 611.1011352539062 589.594482421875 612.1206665039062 589.2992553710938 613.2547607421875 L 589.298095703125 613.2591552734375 L 589.2969360351562 613.2635498046875 C 589.0460205078125 614.2157592773438 588.7173461914062 615.25537109375 588.3201293945312 616.3534545898438 C 587.9454345703125 617.38818359375 587.5245361328125 618.486083984375 587.06884765625 619.61767578125 L 587.0576782226562 619.6454467773438 L 587.0459594726562 619.6729125976562 C 586.8071899414062 620.2333374023438 586.5842895507812 620.7550048828125 586.3768310546875 621.2390747070312 C 587.35107421875 619.9630126953125 588.1005249023438 618.8456420898438 588.6119995117188 617.9058837890625 C 594.395751953125 607.249267578125 594.659423828125 606.8837280273438 594.85205078125 606.6168212890625 L 594.8779296875 606.5809326171875 L 594.90478515625 606.5458374023438 C 596.3682861328125 604.6383666992188 597.9602661132812 604.2379760742188 599.0380249023438 604.2379760742188 C 599.933349609375 604.2379760742188 600.7208251953125 604.3443603515625 601.4453125 604.5631713867188 C 602.219482421875 604.7950439453125 602.9158325195312 605.1445922851562 603.5159301757812 605.6024780273438 C 604.3279418945312 606.20166015625 604.89794921875 606.9257202148438 605.21044921875 607.7550659179688 C 605.5900268554688 608.7625122070312 605.5560302734375 609.880859375 605.1146850585938 610.9041137695312 C 604.8696899414062 611.4744262695312 604.5638427734375 612.2841796875 604.2073364257812 613.3073120117188 C 600.817138671875 623.1376342773438 598.6698608398438 629.1180419921875 597.6423950195312 631.5910034179688 C 596.6058349609375 634.0869750976562 595.7243041992188 636.0408935546875 594.9475708007812 637.5639038085938 C 594.1618041992188 639.1087646484375 593.2259521484375 640.6917114257812 592.1676025390625 642.265869140625 C 591.0941772460938 643.8614501953125 589.9281616210938 645.34130859375 588.701416015625 646.6651000976562 L 588.6962280273438 646.670654296875 L 588.6910400390625 646.67626953125 C 587.2279663085938 648.2391357421875 585.760986328125 649.4735107421875 584.3309326171875 650.3450927734375 C 582.7327270507812 651.3191528320312 581.1182861328125 651.8819580078125 579.5324096679688 652.0180053710938 L 579.5274658203125 652.0184326171875 L 579.5225219726562 652.0188598632812 C 579.2841796875 652.0385131835938 579.0481567382812 652.0484619140625 578.821044921875 652.0484619140625 L 578.821044921875 652.0484619140625 Z" stroke="none" fill="#fff"/>
      </g>
      <g id="Path_375" data-name="Path 375" fill="#315add" stroke-miterlimit="10">
        <path d="M 609.31201171875 605.4949951171875 C 608.7232055664062 605.4949951171875 608.2369384765625 605.3798217773438 607.8255004882812 605.1429443359375 C 607.2609252929688 604.8179321289062 606.889404296875 604.284423828125 606.7794189453125 603.640625 L 606.77783203125 603.6312866210938 L 606.7763671875 603.6220092773438 C 606.6138916015625 602.59326171875 607.3338623046875 601.7590942382812 607.5704345703125 601.4849853515625 L 607.600830078125 601.44970703125 L 607.6333618164062 601.4164428710938 L 608.7673950195312 600.2564086914062 C 610.3226928710938 598.6632080078125 610.5549926757812 597.7183837890625 610.5549926757812 597.2969970703125 C 610.5549926757812 596.53173828125 610.4078979492188 595.904296875 610.1178588867188 595.4320678710938 C 609.6528930664062 594.6806640625 609.3421020507812 594.1460571289062 609.1704711914062 593.8019409179688 C 608.8170166015625 593.0970458984375 608.8340454101562 592.2725219726562 609.2210693359375 591.3511352539062 C 609.557861328125 590.5496826171875 610.18701171875 589.8717651367188 611.0910034179688 589.3357543945312 C 611.9474487304688 588.8292846679688 613.0164794921875 588.572998046875 614.27001953125 588.572998046875 C 615.76025390625 588.572998046875 617.0029296875 589.254638671875 617.8636474609375 590.5443115234375 C 618.60888671875 591.664794921875 618.9860229492188 592.9158935546875 618.9860229492188 594.2650146484375 C 618.9860229492188 595.4808959960938 618.8294677734375 596.54736328125 618.520751953125 597.4348754882812 C 618.2324829101562 598.2589111328125 617.8513793945312 599.0665283203125 617.3870849609375 599.8377075195312 C 616.9213256835938 600.609375 616.3712768554688 601.3392333984375 615.7514038085938 602.0084228515625 C 615.139404296875 602.6690673828125 614.4976196289062 603.2556762695312 613.8438720703125 603.7518310546875 C 613.1630859375 604.2716674804688 612.4558715820312 604.6898803710938 611.745361328125 604.9922485351562 C 610.968505859375 605.3253173828125 610.1485595703125 605.4949951171875 609.31201171875 605.4949951171875 Z" stroke="none"/>
        <path d="M 609.31201171875 603.9949951171875 C 609.9450073242188 603.9949951171875 610.5609741210938 603.8679809570312 611.1580200195312 603.6119995117188 C 611.7550048828125 603.3579711914062 612.3489990234375 603.0059814453125 612.93701171875 602.5570068359375 C 613.5260009765625 602.1099853515625 614.0980224609375 601.5859985351562 614.6510009765625 600.989013671875 C 615.2050170898438 600.3909912109375 615.68798828125 599.75 616.1019897460938 599.0640258789062 C 616.5150146484375 598.3779907226562 616.8489990234375 597.6710205078125 617.10400390625 596.9420166015625 C 617.3579711914062 596.2119750976562 617.4860229492188 595.3200073242188 617.4860229492188 594.2650146484375 C 617.4860229492188 593.2100219726562 617.1959838867188 592.2490234375 616.6160278320312 591.3770141601562 C 616.0360107421875 590.5079956054688 615.2540283203125 590.072998046875 614.27001953125 590.072998046875 C 613.2839965820312 590.072998046875 612.47998046875 590.2570190429688 611.8560180664062 590.6259765625 C 611.2319946289062 590.9959716796875 610.8150024414062 591.4299926757812 610.60400390625 591.9320068359375 C 610.3939819335938 592.4320068359375 610.3619995117188 592.8330078125 610.5120239257812 593.1309814453125 C 610.6610107421875 593.4299926757812 610.9559936523438 593.9359741210938 611.39599609375 594.64697265625 C 611.833984375 595.3599853515625 612.0549926757812 596.2429809570312 612.0549926757812 597.2969970703125 C 612.0549926757812 598.4580078125 611.3159790039062 599.7930297851562 609.8400268554688 601.3049926757812 L 608.7059936523438 602.4650268554688 C 608.3720092773438 602.8519897460938 608.2219848632812 603.1599731445312 608.2579956054688 603.3880004882812 C 608.3270263671875 603.7919921875 608.6799926757812 603.9949951171875 609.31201171875 603.9949951171875 M 609.31201171875 606.9949951171875 C 608.46533203125 606.9949951171875 607.7134399414062 606.8092651367188 607.0770874023438 606.4429321289062 C 606.1322021484375 605.89892578125 605.4847412109375 604.9696044921875 605.3008422851562 603.8932495117188 L 605.2976684570312 603.8746337890625 L 605.2947387695312 603.85595703125 C 605.1148681640625 602.71728515625 605.4984741210938 601.58984375 606.4348754882812 600.5048828125 L 606.4957275390625 600.4344482421875 L 606.560791015625 600.3678588867188 L 607.69482421875 599.2078857421875 C 608.9246215820312 597.9480590820312 609.0464477539062 597.3395385742188 609.0549926757812 597.285888671875 C 609.0538330078125 596.8153686523438 608.9798583984375 596.4467163085938 608.8409423828125 596.2191162109375 C 608.34619140625 595.41943359375 608.0247802734375 594.864990234375 607.8301391601562 594.4754638671875 C 607.445068359375 593.7080688476562 607.1351928710938 592.4435424804688 607.8380737304688 590.7702026367188 C 608.3023681640625 589.6655883789062 609.1393432617188 588.7490844726562 610.3259887695312 588.0454711914062 C 611.4182739257812 587.3995971679688 612.7442626953125 587.072998046875 614.27001953125 587.072998046875 C 616.2562866210938 587.072998046875 617.9756469726562 588.0100708007812 619.1112670898438 589.7116088867188 C 620.0244140625 591.0845336914062 620.4860229492188 592.6151733398438 620.4860229492188 594.2650146484375 C 620.4860229492188 595.6685180664062 620.3065795898438 596.8666381835938 619.9374389648438 597.927734375 L 619.9365844726562 597.9301147460938 L 619.935791015625 597.9325561523438 C 619.614501953125 598.8510131835938 619.1893310546875 599.7522583007812 618.6721801757812 600.611328125 C 618.1528930664062 601.4718017578125 617.5409545898438 602.2838134765625 616.8517456054688 603.0277709960938 C 616.181884765625 603.7509765625 615.476318359375 604.3955688476562 614.7545776367188 604.9437255859375 C 613.9735107421875 605.539794921875 613.160400390625 606.0197143554688 612.337646484375 606.370361328125 C 611.3699951171875 606.7848510742188 610.35205078125 606.9949951171875 609.31201171875 606.9949951171875 Z" stroke="none" fill="#fff"/>
      </g>
      <g id="Path_376" data-name="Path 376" fill="#315add" stroke-miterlimit="10">
        <path d="M 618.4959716796875 636.2650146484375 C 615.8815307617188 636.2650146484375 613.7503051757812 635.5993041992188 612.1614990234375 634.2862548828125 L 612.1575927734375 634.2830810546875 L 612.1537475585938 634.2798461914062 C 610.7329711914062 633.089599609375 609.9819946289062 631.570556640625 609.9819946289062 629.8870239257812 C 609.9819946289062 629.1069946289062 610.1566162109375 628.3681640625 610.5009765625 627.6910400390625 C 610.8192138671875 627.0653076171875 611.2260131835938 626.526611328125 611.7102661132812 626.0895385742188 C 612.7293090820312 625.1469116210938 613.8501586914062 624.6690063476562 615.0419921875 624.6690063476562 C 616.5701904296875 624.6690063476562 617.5969848632812 625.7062377929688 617.5969848632812 627.25 C 617.5969848632812 628.9434814453125 618.2160034179688 629.5067138671875 618.681640625 629.7830810546875 L 618.6859741210938 629.78564453125 L 618.6903076171875 629.7882690429688 C 618.8948974609375 629.9115600585938 619.08447265625 629.968994140625 619.2869873046875 629.968994140625 C 619.6812744140625 629.968994140625 619.9177856445312 629.9212646484375 620.04736328125 629.8809204101562 C 620.2030029296875 629.8310546875 620.3438110351562 629.7540283203125 620.4776611328125 629.6453247070312 L 620.4797973632812 629.6436157226562 L 620.48193359375 629.6419067382812 C 620.8720092773438 629.32763671875 620.8720092773438 629.1079711914062 620.8720092773438 628.989990234375 C 620.8720092773438 628.534912109375 620.7752075195312 628.1337890625 620.5761108398438 627.7638549804688 C 620.2922973632812 627.23486328125 619.9302978515625 626.6679077148438 619.499267578125 626.0770874023438 L 619.4943237304688 626.0703735351562 L 619.4894409179688 626.0635375976562 L 617.996826171875 623.9690551757812 C 615.7056274414062 620.9087524414062 614.5440063476562 617.9942626953125 614.5440063476562 615.3060302734375 C 614.5440063476562 612.9200439453125 615.5425415039062 610.7546997070312 617.511962890625 608.8702392578125 C 619.6907958984375 606.7913208007812 622.49658203125 605.7379760742188 625.85302734375 605.7379760742188 C 628.8142700195312 605.7379760742188 631.1950073242188 606.5100708007812 632.928955078125 608.0325927734375 C 634.4597778320312 609.3612670898438 635.2360229492188 610.93896484375 635.2360229492188 612.7219848632812 C 635.2360229492188 614.5629272460938 634.4900512695312 616.1201171875 633.0786743164062 617.22509765625 C 632.0578002929688 618.0201416015625 630.988525390625 618.4220581054688 629.8975830078125 618.4220581054688 C 629.6015014648438 618.4220581054688 629.30224609375 618.3917236328125 629.008056640625 618.3319091796875 L 629.00439453125 618.3311767578125 L 629.0007934570312 618.3303833007812 C 628.192138671875 618.1617431640625 627.5291748046875 617.71826171875 627.083251953125 617.047607421875 C 626.6029663085938 616.3284912109375 626.4918823242188 615.4536743164062 626.7705078125 614.584228515625 C 626.864501953125 614.2918701171875 626.9099731445312 613.9935302734375 626.9099731445312 613.6710205078125 C 626.9099731445312 613.4034423828125 626.8640747070312 613.1672973632812 626.7695922851562 612.94921875 C 626.676025390625 612.733154296875 626.5570678710938 612.558837890625 626.4058837890625 612.4163208007812 C 625.9151611328125 611.9550170898438 625.5996704101562 611.9550170898438 625.4959716796875 611.9550170898438 C 624.8663330078125 611.9550170898438 624.5009765625 612.0325927734375 624.3046875 612.0982055664062 C 624.0491943359375 612.1866455078125 623.83642578125 612.3017578125 623.6555786132812 612.4495849609375 C 623.2951049804688 612.7922973632812 623.1339721679688 613.1666870117188 623.1339721679688 613.6589965820312 C 623.1339721679688 614.3530883789062 623.2449951171875 614.9397583007812 623.4639282226562 615.4026489257812 C 623.7453002929688 615.9954833984375 624.0979614257812 616.5973510742188 624.51123046875 617.189697265625 C 624.9566650390625 617.8283081054688 625.4480590820312 618.48583984375 625.9718017578125 619.1441040039062 C 626.5532836914062 619.8773803710938 627.093505859375 620.6539916992188 627.5787963867188 621.4542846679688 C 628.845947265625 623.4892578125 629.4619750976562 625.2772216796875 629.4619750976562 626.9199829101562 C 629.4619750976562 628.544921875 629.1017456054688 629.947265625 628.3912353515625 631.0880126953125 C 627.7299194335938 632.1522216796875 626.8639526367188 633.0778198242188 625.8179931640625 633.8379516601562 C 623.6481323242188 635.4484252929688 621.1847534179688 636.2650146484375 618.4959716796875 636.2650146484375 Z" stroke="none"/>
        <path d="M 618.4959716796875 634.7650146484375 C 620.8690185546875 634.7650146484375 623.0139770507812 634.052978515625 624.9299926757812 632.6290283203125 C 625.8259887695312 631.97900390625 626.5549926757812 631.2009887695312 627.1179809570312 630.2949829101562 C 627.6810302734375 629.3909912109375 627.9619750976562 628.2659912109375 627.9619750976562 626.9199829101562 C 627.9619750976562 625.5759887695312 627.4080200195312 624.0159912109375 626.301025390625 622.239990234375 C 625.843017578125 621.4840087890625 625.3419799804688 620.7639770507812 624.7979736328125 620.0780029296875 C 624.2529907226562 619.3930053710938 623.7470092773438 618.7160034179688 623.281005859375 618.0479736328125 C 622.8150024414062 617.3800048828125 622.4249877929688 616.7119750976562 622.1079711914062 616.0440063476562 C 621.7919921875 615.3759765625 621.6339721679688 614.5809936523438 621.6339721679688 613.6589965820312 C 621.6339721679688 612.7349853515625 621.9769897460938 611.9580078125 622.6619873046875 611.3250122070312 C 622.9949951171875 611.0430297851562 623.3829956054688 610.8289794921875 623.822021484375 610.677978515625 C 624.260986328125 610.530029296875 624.8189697265625 610.4550170898438 625.4959716796875 610.4550170898438 C 626.1729736328125 610.4550170898438 626.8179931640625 610.7449951171875 627.4349975585938 611.3250122070312 C 627.7329711914062 611.6060180664062 627.9710083007812 611.948974609375 628.14599609375 612.35302734375 C 628.3209838867188 612.7570190429688 628.4099731445312 613.197021484375 628.4099731445312 613.6710205078125 C 628.4099731445312 614.14599609375 628.3400268554688 614.60302734375 628.198974609375 615.0419921875 C 628.0579833984375 615.4819946289062 628.10302734375 615.8740234375 628.3309936523438 616.2150268554688 C 628.5590209960938 616.5590209960938 628.885009765625 616.7739868164062 629.3070068359375 616.8619995117188 C 629.50390625 616.9020385742188 629.70068359375 616.9220581054688 629.8975830078125 616.9220581054688 C 630.6497192382812 616.9220581054688 631.4019165039062 616.6296997070312 632.1539916992188 616.0440063476562 C 633.208984375 615.218017578125 633.7360229492188 614.1110229492188 633.7360229492188 612.7219848632812 C 633.7360229492188 611.385986328125 633.1389770507812 610.2000122070312 631.9429931640625 609.1630249023438 C 630.4829711914062 607.8790283203125 628.4530029296875 607.2379760742188 625.85302734375 607.2379760742188 C 622.8820190429688 607.2379760742188 620.447021484375 608.1430053710938 618.5490112304688 609.9539794921875 C 616.8779907226562 611.552978515625 616.0440063476562 613.3369750976562 616.0440063476562 615.3060302734375 C 616.0440063476562 617.6790161132812 617.0989990234375 620.27099609375 619.2080078125 623.083984375 L 620.7109985351562 625.1929931640625 C 621.1859741210938 625.843994140625 621.5809936523438 626.4639892578125 621.89697265625 627.052978515625 C 622.2139892578125 627.6420288085938 622.3720092773438 628.2869873046875 622.3720092773438 628.989990234375 C 622.3720092773438 629.6929931640625 622.0560302734375 630.2999877929688 621.4229736328125 630.8099975585938 C 621.1420288085938 631.0380249023438 620.8330078125 631.2050170898438 620.5 631.3109741210938 C 620.166015625 631.416015625 619.7620239257812 631.468994140625 619.2869873046875 631.468994140625 C 618.81201171875 631.468994140625 618.35400390625 631.3369750976562 617.916015625 631.072998046875 C 616.7030029296875 630.35302734375 616.0969848632812 629.0780029296875 616.0969848632812 627.25 C 616.0969848632812 626.5289916992188 615.7440185546875 626.1690063476562 615.0419921875 626.1690063476562 C 614.2329711914062 626.1690063476562 613.4600219726562 626.5120239257812 612.7219848632812 627.197021484375 C 612.3690185546875 627.5139770507812 612.0750122070312 627.905029296875 611.8380126953125 628.3709716796875 C 611.6010131835938 628.8369750976562 611.4819946289062 629.3419799804688 611.4819946289062 629.8870239257812 C 611.4819946289062 631.135009765625 612.0260009765625 632.2160034179688 613.1170043945312 633.1300048828125 C 614.4359741210938 634.219970703125 616.22900390625 634.7650146484375 618.4959716796875 634.7650146484375 M 618.4959716796875 637.7650146484375 C 615.5234985351562 637.7650146484375 613.07080078125 636.983642578125 611.2059936523438 635.4425659179688 L 611.1981811523438 635.4361572265625 L 611.1904907226562 635.4296875 C 609.4185791015625 633.9452514648438 608.4819946289062 632.0286254882812 608.4819946289062 629.8870239257812 C 608.4819946289062 628.868408203125 608.71142578125 627.9007568359375 609.1640014648438 627.010986328125 C 609.5642700195312 626.2239990234375 610.080322265625 625.5416870117188 610.6981811523438 624.9823608398438 C 612.3214721679688 623.4840698242188 613.9554443359375 623.1690063476562 615.0419921875 623.1690063476562 C 615.25537109375 623.1690063476562 615.4574584960938 623.1823120117188 615.6484985351562 623.2066040039062 C 613.9188232421875 620.4703369140625 613.0440063476562 617.81982421875 613.0440063476562 615.3060302734375 C 613.0440063476562 613.8831787109375 613.3497314453125 612.5083618164062 613.95263671875 611.2198486328125 C 614.5259399414062 609.9945678710938 615.37451171875 608.8394165039062 616.4749145507812 607.7864379882812 C 618.9437255859375 605.4308471679688 622.0979614257812 604.2379760742188 625.85302734375 604.2379760742188 C 629.1886596679688 604.2379760742188 631.9019165039062 605.1350708007812 633.9175415039062 606.9044189453125 C 636.24658203125 608.9287719726562 636.7360229492188 611.1849365234375 636.7360229492188 612.7219848632812 C 636.7360229492188 615.0409545898438 635.7910766601562 617.0065307617188 634.0033569335938 618.4061279296875 L 634.0003051757812 618.4085693359375 L 633.9972534179688 618.4109497070312 C 632.709716796875 619.4136352539062 631.3303833007812 619.9220581054688 629.8976440429688 619.9220581054688 C 629.5012817382812 619.9220581054688 629.1013793945312 619.881591796875 628.7090454101562 619.8018188476562 L 628.7017822265625 619.80029296875 L 628.6945190429688 619.798828125 C 628.5320434570312 619.7649536132812 628.3735961914062 619.7235107421875 628.21923828125 619.6747436523438 C 628.4404296875 620.0016479492188 628.6532592773438 620.33349609375 628.8571166992188 620.66943359375 C 630.2734375 622.9461669921875 630.9619750976562 624.9909057617188 630.9619750976562 626.9199829101562 C 630.9619750976562 628.8295288085938 630.5254516601562 630.4986572265625 629.6644287109375 631.8810424804688 C 628.9025268554688 633.107177734375 627.9066772460938 634.173095703125 626.7059936523438 635.046875 C 624.2734375 636.8505859375 621.5112915039062 637.7650146484375 618.4959716796875 637.7650146484375 Z M 624.6381225585938 613.5919799804688 C 624.6364135742188 613.6027221679688 624.6339721679688 613.6242065429688 624.6339721679688 613.6589965820312 C 624.6339721679688 614.1229248046875 624.6983032226562 614.5040893554688 624.8198852539062 614.7612915039062 C 624.9114990234375 614.9542236328125 625.01220703125 615.1490478515625 625.12158203125 615.3447265625 C 625.1386108398438 614.9417114257812 625.2117919921875 614.5331420898438 625.342041015625 614.1265869140625 C 625.3880004882812 613.9835815429688 625.4099731445312 613.8353271484375 625.4099731445312 613.6710205078125 C 625.4099731445312 613.6386108398438 625.4077758789062 613.5792236328125 625.3931274414062 613.54541015625 C 625.3826293945312 613.5211791992188 625.3748168945312 613.5079345703125 625.3713989257812 613.5026245117188 C 625.3524780273438 613.4849243164062 625.3355102539062 613.4700927734375 625.3207397460938 613.4577026367188 C 624.9703979492188 613.4689331054688 624.8115844726562 613.511474609375 624.784423828125 613.51953125 C 624.7410278320312 613.5350341796875 624.6890258789062 613.5565795898438 624.6452026367188 613.5830078125 C 624.6422119140625 613.5866088867188 624.639892578125 613.589599609375 624.6381225585938 613.5919799804688 Z" stroke="none" fill="#fff"/>
      </g>
    </g>
    <g id="Cleaning_Services" data-name="Cleaning Services">
      <g id="Group_190" data-name="Group 190" style="isolation: isolate">
        <path id="Path_377" data-name="Path 377" d="M481.118,666.4c-.058.659-.307,4.014-3.91,4.014-3.693,0-4.117-3.252-4.117-6.75,0-4.216,1.233-6.7,4.255-6.7,3.445,0,3.712,2.961,3.765,4h-2.3c-.037-.443-.067-2.026-1.5-2.026-1.461,0-1.816,1.791-1.816,4.771,0,2.455.244,4.76,1.751,4.76,1.385,0,1.5-1.573,1.554-2.072Z" fill="#484f60"/>
        <path id="Path_378" data-name="Path 378" d="M482.571,657.171h2.33V668.2h4.444l-.226,1.989h-6.548Z" fill="#484f60"/>
        <path id="Path_379" data-name="Path 379" d="M496.966,664.4H492.8v3.782h4.68l-.287,2.005H490.5V657.171h6.661v2.04H492.8v3.169h4.169Z" fill="#484f60"/>
        <path id="Path_380" data-name="Path 380" d="M501.333,666.913l-.646,3.276h-2.329l3.008-13.018h3.018l3.041,13.018h-2.441l-.647-3.276Zm2.59-2.023c-.484-2.492-.872-4.313-1.076-5.556h-.055c-.158,1.2-.57,3.154-1.048,5.556Z" fill="#484f60"/>
        <path id="Path_381" data-name="Path 381" d="M508.531,670.189V657.171h2.641c2.686,7.194,3.2,8.566,3.358,9.2h.019c-.111-1.564-.115-3.48-.115-5.614v-3.591h2.078v13.018h-2.533c-2.773-7.67-3.266-9.052-3.434-9.65h-.019c.1,1.6.1,3.521.1,5.854v3.8Z" fill="#484f60"/>
        <path id="Path_382" data-name="Path 382" d="M521.095,657.171v13.018h-2.329V657.171Z" fill="#484f60"/>
        <path id="Path_383" data-name="Path 383" d="M523.393,670.189V657.171h2.641c2.686,7.194,3.2,8.566,3.358,9.2h.019c-.111-1.564-.116-3.48-.116-5.614v-3.591h2.079v13.018h-2.533c-2.774-7.67-3.266-9.052-3.434-9.65h-.019c.095,1.6.1,3.521.1,5.854v3.8Z" fill="#484f60"/>
        <path id="Path_384" data-name="Path 384" d="M541.329,670.189h-1.773a10.076,10.076,0,0,1-.11-1.108,2.652,2.652,0,0,1-2.579,1.332c-2.713,0-3.7-2.422-3.7-6.651,0-4.753,1.6-6.8,4.39-6.8a3.559,3.559,0,0,1,3.752,3.795h-2.3c-.039-.525-.152-1.822-1.525-1.822-1.5,0-1.916,2-1.916,4.82,0,3.035.357,4.7,1.838,4.7,1.233,0,1.6-.947,1.6-2.865v-.73H537.27v-1.989h4.059Z" fill="#484f60"/>
        <path id="Path_385" data-name="Path 385" d="M548.519,666.543c.112,1.08.544,2.031,1.732,2.031,1.145,0,1.569-.719,1.569-1.687,0-1.07-.525-1.692-2.168-2.478-2.223-1.058-3.094-1.994-3.094-3.929a3.346,3.346,0,0,1,3.687-3.514c2.922,0,3.643,1.981,3.681,3.677h-2.279c-.074-.746-.266-1.84-1.442-1.84-.921,0-1.332.6-1.332,1.482,0,.938.416,1.376,1.939,2.084,2.33,1.08,3.375,2.129,3.375,4.308,0,2.044-1.262,3.734-4.006,3.734-2.987,0-3.9-1.917-3.978-3.868Z" fill="#484f60"/>
        <path id="Path_386" data-name="Path 386" d="M562.27,664.4H558.1v3.782h4.679l-.286,2.005h-6.689V657.171h6.661v2.04H558.1v3.169h4.168Z" fill="#484f60"/>
        <path id="Path_387" data-name="Path 387" d="M566.509,664.639v5.55H564.2V657.171h3.978c2.36,0,3.7,1.233,3.7,3.557a2.928,2.928,0,0,1-1.684,2.964c1.006.472,1.482,1.329,1.482,3.251v.52a15.223,15.223,0,0,0,.176,2.726H569.6a10.753,10.753,0,0,1-.224-2.748v-.474c0-1.74-.4-2.328-1.866-2.328Zm0-1.888H567.6c1.4,0,1.953-.6,1.953-1.922a1.552,1.552,0,0,0-1.725-1.77h-1.319Z" fill="#484f60"/>
        <path id="Path_388" data-name="Path 388" d="M575.919,670.189l-3.225-13.018H575.2l1.191,5.522c.376,1.734.734,3.661.889,5.022h.039c.156-1.323.632-3.269.995-4.973l1.152-5.571H581.9l-3.266,13.018Z" fill="#484f60"/>
        <path id="Path_389" data-name="Path 389" d="M585.4,657.171v13.018h-2.329V657.171Z" fill="#484f60"/>
        <path id="Path_390" data-name="Path 390" d="M595.271,666.4c-.058.659-.307,4.014-3.911,4.014-3.692,0-4.116-3.252-4.116-6.75,0-4.216,1.233-6.7,4.255-6.7,3.444,0,3.712,2.961,3.765,4h-2.3c-.036-.443-.067-2.026-1.5-2.026-1.46,0-1.816,1.791-1.816,4.771,0,2.455.245,4.76,1.751,4.76,1.386,0,1.5-1.573,1.555-2.072Z" fill="#484f60"/>
        <path id="Path_391" data-name="Path 391" d="M603.187,664.4H599.02v3.782H603.7l-.286,2.005h-6.689V657.171h6.661v2.04H599.02v3.169h4.167Z" fill="#484f60"/>
      </g>
    </g>
  </g>
</svg>
